<svg id="Calque_1" xmlns="http://www.w3.org/2000/svg" xmlns:xlink="http://www.w3.org/1999/xlink" viewBox="0 0 640.3 891.1"><style>.st0,.st1{clip-path:url(#SVGID_2_)}.st1{fill:url(#SVGID_3_)}.st2{fill:#fff;stroke:#76529b;stroke-width:.75;stroke-miterlimit:22.9256}.st3{clip-path:url(#SVGID_5_)}.st4{fill:#832a60}.st5{fill:#fff}.st5,.st6{fill-rule:evenodd;clip-rule:evenodd}.st7{fill:url(#SVGID_6_)}.st8{display:none}.st9{display:inline;fill:#f7ec5c;stroke:#af3034;stroke-width:2;stroke-linecap:round;stroke-linejoin:round;stroke-miterlimit:22.9256}</style><defs><path id="SVGID_1_" d="M0 0h640.4v891.1H0z"/></defs><clipPath id="SVGID_2_"><use xlink:href="#SVGID_1_" overflow="visible"/></clipPath><path class="st0" d="M750.7 799.6H186.4"/><linearGradient id="SVGID_3_" gradientUnits="userSpaceOnUse" x1="320.377" y1="122.881" x2="320.377" y2="1011.286"><stop offset="0" stop-color="#72328b" stop-opacity="0"/><stop offset=".479" stop-color="#72328b" stop-opacity=".051"/><stop offset=".695" stop-color="#72328b" stop-opacity=".393"/><stop offset=".899" stop-color="#72328b"/></linearGradient><path class="st1" d="M0 467.2h640.8l-.4 423.9L0 891z"/><g class="st0"><path class="st2" d="M142 696.5c-2.3-3.1-5.4-4.6-9.2-4.6-3.6 0-6.3 1.3-8.1 3.9s-2.7 6-2.7 10.1c0 4 .9 7.4 2.7 10 1.8 2.6 4.4 4 8 4 2 0 3.9-.5 5.6-1.4 1.7-.9 3.1-2.2 4.1-3.8l7.1 6.4c-1.8 2.6-4.2 4.6-7.2 6.1s-6.1 2.2-9.5 2.2c-4.5 0-8.4-1.1-11.7-3.4-3.3-2.3-5.8-5.1-7.4-8.6-1.6-3.5-2.4-7.3-2.4-11.5 0-6.4 1.9-11.9 5.8-16.5s9-6.9 15.5-6.9c3.4 0 6.5.7 9.4 2 2.9 1.4 5.3 3.3 7.2 5.9l-7.2 6.1zM187.4 729c-.4-3.6-1.1-7.3-2.1-11.1h-18c-1 3.8-1.7 7.5-2.1 11.1h-9.6c1.6-13.4 6.9-28.8 15.8-46.2h9.8c8.9 17.4 14.1 32.8 15.8 46.2h-9.6zm-4.8-20c-1.6-4.9-3.7-10.2-6.4-16-2.6 5.8-4.8 11.1-6.4 16h12.8zM245.5 729h-9.6c-1.3-.4-2.6-1.4-4-2.8s-2.9-3.4-4.4-5.8c-1.5-2.4-2.9-4.7-4-6.9-1.2-2.1-2.6-4.8-4.3-8.1-1.7-3.3-3-5.7-3.9-7.3l.1 31h-9.6v-46.2h9.5c1.6.8 3.6 2.9 5.9 6.5s4.9 8.3 7.9 14c3 5.7 5.3 9.9 6.9 12.4v-32.3l9.6-.6V729zM286.9 689.2c4 4.4 6 9.8 6 16.2 0 4.3-.8 8.2-2.5 11.8-1.7 3.6-4.2 6.5-7.6 8.8-3.4 2.3-7.3 3.4-11.8 3.4-5.3 0-10.3-.6-15.1-1.8V684c1.4-.4 3.6-.7 6.7-1 3.1-.3 5.9-.4 8.4-.4 6.6-.1 11.9 2.1 15.9 6.6zm-7.5 26.5c1.9-2.7 2.8-6.2 2.8-10.3 0-3.9-1-7.1-3-9.6s-4.8-3.8-8.4-3.8c-1.7 0-3.4.1-5.3.4v26.7c1.5.4 3.3.7 5.2.7 4 0 6.8-1.4 8.7-4.1zM311.9 729h-9.6v-45.6l9.6-.6V729zM353.6 689.2c4 4.4 6 9.8 6 16.2 0 4.3-.8 8.2-2.5 11.8-1.7 3.6-4.2 6.5-7.6 8.8-3.4 2.3-7.3 3.4-11.8 3.4-5.3 0-10.3-.6-15.1-1.8V684c1.4-.4 3.6-.7 6.7-1 3.1-.3 5.9-.4 8.4-.4 6.6-.1 11.9 2.1 15.9 6.6zm-7.5 26.5c1.9-2.7 2.8-6.2 2.8-10.3 0-3.9-1-7.1-3-9.6s-4.8-3.8-8.4-3.8c-1.7 0-3.4.1-5.3.4v26.7c1.5.4 3.3.7 5.2.7 4 0 6.9-1.4 8.7-4.1zM395.7 729c-.4-3.6-1.1-7.3-2.1-11.1h-18c-1 3.8-1.7 7.5-2.1 11.1h-9.6c1.6-13.4 6.9-28.8 15.8-46.2h9.8c8.9 17.4 14.1 32.8 15.8 46.2h-9.6zm-4.7-20c-1.6-4.9-3.7-10.2-6.4-16-2.6 5.8-4.8 11.1-6.4 16H391zM428.5 690.6V729h-9.6v-38.4h-11.5l.6-7.8h31.6l-.6 7.8h-10.5zM469.7 693.3c-2.8-1.2-5.7-1.7-8.5-1.7-1.6 0-2.9.4-4 1.1-1 .7-1.6 1.6-1.6 2.5 0 1.3.5 2.4 1.5 3.4s3.2 2.1 6.6 3.5c7.2 2.9 10.8 7.4 10.8 13.6 0 2.2-.3 4.1-1 5.7-.7 1.6-1.6 3-2.6 3.9-1.1 1-2.4 1.8-4 2.4-1.6.6-3.1 1-4.7 1.3s-3.2.4-5 .4c-2.2 0-4.5-.3-6.9-1-2.4-.6-4.3-1.5-5.8-2.5l2-9.2c3.5 1.9 7.1 2.9 10.7 2.9 1.8 0 3.2-.1 4.3-.4 1.1-.3 1.9-.7 2.3-1.3s.7-1.1.8-1.5.2-1 .2-1.6c0-1-.6-1.9-1.8-2.8-1.2-.9-3.3-1.9-6.4-3.1-4.3-1.6-7.2-3.5-8.9-5.8-1.6-2.3-2.5-5-2.5-8 0-4 1.6-7.1 4.7-9.2 3.1-2.2 6.8-3.2 11.1-3.2 3.4 0 7.1.8 11 2.3l-2.3 8.3zM134.7 781c-3.9 1.6-7.7 2.4-11.3 2.4-4 0-7.2-1.3-9.4-3.8s-3.3-5.6-3.3-9.2c0-3.6 1.1-6.6 3.3-9.1 2.2-2.5 5.3-3.7 9.3-3.7 1.2 0 2.6.1 4.1.4v-9.4l7.2-.5V781zm-15-6c.9 1.2 2.2 1.8 3.9 1.8 1.5 0 2.8-.3 3.9-.8v-11.1c-1.3-.4-2.6-.6-3.9-.6-1.6 0-2.9.6-3.9 1.9-.9 1.3-1.4 2.8-1.4 4.5 0 1.6.5 3 1.4 4.3zM157.1 758.9c1.6 1 2.9 2.2 3.8 3.7.9 1.5 1.5 3.2 1.9 4.9.4 1.7.5 3.5.3 5.2h-16.6c.4 1.2 1 2.2 1.9 3 .9.8 2.1 1.2 3.5 1.2 1.1 0 2-.1 2.6-.2s1.4-.4 2.3-.8l3.5 5.2c-2.3 1.6-5.2 2.3-8.6 2.2-2.1 0-4-.4-5.7-1.1-1.7-.7-3-1.7-4-2.9s-1.8-2.6-2.3-4.1c-.5-1.5-.8-3.2-.8-4.9 0-3.6 1.1-6.6 3.3-9.1 2.2-2.5 5.3-3.7 9.4-3.7 2 0 3.9.5 5.5 1.4zm-1.5 8.9c0-.1-.1-.2-.1-.4s-.1-.5-.4-.9c-.2-.4-.5-.8-.8-1.1-.3-.3-.7-.6-1.3-.9-.6-.3-1.3-.4-2-.4-2.5 0-4 1.3-4.6 3.8h9.2zm-7.7-12.7l4.9-4.7h6.7l-6.6 4.7h-5zM188.1 761.2c2.2 2.5 3.3 5.6 3.3 9.2 0 3.6-1.1 6.6-3.3 9.1-2.2 2.5-5.3 3.7-9.3 3.7-1.2 0-2.6-.1-4.1-.4v9.7l-7.2.5v-33.3c3.9-1.6 7.7-2.4 11.3-2.4 4 .2 7.1 1.4 9.3 3.9zm-5.7 13.6c.9-1.3 1.4-2.8 1.4-4.5 0-1.7-.5-3.1-1.4-4.3-.9-1.2-2.2-1.8-3.9-1.8-1.5 0-2.8.3-3.9.8v11c1.3.4 2.6.6 3.9.6 1.7.1 3-.6 3.9-1.8zM216.7 779.6c-2.2 2.5-5.3 3.7-9.3 3.7-4.1 0-7.3-1.2-9.5-3.7s-3.3-5.6-3.3-9.2c0-3.6 1.1-6.6 3.3-9.1 2.2-2.5 5.4-3.7 9.5-3.7 4 0 7.1 1.3 9.3 3.8s3.3 5.6 3.3 9.2c0 3.4-1.1 6.5-3.3 9zm-5.6-13.7c-.9-1.2-2.1-1.8-3.8-1.8-1.7 0-3 .6-3.9 1.8-.9 1.2-1.3 2.7-1.3 4.5 0 1.7.4 3.2 1.3 4.5.9 1.2 2.2 1.8 3.9 1.8 1.6 0 2.9-.6 3.8-1.9s1.3-2.8 1.3-4.5c0-1.7-.5-3.2-1.3-4.4zM237.5 764.2c-1.8-.6-3.3-.9-4.4-.9-2 0-3 .6-3 1.9 0 .9 1.2 1.8 3.6 2.6 4.5 1.6 6.8 4.3 6.8 8.1 0 2.3-.9 4.1-2.7 5.4s-4 2-6.6 2c-1.3 0-2.7-.2-4.3-.6-1.6-.4-2.8-.8-3.5-1.4l2.1-5.4c1.4.9 3.3 1.3 5.7 1.3 2.2 0 3.3-.5 3.3-1.6 0-.7-.3-1.2-.8-1.6-.5-.4-1.8-1-3.8-1.6-3.9-1.3-5.8-3.7-5.8-7.2 0-5.1 3.1-7.6 9.2-7.6 2 0 4.1.4 6.3 1.2l-2.1 5.4zM262.2 758.9c1.6 1 2.9 2.2 3.8 3.7.9 1.5 1.5 3.2 1.9 4.9.4 1.7.5 3.5.3 5.2h-16.6c.4 1.2 1 2.2 1.9 3 .9.8 2.1 1.2 3.5 1.2 1.1 0 2-.1 2.6-.2s1.4-.4 2.3-.8l3.5 5.2c-2.3 1.6-5.2 2.3-8.6 2.2-2.1 0-4-.4-5.7-1.1-1.7-.7-3-1.7-4-2.9s-1.8-2.6-2.3-4.1c-.5-1.5-.8-3.2-.8-4.9 0-3.6 1.1-6.6 3.3-9.1 2.2-2.5 5.3-3.7 9.4-3.7 2 0 3.9.5 5.5 1.4zm-1.5 8.9c0-.1-.1-.2-.1-.4s-.1-.5-.4-.9c-.2-.4-.5-.8-.8-1.1-.3-.3-.7-.6-1.3-.9-.6-.3-1.3-.4-2-.4-2.5 0-4 1.3-4.6 3.8h9.2zM312 757.8c-.3 2.6-1 5.6-2.2 8.9-1.2 3.3-2.3 6-3.2 7.9l-4.2 8.4h-7.2l-4.2-8.4c-1-2-2-4.6-3.2-7.9-1.2-3.3-1.9-6.3-2.2-8.9h7.2c.5 4.8 2.6 10.8 6.1 18 3.5-7.3 5.5-13.3 6-18h7.1zM335.5 779.6c-2.2 2.5-5.3 3.7-9.3 3.7-4.1 0-7.3-1.2-9.5-3.7s-3.3-5.6-3.3-9.2c0-3.6 1.1-6.6 3.3-9.1 2.2-2.5 5.4-3.7 9.5-3.7 4 0 7.1 1.3 9.3 3.8s3.3 5.6 3.3 9.2c0 3.4-1.1 6.5-3.3 9zm-5.6-13.7c-.9-1.2-2.1-1.8-3.8-1.8-1.7 0-3 .6-3.9 1.8-.9 1.2-1.3 2.7-1.3 4.5 0 1.7.4 3.2 1.3 4.5.9 1.2 2.2 1.8 3.9 1.8 1.6 0 2.9-.6 3.8-1.9s1.3-2.8 1.3-4.5c0-1.7-.4-3.2-1.3-4.4zM357 776.2v6.1c0 .2-.4.3-1.2.5-.8.1-1.4.2-2 .2-3 0-5.6-.8-7.7-2.5-2.1-1.7-3.2-4-3.2-7v-20.9l7.2-.5v5.7h6.2l-.5 5.8h-5.7v8.5c0 1.3.4 2.3 1.1 3.1.8.8 1.7 1.2 2.9 1.2 1.6 0 2.6-.1 2.9-.2zM378.2 765.3c-1.1-.5-2.6-.8-4.7-.8-3 0-4.5 1.8-4.5 5.3V783h-7.2v-15.5c0-2.9 1-5.3 2.9-7.2 2-1.9 4.3-2.9 7.1-2.9 3.7 0 6.4.5 8.1 1.5l-1.7 6.4zM400 758.9c1.6 1 2.9 2.2 3.8 3.7.9 1.5 1.5 3.2 1.9 4.9.4 1.7.5 3.5.3 5.2h-16.6c.4 1.2 1 2.2 1.9 3 .9.8 2.1 1.2 3.5 1.2 1.1 0 2-.1 2.6-.2s1.4-.4 2.3-.8l3.5 5.2c-2.3 1.6-5.2 2.3-8.6 2.2-2.1 0-4-.4-5.7-1.1-1.7-.7-3-1.7-4-2.9s-1.8-2.6-2.3-4.1c-.5-1.5-.8-3.2-.8-4.9 0-3.6 1.1-6.6 3.3-9.1 2.2-2.5 5.3-3.7 9.4-3.7 2 0 3.9.5 5.5 1.4zm-1.6 8.9c0-.1-.1-.2-.1-.4s-.1-.5-.4-.9c-.2-.4-.5-.8-.8-1.1-.3-.3-.7-.6-1.3-.9-.6-.3-1.3-.4-2-.4-2.5 0-4 1.3-4.6 3.8h9.2zM445.5 779c-.8.9-1.5 1.6-2.2 2.1-.7.5-1.7 1-3.1 1.5s-2.9.7-4.6.7c-4.1 0-7.3-1.2-9.5-3.7s-3.3-5.6-3.3-9.2c0-3.6 1.1-6.6 3.3-9.1 2.2-2.5 5.4-3.7 9.5-3.7 1.9 0 3.6.3 5.4 1 1.7.7 3.1 1.7 4.2 3l-4.9 4.9c-.8-.8-1.5-1.4-2.2-1.8s-1.5-.5-2.4-.5c-1.8 0-3.1.6-3.9 1.8-.9 1.2-1.3 2.7-1.3 4.5 0 1.7.4 3.2 1.3 4.5.9 1.2 2.2 1.8 3.9 1.8.6 0 1.2-.1 1.7-.3.5-.2.9-.4 1.2-.6.2-.2.6-.5 1-.9s.6-.6.7-.6l5.2 4.6zM474.7 757.8c-.3 2.6-1 5.6-2.2 8.9-1.2 3.3-2.3 6-3.2 7.9l-4.2 8.4h-7.2l-4.2-8.4c-1-2-2-4.6-3.2-7.9-1.2-3.3-1.9-6.3-2.2-8.9h7.2c.5 4.8 2.6 10.8 6.1 18 3.5-7.3 5.5-13.3 6-18h7.1z"/></g><g class="st0"><defs><path id="SVGID_4_" d="M640.4 900.1H-20.1V-10.2h660.9z"/></defs><use xlink:href="#SVGID_4_" overflow="visible" fill="#da3832"/><clipPath id="SVGID_5_"><use xlink:href="#SVGID_4_" overflow="visible"/></clipPath><g class="st3"><ellipse class="st4" cx="37.5" cy="-4.2" rx="14.3" ry="13.6"/><ellipse class="st4" cx="83.5" cy="-4.2" rx="14.3" ry="13.6"/><ellipse class="st4" cx="129.5" cy="-4.2" rx="14.3" ry="13.6"/><ellipse class="st4" cx="175.6" cy="-4.2" rx="14.3" ry="13.6"/><ellipse class="st4" cx="221.6" cy="-4.2" rx="14.3" ry="13.6"/><ellipse class="st4" cx="267.6" cy="-4.2" rx="14.3" ry="13.6"/><ellipse class="st4" cx="313.6" cy="-4.2" rx="14.3" ry="13.6"/><ellipse class="st4" cx="359.7" cy="-4.2" rx="14.3" ry="13.6"/><ellipse class="st4" cx="405.7" cy="-4.2" rx="14.3" ry="13.6"/><ellipse class="st4" cx="451.7" cy="-4.2" rx="14.3" ry="13.6"/><ellipse class="st4" cx="497.7" cy="-4.2" rx="14.3" ry="13.6"/><ellipse class="st4" cx="543.7" cy="-4.2" rx="14.3" ry="13.6"/><ellipse class="st4" cx="589.8" cy="-4.2" rx="14.3" ry="13.6"/><ellipse class="st4" cx="635.8" cy="-4.2" rx="14.3" ry="13.6"/><ellipse class="st4" cx="681.8" cy="-4.2" rx="14.3" ry="13.6"/><ellipse class="st4" cx="60.5" cy="34.3" rx="14.3" ry="13.6"/><ellipse class="st4" cx="106.5" cy="34.3" rx="14.3" ry="13.6"/><ellipse class="st4" cx="152.6" cy="34.3" rx="14.3" ry="13.6"/><ellipse class="st4" cx="198.6" cy="34.3" rx="14.3" ry="13.6"/><ellipse class="st4" cx="244.6" cy="34.3" rx="14.3" ry="13.6"/><ellipse class="st4" cx="290.6" cy="34.3" rx="14.3" ry="13.6"/><ellipse class="st4" cx="336.6" cy="34.3" rx="14.3" ry="13.6"/><ellipse class="st4" cx="382.7" cy="34.3" rx="14.3" ry="13.6"/><ellipse class="st4" cx="428.7" cy="34.3" rx="14.3" ry="13.6"/><ellipse class="st4" cx="474.7" cy="34.3" rx="14.3" ry="13.6"/><ellipse class="st4" cx="520.7" cy="34.3" rx="14.3" ry="13.6"/><ellipse class="st4" cx="566.8" cy="34.3" rx="14.3" ry="13.6"/><ellipse class="st4" cx="612.8" cy="34.3" rx="14.3" ry="13.6"/><ellipse class="st4" cx="658.8" cy="34.3" rx="14.3" ry="13.6"/><g><ellipse class="st4" cx="37.5" cy="72.7" rx="14.3" ry="13.6"/><ellipse class="st4" cx="83.5" cy="72.7" rx="14.3" ry="13.6"/><ellipse class="st4" cx="129.5" cy="72.7" rx="14.3" ry="13.6"/><ellipse class="st4" cx="175.6" cy="72.7" rx="14.3" ry="13.6"/><ellipse class="st4" cx="221.6" cy="72.7" rx="14.3" ry="13.6"/><ellipse class="st4" cx="267.6" cy="72.7" rx="14.3" ry="13.6"/><ellipse class="st4" cx="313.6" cy="72.7" rx="14.3" ry="13.6"/><ellipse class="st4" cx="359.7" cy="72.7" rx="14.3" ry="13.6"/><ellipse class="st4" cx="405.7" cy="72.7" rx="14.3" ry="13.6"/><ellipse class="st4" cx="451.7" cy="72.7" rx="14.3" ry="13.6"/><ellipse class="st4" cx="497.7" cy="72.7" rx="14.3" ry="13.6"/><ellipse class="st4" cx="543.7" cy="72.7" rx="14.3" ry="13.6"/><ellipse class="st4" cx="589.8" cy="72.7" rx="14.3" ry="13.6"/><ellipse class="st4" cx="635.8" cy="72.7" rx="14.3" ry="13.6"/><ellipse class="st4" cx="681.8" cy="72.7" rx="14.3" ry="13.6"/></g><g><ellipse class="st4" cx="60.5" cy="111.1" rx="14.3" ry="13.6"/><ellipse class="st4" cx="106.5" cy="111.1" rx="14.3" ry="13.6"/><ellipse class="st4" cx="152.6" cy="111.1" rx="14.3" ry="13.6"/><ellipse class="st4" cx="198.6" cy="111.1" rx="14.3" ry="13.6"/><ellipse class="st4" cx="244.6" cy="111.1" rx="14.3" ry="13.6"/><ellipse class="st4" cx="290.6" cy="111.1" rx="14.3" ry="13.6"/><ellipse class="st4" cx="336.6" cy="111.1" rx="14.3" ry="13.6"/><ellipse class="st4" cx="382.7" cy="111.1" rx="14.3" ry="13.6"/><ellipse class="st4" cx="428.7" cy="111.1" rx="14.3" ry="13.6"/><ellipse class="st4" cx="474.7" cy="111.1" rx="14.3" ry="13.6"/><ellipse class="st4" cx="520.7" cy="111.1" rx="14.3" ry="13.6"/><ellipse class="st4" cx="566.8" cy="111.1" rx="14.3" ry="13.6"/><ellipse class="st4" cx="612.8" cy="111.1" rx="14.3" ry="13.6"/><ellipse class="st4" cx="658.8" cy="111.1" rx="14.3" ry="13.6"/></g><g><ellipse class="st4" cx="37.5" cy="149.6" rx="14.3" ry="13.6"/><ellipse class="st4" cx="83.5" cy="149.6" rx="14.3" ry="13.6"/><ellipse class="st4" cx="129.5" cy="149.6" rx="14.3" ry="13.6"/><ellipse class="st4" cx="175.6" cy="149.6" rx="14.3" ry="13.6"/><ellipse class="st4" cx="221.6" cy="149.6" rx="14.3" ry="13.6"/><ellipse class="st4" cx="267.6" cy="149.6" rx="14.3" ry="13.6"/><ellipse class="st4" cx="313.6" cy="149.6" rx="14.3" ry="13.6"/><ellipse class="st4" cx="359.7" cy="149.6" rx="14.3" ry="13.6"/><ellipse class="st4" cx="405.7" cy="149.6" rx="14.3" ry="13.6"/><ellipse class="st4" cx="451.7" cy="149.6" rx="14.3" ry="13.6"/><ellipse class="st4" cx="497.7" cy="149.6" rx="14.3" ry="13.6"/><ellipse class="st4" cx="543.7" cy="149.6" rx="14.3" ry="13.6"/><ellipse class="st4" cx="589.8" cy="149.6" rx="14.3" ry="13.6"/><ellipse class="st4" cx="635.8" cy="149.6" rx="14.3" ry="13.6"/><ellipse class="st4" cx="681.8" cy="149.6" rx="14.3" ry="13.6"/></g><g><ellipse class="st4" cx="60.5" cy="188" rx="14.3" ry="13.6"/><ellipse class="st4" cx="106.5" cy="188" rx="14.3" ry="13.6"/><ellipse class="st4" cx="152.6" cy="188" rx="14.3" ry="13.6"/><ellipse class="st4" cx="198.6" cy="188" rx="14.3" ry="13.6"/><ellipse class="st4" cx="244.6" cy="188" rx="14.3" ry="13.6"/><ellipse class="st4" cx="290.6" cy="188" rx="14.3" ry="13.6"/><ellipse class="st4" cx="336.6" cy="188" rx="14.3" ry="13.6"/><ellipse class="st4" cx="382.7" cy="188" rx="14.3" ry="13.6"/><ellipse class="st4" cx="428.7" cy="188" rx="14.3" ry="13.6"/><ellipse class="st4" cx="474.7" cy="188" rx="14.3" ry="13.6"/><ellipse class="st4" cx="520.7" cy="188" rx="14.3" ry="13.6"/><ellipse class="st4" cx="566.8" cy="188" rx="14.3" ry="13.6"/><ellipse class="st4" cx="612.8" cy="188" rx="14.3" ry="13.6"/><ellipse class="st4" cx="658.8" cy="188" rx="14.3" ry="13.6"/></g><g><ellipse class="st4" cx="37.5" cy="226.4" rx="14.3" ry="13.6"/><ellipse class="st4" cx="83.5" cy="226.4" rx="14.3" ry="13.6"/><ellipse class="st4" cx="129.5" cy="226.4" rx="14.3" ry="13.6"/><ellipse class="st4" cx="175.6" cy="226.4" rx="14.3" ry="13.6"/><ellipse class="st4" cx="221.6" cy="226.4" rx="14.3" ry="13.6"/><ellipse class="st4" cx="267.6" cy="226.4" rx="14.3" ry="13.6"/><ellipse class="st4" cx="313.6" cy="226.4" rx="14.3" ry="13.6"/><ellipse class="st4" cx="359.7" cy="226.4" rx="14.3" ry="13.6"/><ellipse class="st4" cx="405.7" cy="226.4" rx="14.3" ry="13.6"/><ellipse class="st4" cx="451.7" cy="226.4" rx="14.3" ry="13.6"/><ellipse class="st4" cx="497.7" cy="226.4" rx="14.3" ry="13.6"/><ellipse class="st4" cx="543.7" cy="226.4" rx="14.3" ry="13.6"/><ellipse class="st4" cx="589.8" cy="226.4" rx="14.3" ry="13.6"/><ellipse class="st4" cx="635.8" cy="226.4" rx="14.3" ry="13.6"/><ellipse class="st4" cx="681.8" cy="226.4" rx="14.3" ry="13.6"/></g><g><ellipse class="st4" cx="60.5" cy="264.9" rx="14.3" ry="13.6"/><ellipse class="st4" cx="106.5" cy="264.9" rx="14.3" ry="13.6"/><ellipse class="st4" cx="152.6" cy="264.9" rx="14.3" ry="13.6"/><ellipse class="st4" cx="198.6" cy="264.9" rx="14.3" ry="13.6"/><ellipse class="st4" cx="244.6" cy="264.9" rx="14.3" ry="13.6"/><ellipse class="st4" cx="290.6" cy="264.9" rx="14.3" ry="13.6"/><ellipse class="st4" cx="336.6" cy="264.9" rx="14.3" ry="13.6"/><ellipse class="st4" cx="382.7" cy="264.9" rx="14.3" ry="13.6"/><ellipse class="st4" cx="428.7" cy="264.9" rx="14.3" ry="13.6"/><ellipse class="st4" cx="474.7" cy="264.9" rx="14.3" ry="13.6"/><ellipse class="st4" cx="520.7" cy="264.9" rx="14.3" ry="13.6"/><ellipse class="st4" cx="566.8" cy="264.9" rx="14.3" ry="13.6"/><ellipse class="st4" cx="612.8" cy="264.9" rx="14.3" ry="13.6"/><ellipse class="st4" cx="658.8" cy="264.9" rx="14.3" ry="13.6"/></g><g><ellipse class="st4" cx="37.5" cy="303.3" rx="14.3" ry="13.6"/><ellipse class="st4" cx="83.5" cy="303.3" rx="14.3" ry="13.6"/><ellipse class="st4" cx="129.5" cy="303.3" rx="14.3" ry="13.6"/><ellipse class="st4" cx="175.6" cy="303.3" rx="14.3" ry="13.6"/><ellipse class="st4" cx="221.6" cy="303.3" rx="14.3" ry="13.6"/><ellipse class="st4" cx="267.6" cy="303.3" rx="14.3" ry="13.6"/><ellipse class="st4" cx="313.6" cy="303.3" rx="14.3" ry="13.6"/><ellipse class="st4" cx="359.7" cy="303.3" rx="14.3" ry="13.6"/><ellipse class="st4" cx="405.7" cy="303.3" rx="14.3" ry="13.6"/><ellipse class="st4" cx="451.7" cy="303.3" rx="14.3" ry="13.6"/><ellipse class="st4" cx="497.7" cy="303.3" rx="14.3" ry="13.6"/><ellipse class="st4" cx="543.7" cy="303.3" rx="14.3" ry="13.6"/><ellipse class="st4" cx="589.8" cy="303.3" rx="14.3" ry="13.6"/><ellipse class="st4" cx="635.8" cy="303.3" rx="14.3" ry="13.6"/><ellipse class="st4" cx="681.8" cy="303.3" rx="14.3" ry="13.6"/></g><g><ellipse class="st4" cx="60.5" cy="341.7" rx="14.3" ry="13.6"/><ellipse class="st4" cx="106.5" cy="341.7" rx="14.3" ry="13.6"/><ellipse class="st4" cx="152.6" cy="341.7" rx="14.3" ry="13.6"/><ellipse class="st4" cx="198.6" cy="341.7" rx="14.3" ry="13.6"/><ellipse class="st4" cx="244.6" cy="341.7" rx="14.3" ry="13.6"/><ellipse class="st4" cx="290.6" cy="341.7" rx="14.3" ry="13.6"/><ellipse class="st4" cx="336.6" cy="341.7" rx="14.3" ry="13.6"/><ellipse class="st4" cx="382.7" cy="341.7" rx="14.3" ry="13.6"/><ellipse class="st4" cx="428.7" cy="341.7" rx="14.3" ry="13.6"/><ellipse class="st4" cx="474.7" cy="341.7" rx="14.3" ry="13.6"/><ellipse class="st4" cx="520.7" cy="341.7" rx="14.3" ry="13.6"/><ellipse class="st4" cx="566.8" cy="341.7" rx="14.3" ry="13.6"/><ellipse class="st4" cx="612.8" cy="341.7" rx="14.3" ry="13.6"/><ellipse class="st4" cx="658.8" cy="341.7" rx="14.3" ry="13.6"/></g><g><ellipse class="st4" cx="37.5" cy="380.2" rx="14.3" ry="13.6"/><ellipse class="st4" cx="83.5" cy="380.2" rx="14.3" ry="13.6"/><ellipse class="st4" cx="129.5" cy="380.2" rx="14.3" ry="13.6"/><ellipse class="st4" cx="175.6" cy="380.2" rx="14.3" ry="13.6"/><ellipse class="st4" cx="221.6" cy="380.2" rx="14.3" ry="13.6"/><ellipse class="st4" cx="267.6" cy="380.2" rx="14.3" ry="13.6"/><ellipse class="st4" cx="313.6" cy="380.2" rx="14.3" ry="13.6"/><ellipse class="st4" cx="359.7" cy="380.2" rx="14.3" ry="13.6"/><ellipse class="st4" cx="405.7" cy="380.2" rx="14.3" ry="13.6"/><ellipse class="st4" cx="451.7" cy="380.2" rx="14.3" ry="13.6"/><ellipse class="st4" cx="497.7" cy="380.2" rx="14.3" ry="13.6"/><ellipse class="st4" cx="543.7" cy="380.2" rx="14.3" ry="13.6"/><ellipse class="st4" cx="589.8" cy="380.2" rx="14.3" ry="13.6"/><ellipse class="st4" cx="635.8" cy="380.2" rx="14.3" ry="13.6"/><ellipse class="st4" cx="681.8" cy="380.2" rx="14.3" ry="13.6"/></g><g><ellipse class="st4" cx="60.5" cy="418.6" rx="14.3" ry="13.6"/><ellipse class="st4" cx="106.5" cy="418.6" rx="14.3" ry="13.6"/><ellipse class="st4" cx="152.6" cy="418.6" rx="14.3" ry="13.6"/><ellipse class="st4" cx="198.6" cy="418.6" rx="14.3" ry="13.6"/><ellipse class="st4" cx="244.6" cy="418.6" rx="14.3" ry="13.6"/><ellipse class="st4" cx="290.6" cy="418.6" rx="14.3" ry="13.6"/><ellipse class="st4" cx="336.6" cy="418.6" rx="14.3" ry="13.6"/><ellipse class="st4" cx="382.7" cy="418.6" rx="14.3" ry="13.6"/><ellipse class="st4" cx="428.7" cy="418.6" rx="14.3" ry="13.6"/><ellipse class="st4" cx="474.7" cy="418.6" rx="14.3" ry="13.6"/><ellipse class="st4" cx="520.7" cy="418.6" rx="14.3" ry="13.6"/><ellipse class="st4" cx="566.8" cy="418.6" rx="14.3" ry="13.6"/><ellipse class="st4" cx="612.8" cy="418.6" rx="14.3" ry="13.6"/><ellipse class="st4" cx="658.8" cy="418.6" rx="14.3" ry="13.6"/></g><g><ellipse class="st4" cx="37.5" cy="457" rx="14.3" ry="13.6"/><ellipse class="st4" cx="83.5" cy="457" rx="14.3" ry="13.6"/><ellipse class="st4" cx="129.5" cy="457" rx="14.3" ry="13.6"/><ellipse class="st4" cx="175.6" cy="457" rx="14.3" ry="13.6"/><ellipse class="st4" cx="221.6" cy="457" rx="14.3" ry="13.6"/><ellipse class="st4" cx="267.6" cy="457" rx="14.3" ry="13.6"/><ellipse class="st4" cx="313.6" cy="457" rx="14.3" ry="13.6"/><ellipse class="st4" cx="359.7" cy="457" rx="14.3" ry="13.6"/><ellipse class="st4" cx="405.7" cy="457" rx="14.3" ry="13.6"/><ellipse class="st4" cx="451.7" cy="457" rx="14.3" ry="13.6"/><ellipse class="st4" cx="497.7" cy="457" rx="14.3" ry="13.6"/><ellipse class="st4" cx="543.7" cy="457" rx="14.3" ry="13.6"/><ellipse class="st4" cx="589.8" cy="457" rx="14.3" ry="13.6"/><ellipse class="st4" cx="635.8" cy="457" rx="14.3" ry="13.6"/><ellipse class="st4" cx="681.8" cy="457" rx="14.3" ry="13.6"/></g><g><ellipse class="st4" cx="60.5" cy="495.5" rx="14.3" ry="13.6"/><ellipse class="st4" cx="106.5" cy="495.5" rx="14.3" ry="13.6"/><ellipse class="st4" cx="152.6" cy="495.5" rx="14.3" ry="13.6"/><ellipse class="st4" cx="198.6" cy="495.5" rx="14.3" ry="13.6"/><ellipse class="st4" cx="244.6" cy="495.5" rx="14.3" ry="13.6"/><ellipse class="st4" cx="290.6" cy="495.5" rx="14.3" ry="13.6"/><ellipse class="st4" cx="336.6" cy="495.5" rx="14.3" ry="13.6"/><ellipse class="st4" cx="382.7" cy="495.5" rx="14.3" ry="13.6"/><ellipse class="st4" cx="428.7" cy="495.5" rx="14.3" ry="13.6"/><ellipse class="st4" cx="474.7" cy="495.5" rx="14.3" ry="13.6"/><ellipse class="st4" cx="520.7" cy="495.5" rx="14.3" ry="13.6"/><ellipse class="st4" cx="566.8" cy="495.5" rx="14.3" ry="13.6"/><ellipse class="st4" cx="612.8" cy="495.5" rx="14.3" ry="13.6"/><ellipse class="st4" cx="658.8" cy="495.5" rx="14.3" ry="13.6"/></g><g><ellipse class="st4" cx="37.5" cy="533.9" rx="14.3" ry="13.6"/><ellipse class="st4" cx="83.5" cy="533.9" rx="14.3" ry="13.6"/><ellipse class="st4" cx="129.5" cy="533.9" rx="14.3" ry="13.6"/><ellipse class="st4" cx="175.6" cy="533.9" rx="14.3" ry="13.6"/><ellipse class="st4" cx="221.6" cy="533.9" rx="14.3" ry="13.6"/><ellipse class="st4" cx="267.6" cy="533.9" rx="14.3" ry="13.6"/><ellipse class="st4" cx="313.6" cy="533.9" rx="14.3" ry="13.6"/><ellipse class="st4" cx="359.7" cy="533.9" rx="14.3" ry="13.6"/><ellipse class="st4" cx="405.7" cy="533.9" rx="14.3" ry="13.6"/><ellipse class="st4" cx="451.7" cy="533.9" rx="14.3" ry="13.6"/><ellipse class="st4" cx="497.7" cy="533.9" rx="14.3" ry="13.6"/><ellipse class="st4" cx="543.7" cy="533.9" rx="14.3" ry="13.6"/><ellipse class="st4" cx="589.8" cy="533.9" rx="14.3" ry="13.6"/><ellipse class="st4" cx="635.8" cy="533.9" rx="14.3" ry="13.6"/><ellipse class="st4" cx="681.8" cy="533.9" rx="14.3" ry="13.6"/></g><g><ellipse class="st4" cx="60.5" cy="572.3" rx="14.3" ry="13.6"/><ellipse class="st4" cx="106.5" cy="572.3" rx="14.3" ry="13.6"/><ellipse class="st4" cx="152.6" cy="572.3" rx="14.3" ry="13.6"/><ellipse class="st4" cx="198.6" cy="572.3" rx="14.3" ry="13.6"/><ellipse class="st4" cx="244.6" cy="572.3" rx="14.3" ry="13.6"/><ellipse class="st4" cx="290.6" cy="572.3" rx="14.3" ry="13.6"/><ellipse class="st4" cx="336.6" cy="572.3" rx="14.3" ry="13.6"/><ellipse class="st4" cx="382.7" cy="572.3" rx="14.3" ry="13.6"/><ellipse class="st4" cx="428.7" cy="572.3" rx="14.3" ry="13.6"/><ellipse class="st4" cx="474.7" cy="572.3" rx="14.3" ry="13.6"/><ellipse class="st4" cx="520.7" cy="572.3" rx="14.3" ry="13.6"/><ellipse class="st4" cx="566.8" cy="572.3" rx="14.3" ry="13.6"/><ellipse class="st4" cx="612.8" cy="572.3" rx="14.3" ry="13.6"/><ellipse class="st4" cx="658.8" cy="572.3" rx="14.3" ry="13.6"/></g><g><ellipse class="st4" cx="37.5" cy="610.8" rx="14.3" ry="13.6"/><ellipse class="st4" cx="83.5" cy="610.8" rx="14.3" ry="13.6"/><ellipse class="st4" cx="129.5" cy="610.8" rx="14.3" ry="13.6"/><ellipse class="st4" cx="175.6" cy="610.8" rx="14.3" ry="13.6"/><ellipse class="st4" cx="221.6" cy="610.8" rx="14.3" ry="13.6"/><ellipse class="st4" cx="267.6" cy="610.8" rx="14.3" ry="13.6"/><ellipse class="st4" cx="313.6" cy="610.8" rx="14.3" ry="13.6"/><ellipse class="st4" cx="359.7" cy="610.8" rx="14.3" ry="13.6"/><ellipse class="st4" cx="405.7" cy="610.8" rx="14.3" ry="13.6"/><ellipse class="st4" cx="451.7" cy="610.8" rx="14.3" ry="13.6"/><ellipse class="st4" cx="497.7" cy="610.8" rx="14.3" ry="13.6"/><ellipse class="st4" cx="543.7" cy="610.8" rx="14.3" ry="13.6"/><ellipse class="st4" cx="589.8" cy="610.8" rx="14.3" ry="13.6"/><ellipse class="st4" cx="635.8" cy="610.8" rx="14.3" ry="13.6"/><ellipse class="st4" cx="681.8" cy="610.8" rx="14.3" ry="13.6"/></g></g><g><ellipse class="st4" cx="37.5" cy="610.8" rx="14.3" ry="13.6"/><ellipse class="st4" cx="83.5" cy="610.8" rx="14.3" ry="13.6"/><ellipse class="st4" cx="129.5" cy="610.8" rx="14.3" ry="13.6"/><ellipse class="st4" cx="175.6" cy="610.8" rx="14.3" ry="13.6"/><ellipse class="st4" cx="221.6" cy="610.8" rx="14.3" ry="13.6"/><ellipse class="st4" cx="267.6" cy="610.8" rx="14.3" ry="13.6"/><ellipse class="st4" cx="313.6" cy="610.8" rx="14.3" ry="13.6"/><ellipse class="st4" cx="359.7" cy="610.8" rx="14.3" ry="13.6"/><ellipse class="st4" cx="405.7" cy="610.8" rx="14.3" ry="13.6"/><ellipse class="st4" cx="451.7" cy="610.8" rx="14.3" ry="13.6"/><ellipse class="st4" cx="497.7" cy="610.8" rx="14.3" ry="13.6"/><ellipse class="st4" cx="543.8" cy="610.8" rx="14.3" ry="13.6"/><ellipse class="st4" cx="589.8" cy="610.8" rx="14.3" ry="13.6"/><ellipse class="st4" cx="635.8" cy="610.8" rx="14.3" ry="13.6"/><g><ellipse class="st4" cx="60.5" cy="649.2" rx="14.3" ry="13.6"/><ellipse class="st4" cx="106.5" cy="649.2" rx="14.3" ry="13.6"/><ellipse class="st4" cx="152.6" cy="649.2" rx="14.3" ry="13.6"/><ellipse class="st4" cx="198.6" cy="649.2" rx="14.3" ry="13.6"/><ellipse class="st4" cx="244.6" cy="649.2" rx="14.3" ry="13.6"/><ellipse class="st4" cx="290.6" cy="649.2" rx="14.3" ry="13.6"/><ellipse class="st4" cx="336.7" cy="649.2" rx="14.3" ry="13.6"/><ellipse class="st4" cx="382.7" cy="649.2" rx="14.3" ry="13.6"/><ellipse class="st4" cx="428.7" cy="649.2" rx="14.3" ry="13.6"/><ellipse class="st4" cx="474.7" cy="649.2" rx="14.3" ry="13.6"/><ellipse class="st4" cx="520.7" cy="649.2" rx="14.3" ry="13.6"/><ellipse class="st4" cx="566.8" cy="649.2" rx="14.3" ry="13.6"/><ellipse class="st4" cx="612.8" cy="649.2" rx="14.3" ry="13.6"/></g><g><ellipse class="st4" cx="37.5" cy="687.6" rx="14.3" ry="13.6"/><ellipse class="st4" cx="83.5" cy="687.6" rx="14.3" ry="13.6"/><ellipse class="st4" cx="129.5" cy="687.6" rx="14.3" ry="13.6"/><ellipse class="st4" cx="175.6" cy="687.6" rx="14.3" ry="13.6"/><ellipse class="st4" cx="221.6" cy="687.6" rx="14.3" ry="13.6"/><ellipse class="st4" cx="267.6" cy="687.6" rx="14.3" ry="13.6"/><ellipse class="st4" cx="313.6" cy="687.6" rx="14.3" ry="13.6"/><ellipse class="st4" cx="359.7" cy="687.6" rx="14.3" ry="13.6"/><ellipse class="st4" cx="405.7" cy="687.6" rx="14.3" ry="13.6"/><ellipse class="st4" cx="451.7" cy="687.6" rx="14.3" ry="13.6"/><ellipse class="st4" cx="497.7" cy="687.6" rx="14.3" ry="13.6"/><ellipse class="st4" cx="543.8" cy="687.6" rx="14.3" ry="13.6"/><ellipse class="st4" cx="589.8" cy="687.6" rx="14.3" ry="13.6"/><ellipse class="st4" cx="635.8" cy="687.6" rx="14.3" ry="13.6"/></g><g><ellipse class="st4" cx="60.5" cy="726.1" rx="14.3" ry="13.6"/><ellipse class="st4" cx="106.5" cy="726.1" rx="14.3" ry="13.6"/><ellipse class="st4" cx="152.6" cy="726.1" rx="14.3" ry="13.6"/><ellipse class="st4" cx="198.6" cy="726.1" rx="14.3" ry="13.6"/><ellipse class="st4" cx="244.6" cy="726.1" rx="14.3" ry="13.6"/><ellipse class="st4" cx="290.6" cy="726.1" rx="14.3" ry="13.6"/><ellipse class="st4" cx="336.7" cy="726.1" rx="14.3" ry="13.6"/><ellipse class="st4" cx="382.7" cy="726.1" rx="14.3" ry="13.6"/><ellipse class="st4" cx="428.7" cy="726.1" rx="14.3" ry="13.6"/><ellipse class="st4" cx="474.7" cy="726.1" rx="14.3" ry="13.6"/><ellipse class="st4" cx="520.7" cy="726.1" rx="14.3" ry="13.6"/><ellipse class="st4" cx="566.8" cy="726.1" rx="14.3" ry="13.6"/><ellipse class="st4" cx="612.8" cy="726.1" rx="14.3" ry="13.6"/></g><g><ellipse class="st4" cx="37.5" cy="764.5" rx="14.3" ry="13.6"/><ellipse class="st4" cx="83.5" cy="764.5" rx="14.3" ry="13.6"/><ellipse class="st4" cx="129.5" cy="764.5" rx="14.3" ry="13.6"/><ellipse class="st4" cx="175.6" cy="764.5" rx="14.3" ry="13.6"/><ellipse class="st4" cx="221.6" cy="764.5" rx="14.3" ry="13.6"/><ellipse class="st4" cx="267.6" cy="764.5" rx="14.3" ry="13.6"/><ellipse class="st4" cx="313.6" cy="764.5" rx="14.3" ry="13.6"/><ellipse class="st4" cx="359.7" cy="764.5" rx="14.3" ry="13.6"/><ellipse class="st4" cx="405.7" cy="764.5" rx="14.3" ry="13.6"/><ellipse class="st4" cx="451.7" cy="764.5" rx="14.3" ry="13.6"/><ellipse class="st4" cx="497.7" cy="764.5" rx="14.3" ry="13.6"/><ellipse class="st4" cx="543.8" cy="764.5" rx="14.3" ry="13.6"/><ellipse class="st4" cx="589.8" cy="764.5" rx="14.3" ry="13.6"/><ellipse class="st4" cx="635.8" cy="764.5" rx="14.3" ry="13.6"/></g><g><ellipse class="st4" cx="60.5" cy="802.9" rx="14.3" ry="13.6"/><ellipse class="st4" cx="106.5" cy="802.9" rx="14.3" ry="13.6"/><ellipse class="st4" cx="152.6" cy="802.9" rx="14.3" ry="13.6"/><ellipse class="st4" cx="198.6" cy="802.9" rx="14.3" ry="13.6"/><ellipse class="st4" cx="244.6" cy="802.9" rx="14.3" ry="13.6"/><ellipse class="st4" cx="290.6" cy="802.9" rx="14.3" ry="13.6"/><ellipse class="st4" cx="336.7" cy="802.9" rx="14.3" ry="13.6"/><ellipse class="st4" cx="382.7" cy="802.9" rx="14.3" ry="13.6"/><ellipse class="st4" cx="428.7" cy="802.9" rx="14.3" ry="13.6"/><ellipse class="st4" cx="474.7" cy="802.9" rx="14.3" ry="13.6"/><ellipse class="st4" cx="520.7" cy="802.9" rx="14.3" ry="13.6"/><ellipse class="st4" cx="566.8" cy="802.9" rx="14.3" ry="13.6"/><ellipse class="st4" cx="612.8" cy="802.9" rx="14.3" ry="13.6"/></g><g><ellipse class="st4" cx="37.5" cy="841.4" rx="14.3" ry="13.6"/><ellipse class="st4" cx="83.5" cy="841.4" rx="14.3" ry="13.6"/><ellipse class="st4" cx="129.5" cy="841.4" rx="14.3" ry="13.6"/><ellipse class="st4" cx="175.6" cy="841.4" rx="14.3" ry="13.6"/><ellipse class="st4" cx="221.6" cy="841.4" rx="14.3" ry="13.6"/><ellipse class="st4" cx="267.6" cy="841.4" rx="14.3" ry="13.6"/><ellipse class="st4" cx="313.6" cy="841.4" rx="14.3" ry="13.6"/><ellipse class="st4" cx="359.7" cy="841.4" rx="14.3" ry="13.6"/><ellipse class="st4" cx="405.7" cy="841.4" rx="14.3" ry="13.6"/><ellipse class="st4" cx="451.7" cy="841.4" rx="14.3" ry="13.6"/><ellipse class="st4" cx="497.7" cy="841.4" rx="14.3" ry="13.6"/><ellipse class="st4" cx="543.8" cy="841.4" rx="14.3" ry="13.6"/><ellipse class="st4" cx="589.8" cy="841.4" rx="14.3" ry="13.6"/><ellipse class="st4" cx="635.8" cy="841.4" rx="14.3" ry="13.6"/></g><g><ellipse class="st4" cx="60.5" cy="879.8" rx="14.3" ry="13.6"/><ellipse class="st4" cx="106.5" cy="879.8" rx="14.3" ry="13.6"/><ellipse class="st4" cx="152.6" cy="879.8" rx="14.3" ry="13.6"/><ellipse class="st4" cx="198.6" cy="879.8" rx="14.3" ry="13.6"/><ellipse class="st4" cx="244.6" cy="879.8" rx="14.3" ry="13.6"/><ellipse class="st4" cx="290.6" cy="879.8" rx="14.3" ry="13.6"/><ellipse class="st4" cx="336.7" cy="879.8" rx="14.3" ry="13.6"/><ellipse class="st4" cx="382.7" cy="879.8" rx="14.3" ry="13.6"/><ellipse class="st4" cx="428.7" cy="879.8" rx="14.3" ry="13.6"/><ellipse class="st4" cx="474.7" cy="879.8" rx="14.3" ry="13.6"/><ellipse class="st4" cx="520.7" cy="879.8" rx="14.3" ry="13.6"/><ellipse class="st4" cx="566.8" cy="879.8" rx="14.3" ry="13.6"/><ellipse class="st4" cx="612.8" cy="879.8" rx="14.3" ry="13.6"/></g></g></g><g class="st0"><ellipse class="st4" cx="37.9" cy="-4.2" rx="14.3" ry="13.6"/><ellipse class="st4" cx="84" cy="-4.2" rx="14.3" ry="13.6"/><ellipse class="st4" cx="130" cy="-4.2" rx="14.3" ry="13.6"/><ellipse class="st4" cx="14.9" cy="34.3" rx="14.3" ry="13.6"/><ellipse class="st4" cx="61" cy="34.3" rx="14.3" ry="13.6"/><ellipse class="st4" cx="107" cy="34.3" rx="14.3" ry="13.6"/><ellipse class="st4" cx="37.9" cy="72.7" rx="14.3" ry="13.6"/><ellipse class="st4" cx="84" cy="72.7" rx="14.3" ry="13.6"/><ellipse class="st4" cx="130" cy="72.7" rx="14.3" ry="13.6"/><ellipse class="st4" cx="14.9" cy="111.1" rx="14.3" ry="13.6"/><ellipse class="st4" cx="61" cy="111.1" rx="14.3" ry="13.6"/><ellipse class="st4" cx="107" cy="111.1" rx="14.3" ry="13.6"/><ellipse class="st4" cx="37.9" cy="149.6" rx="14.3" ry="13.6"/><ellipse class="st4" cx="84" cy="149.6" rx="14.3" ry="13.6"/><ellipse class="st4" cx="130" cy="149.6" rx="14.3" ry="13.6"/><ellipse class="st4" cx="14.9" cy="188" rx="14.3" ry="13.6"/><ellipse class="st4" cx="61" cy="188" rx="14.3" ry="13.6"/><ellipse class="st4" cx="107" cy="188" rx="14.3" ry="13.6"/><g><ellipse class="st4" cx="37.9" cy="226.4" rx="14.3" ry="13.6"/><ellipse class="st4" cx="84" cy="226.4" rx="14.3" ry="13.6"/><ellipse class="st4" cx="130" cy="226.4" rx="14.3" ry="13.6"/></g><g><ellipse class="st4" cx="14.9" cy="264.9" rx="14.3" ry="13.6"/><ellipse class="st4" cx="61" cy="264.9" rx="14.3" ry="13.6"/><ellipse class="st4" cx="107" cy="264.9" rx="14.3" ry="13.6"/></g><g><ellipse class="st4" cx="37.9" cy="303.3" rx="14.3" ry="13.6"/><ellipse class="st4" cx="84" cy="303.3" rx="14.3" ry="13.6"/><ellipse class="st4" cx="130" cy="303.3" rx="14.3" ry="13.6"/></g><g><ellipse class="st4" cx="14.9" cy="341.7" rx="14.3" ry="13.6"/><ellipse class="st4" cx="61" cy="341.7" rx="14.3" ry="13.6"/><ellipse class="st4" cx="107" cy="341.7" rx="14.3" ry="13.6"/></g><g><ellipse class="st4" cx="37.9" cy="380.2" rx="14.3" ry="13.6"/><ellipse class="st4" cx="84" cy="380.2" rx="14.3" ry="13.6"/><ellipse class="st4" cx="130" cy="380.2" rx="14.3" ry="13.6"/></g><g><ellipse class="st4" cx="14.9" cy="418.6" rx="14.3" ry="13.6"/><ellipse class="st4" cx="61" cy="418.6" rx="14.3" ry="13.6"/><ellipse class="st4" cx="107" cy="418.6" rx="14.3" ry="13.6"/></g><g><ellipse class="st4" cx="37.9" cy="457" rx="14.3" ry="13.6"/><ellipse class="st4" cx="84" cy="457" rx="14.3" ry="13.6"/><ellipse class="st4" cx="130" cy="457" rx="14.3" ry="13.6"/></g><g><ellipse class="st4" cx="14.9" cy="495.5" rx="14.3" ry="13.6"/><ellipse class="st4" cx="61" cy="495.5" rx="14.3" ry="13.6"/><ellipse class="st4" cx="107" cy="495.5" rx="14.3" ry="13.6"/></g><g><ellipse class="st4" cx="37.9" cy="533.9" rx="14.3" ry="13.6"/><ellipse class="st4" cx="84" cy="533.9" rx="14.3" ry="13.6"/><ellipse class="st4" cx="130" cy="533.9" rx="14.3" ry="13.6"/></g><g><ellipse class="st4" cx="14.9" cy="572.3" rx="14.3" ry="13.6"/><ellipse class="st4" cx="61" cy="572.3" rx="14.3" ry="13.6"/><ellipse class="st4" cx="107" cy="572.3" rx="14.3" ry="13.6"/></g><g><ellipse class="st4" cx="37.9" cy="610.8" rx="14.3" ry="13.6"/><ellipse class="st4" cx="84" cy="610.8" rx="14.3" ry="13.6"/><ellipse class="st4" cx="130" cy="610.8" rx="14.3" ry="13.6"/></g><g><ellipse class="st4" cx="37.9" cy="610.8" rx="14.3" ry="13.6"/><ellipse class="st4" cx="84" cy="610.8" rx="14.3" ry="13.6"/><ellipse class="st4" cx="130" cy="610.8" rx="14.3" ry="13.6"/><ellipse class="st4" cx="14.9" cy="649.2" rx="14.3" ry="13.6"/><ellipse class="st4" cx="61" cy="649.2" rx="14.3" ry="13.6"/><ellipse class="st4" cx="107" cy="649.2" rx="14.3" ry="13.6"/><ellipse class="st4" cx="37.9" cy="687.6" rx="14.3" ry="13.6"/><ellipse class="st4" cx="84" cy="687.6" rx="14.3" ry="13.6"/><ellipse class="st4" cx="130" cy="687.6" rx="14.3" ry="13.6"/><g><ellipse class="st4" cx="14.9" cy="726.1" rx="14.3" ry="13.6"/><ellipse class="st4" cx="61" cy="726.1" rx="14.3" ry="13.6"/><ellipse class="st4" cx="107" cy="726.1" rx="14.3" ry="13.6"/></g><g><ellipse class="st4" cx="37.9" cy="764.5" rx="14.3" ry="13.6"/><ellipse class="st4" cx="84" cy="764.5" rx="14.3" ry="13.6"/><ellipse class="st4" cx="130" cy="764.5" rx="14.3" ry="13.6"/></g><g><ellipse class="st4" cx="14.9" cy="802.9" rx="14.3" ry="13.6"/><ellipse class="st4" cx="61" cy="802.9" rx="14.3" ry="13.6"/><ellipse class="st4" cx="107" cy="802.9" rx="14.3" ry="13.6"/></g><g><ellipse class="st4" cx="37.9" cy="841.4" rx="14.3" ry="13.6"/><ellipse class="st4" cx="84" cy="841.4" rx="14.3" ry="13.6"/><ellipse class="st4" cx="130" cy="841.4" rx="14.3" ry="13.6"/></g><g><ellipse class="st4" cx="14.9" cy="879.8" rx="14.3" ry="13.6"/><ellipse class="st4" cx="61" cy="879.8" rx="14.3" ry="13.6"/><ellipse class="st4" cx="107" cy="879.8" rx="14.3" ry="13.6"/></g></g></g><g><path class="st5" d="M430 126.6c-51.6-11.6-337.8-7.3-337.8-7.3s-2.4 47.1-.9 51.9c1.9 6.1 21.8 7.1 21.8 7.1s15.3 2.5 20.8 7.2c5.4 4.6 10.4 8.4 10.4 11.8v249.8s-11.5 7.8-22.8 8.1-21.3-.9-26.4 11c-3.4 8-5.9 39.4 2 48.9 4.6 5.5 20.9 4.7 22.6 4.3 2.8-.7 206.2 6.6 268.9-7.1s151.2-9.4 157.5-214.5c3.2-103.9-64.5-159.6-116.1-171.2zm-47 195.1c-2.7 161-98.7 132-98.7 132s-1.2-233.7-.2-241.9c1.7-14.3-6.7-23-6.7-23 45.4-.4 108.5-35.2 105.6 132.9z"/><path class="st6" d="M476.1 206.2c44.4.8 60.4 58.3 24.5 42.5 23.3 16.8 37.4 7 35.5-9.5-1.1-9.3-9.2-21.4-21.5-31.2-12.2-9.7-28.6-16.9-47.1-16.4-29.3.8-33.4 21.9-31.2 51.9-2.5-12.5-6-21.1-17.3-25.2-13-4.7-22.3 2.3-20.1 12 1.8 7.8 13.1 17.2 20.7 13.8 3-1 4.9-3.8 4.6-6.9-.4-3.5-3.8-6.1-7.5-5.6s-6.4 3.8-6.1 7.3c0 .1 0 .3.1.4-7-6.1-4.3-17.3 7.9-13.8 9.8 2.8 14.4 8.6 17.5 24l.8 1.8c2.2 22.5 6.9 49.2 7.1 75.7.1 11.6-.5 23.2-1.9 34.2-.9-5.1-3.6-9.2-9.4-12.2-16.1-8.4-28.9-.7-30.9 11.6-1.8 10.9 12.2 24.1 24.7 17.5h-.4c2.2-1.3 3.6-3.6 3.4-6.1-.2-3.6-3.5-6.4-7.3-6-3.8.4-6.6 3.6-6.4 7.2.1 1.1.4 2.1.9 2.9-10.3-6.3-4-24.6 10.4-18.7 11.1 4.6 12.9 13.5 8.7 33v.3c-2.3 7.2-5.2 14.1-8.7 20.3-2.9-14.5-16.7-28.6-34.7-22.6 25.8 5.6 31.5 28.4 16.1 45.5C392.8 447 371 454 341 451.7c-.6 0-.5 0-.5.5 43.1 8.7 70.9-3.8 88.5-27.3 19.8-10.7 46.4 2.6 29.1 18 15.8-2.1 19.8-18 8-23.6-4.2-2-8.9-3.1-13.8-3.2 1.5-.3 2.9-.5 4.3-.7 13.8-1.8 24.8 1.5 33.9 10.3 6.9 6.7 8.6 16.1 6.1 23.8-2.5 4.4-8.1 5.5-12.1 4.7-6.2-1.2-5.8-7.5-2.4-10.9 0 .3-.1.6-.1.9.1 2.8 2.6 5 5.4 5 2.9 0 5.1-2.3 5-5 0-.5-.1-1-.3-1.5-.5-1.3-1.5-2.4-2.8-2.9-4.1-2.6-9.9-1.1-13.2 3.2-4.7 6-2.2 14.7 6 16.8 3.2.8 5.9.3 8.4-1.2-3.3 2.8-7.7 4.7-13.1 4.8-15.1.4-31.9-13.2-36.2-29.6-.7 12.1 4.8 21.8 13 28.3 8.3 6.5 19.3 9.9 29.3 9.3 24.8-1.5 34.2-33.7 11.9-53.7-8.6-7.7-19.2-11.2-31.5-10.5-6 .4-12.5 1.7-19.4 4.1 3.1-1.4 6.7-2.8 10.6-4.1 9.9-3.1 22.1-5.3 36.3-3.7 18.4 2.2 17.9-10.6 1.8-12.4-11.6-1.3-20.9-.3-30.1 3.6-8.6 3.7-17.2 10.1-27.7 20 6.7-11.8 11.4-25.6 14.7-40.4 12.5-11.2 32.1-10.9 46.1-4.1 14.6 7 22.6 21.4 9.6 36.7 25.6-6.4 16-34.5-4.6-42.5-9.5-3.7-18.2-5.7-27.2-4.7-7.3.8-14.7 3.8-22.8 9.7 1-5 1.8-10.1 2.6-15.3 7.1-17.4 13.9-30 21.4-38 8.8-9.4 19.5-12.6 34-9.2 21.4 5 29.5 34 13.5 46.1-1.5.2-3.1.1-4.8-.2-13.9-2.4-12-20.4 1-18.4-2.3.6-4 2.5-3.9 4.8 0 2.7 2.4 4.8 5.2 4.8 2.9 0 5.2-2.3 5.2-5 0-1-.4-2-.9-2.7l.1.1-.6-.6-.2-.2c-8.2-7.8-18.9-6.1-22.4 1.3-3.1 6.6-.3 15.1 6.7 20-9.7-.3-21-5.2-30.5-14.3 6.8 12.6 20.2 20.8 33.1 22.5 13 1.7 26.3-2.7 31.1-15.9 10.3-28.4-10-50-34-54.2-16.4-2.9-28.1 3.2-36 11-6.7 6.7-11.3 14.8-16.2 28.2 1.3-21.8-.6-43.7-2.1-63.2.1-.4.2-.8.3-1.1-1.3-19.1 4.3-22.3 16.3-21.1 21.7 2.2 20.1 27.6 5.3 22.4h.4c2.8-.1 4.9-2.3 4.7-4.9-.3-2.7-2.8-4.8-5.6-4.7-2.8.1-4.9 2.2-4.6 4.9.1 1.5 1 2.8 2.2 3.7 11.6 10.5 25.3 5.3 24.6-5.1-.8-12.1-12-24.9-31.6-26.2-8-.5-11.8 2.2-13.4 7.7-.1-24.3 3.8-40.8 24-40.4zm10.3 201.9c6.7.8 23 2.6 30.4 12.6 3.5 4.7 9 .4 4.7-5.7-5-7.1-22.2-10.7-35.1-6.9zm-81.5 21.6c-1.2.1-2 1.1-2 2.3.1 1.1 1.1 1.9 2.3 1.8 1.2-.1 2-1.1 2-2.2-.1-1.2-1.2-2-2.3-1.9zm4-7.4c-1.3.1-2.2 1.2-2.1 2.4.1 1.2 1.2 2.1 2.5 1.9 1.3-.1 2.2-1.2 2.1-2.4-.1-1.1-1.2-2-2.5-1.9zm1.7-8.2c-1.5.2-2.6 1.5-2.5 2.9.1 1.5 1.4 2.5 2.9 2.3 1.5-.2 2.6-1.5 2.5-2.9-.1-1.4-1.4-2.5-2.9-2.3zm-3.2-9.7c-2 .2-3.6 2-3.4 3.9.2 2 1.9 3.3 4 3.1 2-.2 3.6-2 3.4-3.9-.2-1.9-2-3.4-4-3.1zm13.1 79.2c3.4 1.2 8.3 2.7 13.5 3.4 7.2 1 7.1-7 2.3-8.4-.3-.1-.5-.1-.8-.2 1.8-4.1-4.7-9.1-15.2-7.4-12.1 1.9-19.9 3-25.7 2.7-1.7-.1-1.9.4-1 1 4.6 1 18.2 6.7 26.9 8.9zm42.4-326.7c-3.7.2-6.7 3.1-6.5 6.6.1 3.5 3.3 6.4 7 6.3 3.7-.2 6.6-3.2 6.4-6.7 0-3.6-3.1-6.3-6.9-6.2zm-14.8-11.4c-3 .1-5.3 2.4-5.3 5.2.1 2.8 2.6 5.1 5.5 5 2.9-.1 5.3-2.4 5.2-5.2 0-2.9-2.4-5.1-5.4-5zm24.2 81.2c-2.9.1-5.2 2.4-5.2 5.1 0 2.7 2.3 4.9 5.2 4.8 2.9-.1 5.3-2.4 5.3-5.1-.1-2.7-2.4-4.9-5.3-4.8zm69 16.4c-1.3 0-2.4 1.1-2.4 2.3 0 1.3 1.1 2.3 2.4 2.3 1.3 0 2.4-1.1 2.4-2.3 0-1.2-1.1-2.3-2.4-2.3zm0-6.5c-1.3 0-2.5 1-2.6 2.3-.1 1.3.9 2.3 2.2 2.3 1.3 0 2.5-1 2.6-2.3.1-1.3-.9-2.3-2.2-2.3zm-2.2-9.2c-1.6 0-2.9 1.2-2.8 2.7 0 1.4 1.3 2.7 2.9 2.7 1.6 0 2.9-1.3 2.9-2.8-.1-1.4-1.5-2.6-3-2.6zm-4.8-10.9c-2 0-3.6 1.6-3.6 3.5s1.6 3.4 3.6 3.4 3.6-1.6 3.6-3.4c0-1.9-1.6-3.5-3.6-3.5zm-7.2-10.4c-2.3 0-4.2 1.9-4.1 4.2.1 2.2 2 4 4.4 4 2.3 0 4.2-1.9 4.1-4.1-.1-2.4-2.1-4.2-4.4-4.1zM517 194.8c-3 .1-5.3 2.4-5.2 5.3.1 2.9 2.6 5.1 5.6 5.1 3-.1 5.4-2.5 5.2-5.3-.1-2.9-2.6-5.1-5.6-5.1zm-13-10.1c-3.3.1-5.9 2.8-5.7 6 .2 3.2 3.1 5.7 6.4 5.6 3.3-.1 5.9-2.8 5.7-6-.2-3.2-3-5.7-6.4-5.6zm-15.6-4.2c-2.7.1-4.8 2.4-4.7 5 .2 2.6 2.6 4.7 5.4 4.5 2.8-.1 4.8-2.3 4.6-5-.2-2.5-2.6-4.6-5.3-4.5zm-74.5-46.8c-3 .3-5.4 2.9-5.4 5.8.1 2.8 2.6 4.7 5.6 4.4 3-.3 5.4-2.7 5.3-5.5 0-2.9-2.5-5-5.5-4.7zm-37.4.9c-2 .3-3.3 2.2-2.9 4 .4 1.9 2.3 3.1 4.2 2.7 2-.3 3.3-2.1 2.9-3.9-.4-1.9-2.3-3.1-4.2-2.8zm-4.6 20.7c-1.9.3-3.2 2.1-2.8 3.9.4 1.8 2.3 3.1 4.2 2.7 1.9-.3 3.2-2.1 2.8-3.9-.3-1.8-2.2-3.1-4.2-2.7zm9.9.3c-1.9.3-3.2 2.1-2.8 3.9.4 1.9 2.3 3 4.2 2.7 1.9-.3 3.2-2 2.8-3.9-.4-1.9-2.3-3.1-4.2-2.7zm8.5 2.4c-1.4.2-2.3 1.5-2.1 2.9.3 1.3 1.6 2.2 3.1 1.9 1.4-.2 2.3-1.5 2.1-2.8-.3-1.3-1.7-2.2-3.1-2zm9.8 52.6c-1.7.3-2.8 1.8-2.4 3.4.3 1.6 2 2.7 3.6 2.4 1.7-.3 2.7-1.8 2.4-3.4-.3-1.6-2-2.7-3.6-2.4zm-5.1-21.1c-2.2.4-3.6 2.4-3.2 4.5.5 2.1 2.6 3.5 4.8 3.1 2.2-.3 3.6-2.3 3.2-4.4-.4-2.1-2.6-3.5-4.8-3.2zm6-27.6c-5.8-4.9-25.6-15.5-43.8-1.4-10.8 8.3-17.1-4.9-7.5-12.1 14.2-10.8 36.9-6.1 51.3 13.5zm26.7 94.4c-1.9-2.1-4.4-4.3-7.5-6.5-4.8-3.4-2.5-5.3 1.6-2.2 5.4 3.9 8.8 7.1 10.6 13.7 1.7 2.4 2.9 5.3 3.6 9.3-1.3-2.6-5.3-8.6-12.7-13.9-4.7-3.4-2.4-5.3 1.7-2.3 1.1.7 2 1.3 2.7 1.9zm-19.1-10.9c-2.3.3-3.8 2.4-3.5 4.4.3 2.1 2.4 3.6 4.7 3.2 2.3-.3 3.8-2.2 3.5-4.3-.4-2.2-2.5-3.7-4.7-3.3zm8.6 5c-1.2.2-2 1.2-1.9 2.4.2 1.1 1.3 1.9 2.5 1.8 1.2-.2 2-1.2 1.8-2.3-.1-1.3-1.2-2.1-2.4-1.9zm76.6-36c-1 0-1.7.8-1.7 1.8 0 .9.8 1.6 1.8 1.6s1.8-.8 1.7-1.8c0-.9-.9-1.6-1.8-1.6zm48.8 44.4c-1.6 0-2.9 1.3-2.9 2.7 0 1.5 1.2 2.6 2.8 2.6 1.5 0 2.9-1.2 2.9-2.7 0-1.4-1.2-2.6-2.8-2.6zm-16.9.2c2.8-1 8.9-1.8 11.2-7.9 1.5-4 5.9-1.7 4.6 1.7-1.9 5-5.9 7.5-15.8 6.2zm-.9 2.5c4.3 2.7 14 6.5 16.2 17.2 1.4 6.9 9.2 5.3 7.9-.7-1.8-8.8-7.7-14.5-24.1-16.5zm19.2 32.9c-3.6.1-6.6 2.8-6.9 6.2-.3 3.4 2.4 6.1 6.1 6.1 3.6-.1 6.8-2.8 7.1-6.2.2-3.4-2.7-6.2-6.3-6.1zm-13.8 81.5c1.3 0 2.1 1 1.8 2.1-.2 1.2-1.5 2.2-2.7 2.2-1.3 0-2.1-1-1.9-2.1.3-1.2 1.5-2.2 2.8-2.2zm3.7 5.9c1.6 0 2.7 1.3 2.3 2.8-.3 1.5-1.9 2.7-3.5 2.7s-2.6-1.2-2.3-2.7c.3-1.5 1.9-2.8 3.5-2.8zm-.5 7.8c2.1 0 3.4 1.6 3 3.5-.4 1.9-2.4 3.5-4.5 3.5s-3.4-1.6-3-3.5c.4-1.9 2.5-3.5 4.5-3.5zm-44 21.1c4.8 2.6 13.6 7.8 18.4 19.1 2.7 6.5 10.5 4.9 9.6-1.3-1.1-8.9-8.6-17-28-17.8zm38.1-12.7c3.3 0 5.4 2.5 4.7 5.6-.7 3.1-4 5.6-7.3 5.6-3.3.1-5.4-2.5-4.7-5.6.8-3 4-5.6 7.3-5.6zm-123.4-19.2c-1.5.2-2.6 1.4-2.5 2.9.1 1.4 1.5 2.4 3 2.3 1.5-.2 2.6-1.5 2.4-3-.1-1.4-1.4-2.4-2.9-2.2zm-4.8 16.1c-2.9.3-5.1 2.9-4.9 5.6.2 2.8 2.8 4.8 5.7 4.5 2.9-.3 5.1-2.8 4.9-5.6-.2-2.7-2.8-4.8-5.7-4.5zm36.6 71.6c-1.3 0-2.4 1.1-2.3 2.3.1 1.2 1.2 2.3 2.5 2.3s2.4-1 2.3-2.3c-.1-1.2-1.2-2.3-2.5-2.3zm1.1-17.9c-2 0-3.6 1.5-3.5 3.3 0 1.9 1.6 3.3 3.5 3.3s3.5-1.5 3.5-3.3c0-1.9-1.6-3.3-3.5-3.3zm27.4 19.8c-.9 0-1.6.6-1.7 1.6 0 .8.7 1.5 1.6 1.5.9 0 1.6-.7 1.6-1.5.1-.9-.6-1.6-1.5-1.6zm-52.5 13.4c-.6 0-1.2.5-1.3 1.2 0 .6.5 1.1 1.1 1 .6 0 1.2-.5 1.2-1.1.1-.7-.4-1.2-1-1.1zm8.9 3.7c-1.1 0-2.1.9-2.2 1.9 0 1.1.8 1.9 2 1.9 1.1 0 2.1-.9 2.1-2 .1-1-.8-1.9-1.9-1.8zM437.2 336c-1.5.1-2.4 1.3-2.2 2.7.2 1.3 1.5 2.3 3 2.2 1.4-.1 2.5-1.2 2.2-2.6-.2-1.3-1.5-2.3-3-2.3zm2.6 5.9c-1.1 0-2 1-1.9 2 .1 1 1 1.8 2.1 1.8s2-.9 1.9-1.9c-.1-1.2-1-2-2.1-1.9zm-16.4-11.7c-2 .2-3.3 1.9-3.1 3.7.2 1.8 2 3.1 4 2.9 2-.2 3.4-1.8 3.1-3.6-.2-1.9-2-3.2-4-3zm16.7 23.8c-1.8-2.4-6.6-7.5-14.4-10.4-4.9-1.9-2-6.3 2.3-4.6 6.3 2.4 8.7 6.3 12.1 15zM359 467.5c-1 .1-1.7.9-1.6 1.8.1 1 .9 1.6 1.9 1.5 1-.1 1.7-.9 1.6-1.8-.1-.8-.9-1.5-1.9-1.5zm34.5 15.2c-.8.1-1.4.7-1.3 1.5.1.8.8 1.4 1.6 1.3.8-.1 1.4-.8 1.4-1.5-.1-.8-.9-1.4-1.7-1.3zm2.8 4.2c-1.2.1-2.1 1.1-2 2.2.1 1.1 1.2 1.9 2.4 1.9 1.2-.1 2-1.1 1.9-2.2-.1-1.1-1.1-2-2.3-1.9zm29.7 1.5c-1.5 0-2.7 1.1-2.7 2.5s1.1 2.5 2.6 2.5c1.4 0 2.6-1.1 2.7-2.5 0-1.4-1.1-2.5-2.6-2.5zm15.2-14.8c-1.5 0-2.7 1.2-2.7 2.6.1 1.4 1.3 2.6 2.9 2.6 1.5 0 2.7-1.1 2.7-2.6-.1-1.4-1.4-2.6-2.9-2.6zm6 2.2c-1.1 0-2.2.9-2.3 2-.1 1 .7 2 1.9 2 1.1 0 2.2-.9 2.3-2 .1-1.1-.7-2-1.9-2zm4.2 1.3c-.8 0-1.6.6-1.7 1.4-.1.8.6 1.5 1.4 1.5.8 0 1.5-.6 1.6-1.5.1-.7-.5-1.4-1.3-1.4zm8.2-10.3c-.9 0-1.6.7-1.7 1.5 0 .9.6 1.5 1.5 1.5s1.6-.7 1.7-1.5c.1-.8-.6-1.5-1.5-1.5zm-5.2-2.9c-1.1 0-2.1.8-2.2 2-.1 1 .8 1.9 1.9 1.9 1.1 0 2.1-.9 2.2-1.9.1-1.2-.8-2-1.9-2zm-5.3-3.9c-1.3 0-2.5 1-2.6 2.3-.1 1.3 1 2.3 2.3 2.3 1.3 0 2.5-1 2.5-2.3.2-1.3-.8-2.3-2.2-2.3zm-32.9 23c-1 0-1.8.8-1.9 1.7-.1 1 .7 1.6 1.6 1.6 1 0 1.8-.8 1.9-1.7.1-.9-.7-1.7-1.6-1.6zm-18.1 10.1c-1.9.2-3.2 1.6-2.9 3.4.2 1.8 2 3.1 3.8 3 1.9-.2 3.2-1.7 2.9-3.4-.3-1.9-2-3.2-3.8-3zm-40.2 2.7c-2 .2-3.4 1.7-3.1 3.6.2 1.9 2 3.2 3.9 3.1 2-.2 3.3-1.8 3.1-3.6-.2-1.9-1.9-3.3-3.9-3.1zm-18.1-7.2c-1.7.1-3 1.4-2.9 3 .1 1.6 1.5 2.7 3.1 2.7 1.7 0 3-1.3 2.9-2.9 0-1.7-1.4-2.9-3.1-2.8zm22.1-17.7c-1.3.1-2.3 1.3-2.2 2.5.1 1.2 1.3 2.2 2.7 2.1 1.3-.1 2.3-1.3 2.2-2.5-.1-1.3-1.3-2.3-2.7-2.1zm3.6 4c-1.6.1-2.8 1.5-2.8 3 .1 1.5 1.4 2.6 3 2.5 1.6-.1 2.8-1.4 2.7-3 0-1.5-1.4-2.6-2.9-2.5zm3.2 5.6c-.7.8-1 1.8-.8 2.9.3 2.1 2.4 3.7 4.7 3.5 2.3-.2 3.8-2.1 3.5-4.3-.3-2.1-2.3-3.6-4.6-3.5 11.1-5.7 17.1 10.8 5 14.4-8 2.4-12.2-3.1-17.6-15-.7-8.3-7-14.7-19.3-22.5 1.6 2.1 3.1 4.3 4.7 6.4 16.9 11.4 9 33.4-4.4 34.6-7.7.7-9.4-8.4 2-13.4-10.3 0-16.5 3.7-16.3 11.6.1 4.8 4.8 9.1 14.5 8.6 7-.3 13.5-4.1 16.9-13.8l.9-2.7c3.6 10 9.7 15.1 19.1 13.7 12.7-1.8 17.1-12.7 13.3-21-3.2-6.9-16.3-8.1-21.6.5zm75.2-26.7c-1.9 0-3.6 1.5-3.7 3.3-.1 1.8 1.4 3.3 3.4 3.3 1.9 0 3.6-1.5 3.7-3.4 0-1.7-1.4-3.2-3.4-3.2zm-33.2-72.3c-1.5.2-2.6 1.4-2.5 2.9.1 1.4 1.4 2.4 2.9 2.2 1.5-.1 2.7-1.4 2.6-2.8-.2-1.5-1.5-2.5-3-2.3zm8.7-.3c-2.2.2-3.9 2.1-3.6 4.2.2 2.1 2.2 3.7 4.5 3.5 2.2-.2 3.9-2.1 3.7-4.2-.3-2.1-2.3-3.7-4.6-3.5zm58.7 49.6c-2 0-3.6 1.5-3.6 3.4-.1 1.8 1.5 3.3 3.5 3.3s3.6-1.5 3.6-3.4c0-1.8-1.5-3.3-3.5-3.3zm-10.4 24c-1.3 0-2.5 1-2.6 2.3-.1 1.2.9 2.2 2.2 2.2 1.3 0 2.5-1 2.6-2.3.1-1.2-.8-2.2-2.2-2.2zm-4.9-5.3c-1.3 0-2.4 1-2.5 2.3 0 1.3 1 2.3 2.3 2.3 1.3 0 2.5-1 2.5-2.3 0-1.3-1-2.3-2.3-2.3zm-5.7-5c-1.3 0-2.4 1-2.5 2.3 0 1.2 1 2.2 2.3 2.2 1.3 0 2.4-1 2.4-2.3.2-1.2-.9-2.2-2.2-2.2zm-3.7-6.3c-1.3 0-2.4 1-2.3 2.3 0 1.3 1.1 2.3 2.4 2.3 1.3 0 2.4-1 2.3-2.3 0-1.2-1.1-2.3-2.4-2.3zm2.4-7.3c-1.9 0-3.5 1.5-3.4 3.4 0 1.8 1.7 3.3 3.6 3.3 2 0 3.5-1.6 3.4-3.4 0-1.8-1.6-3.3-3.6-3.3zm-2.6-7c-1.7 0-3.1 1.3-3.1 3 0 1.6 1.4 2.9 3.2 2.9 1.7 0 3.1-1.3 3.1-3-.1-1.6-1.5-2.9-3.2-2.9zm-7.8-.2c-1.3 0-2.4 1-2.4 2.2 0 1.2 1.1 2.3 2.4 2.3 1.3 0 2.4-1 2.4-2.3 0-1.2-1.1-2.2-2.4-2.2zm-7.4 2c-1.1 0-1.9.8-1.8 1.8.1 1 1 1.9 2.1 1.9s1.9-.8 1.9-1.9c-.1-1-1.1-1.8-2.2-1.8zm-8.3-45.3c-2 .1-3.6 1.8-3.6 3.6 0 1.9 1.7 3.4 3.7 3.2 2-.1 3.6-1.7 3.6-3.7 0-1.8-1.7-3.3-3.7-3.1zm-.8 8.8c-1.5.1-2.7 1.3-2.7 2.7 0 1.5 1.3 2.6 2.8 2.5 1.5-.1 2.7-1.3 2.7-2.8 0-1.3-1.3-2.4-2.8-2.4zm-.7 7.5c-1.2.1-2.2 1.1-2.1 2.2 0 1.2 1.1 2.1 2.3 2 1.2-.1 2.2-1.1 2.2-2.3-.2-1-1.2-1.9-2.4-1.9zm46.2-29.2c-1.2 0-2.1.9-2.1 2s.9 1.9 2.1 1.9c1.2 0 2.1-1 2.1-2s-.9-1.9-2.1-1.9zm6.7.9c-1.5 0-2.7 1.2-2.6 2.6 0 1.4 1.3 2.5 2.8 2.5 1.5 0 2.7-1.2 2.7-2.6-.1-1.5-1.4-2.6-2.9-2.5zm8.5 2.1c-1.8 0-3.2 1.4-3.3 3.1 0 1.7 1.5 3 3.3 3 1.8 0 3.3-1.4 3.3-3.1 0-1.7-1.5-3-3.3-3zm8.7 4.6c-2.1 0-3.9 1.6-3.9 3.6s1.6 3.5 3.7 3.5 3.9-1.6 4-3.6c0-2-1.7-3.5-3.8-3.5zm7.1 8.3c-2.5 0-4.8 2-5.2 4.3-.4 2.3 1.3 4.2 3.7 4.2 2.5 0 4.8-2 5.2-4.3.4-2.4-1.3-4.2-3.7-4.2zm-10.8-38.3c-1.2 0-2.1 1-2.1 2.2.1 1.2 1.1 2.1 2.3 2.1 1.2 0 2.2-1 2.1-2.2 0-1.2-1.1-2.1-2.3-2.1zm-6.3-4.5c-1.2 0-2.2 1-2.1 2.2 0 1.1 1.1 2.1 2.3 2.1 1.2 0 2.2-1 2.1-2.1 0-1.3-1.1-2.2-2.3-2.2zm28.1-28.5c-1 0-1.7.8-1.7 1.7 0 .9.9 1.6 1.8 1.6 1 0 1.8-.8 1.8-1.7-.1-.9-.9-1.6-1.9-1.6zm2.6 4.6c-1.3 0-2.2 1-2.2 2.1 0 1.2 1 2.1 2.3 2.1 1.3 0 2.3-1 2.2-2.1-.1-1.3-1.1-2.2-2.3-2.1zm-2.5 5.6c-1.2 0-2.3 1-2.4 2.2-.1 1.1.9 2 2.1 2 1.3 0 2.3-1 2.4-2.1.1-1.2-.8-2.1-2.1-2.1zm-6 2.7c-1.2 0-2.3 1-2.3 2.1-.1 1.2.9 2.1 2.1 2.1 1.3 0 2.3-1 2.4-2.2 0-1.1-1-2.1-2.2-2zm-7.9 1.9c-1.2 0-2.3 1-2.3 2.1-.1 1.2.9 2.1 2.2 2.1 1.2 0 2.3-1 2.3-2.2 0-1.1-1-2-2.2-2zm-7.2 2.5c-1.2 0-2.3 1-2.3 2.1s1 2.1 2.3 2c1.2 0 2.3-1 2.3-2.1-.1-1.1-1.1-2-2.3-2zm-6 3.2c-1.2 0-2.3 1-2.3 2.2-.1 1.1.9 2.1 2.1 2 1.2 0 2.3-1 2.4-2.1 0-1.3-1-2.2-2.2-2.1zm-5.9 3.4c-1.3 0-2.3 1-2.3 2.2 0 1.1 1 2.1 2.3 2 1.3 0 2.3-1 2.3-2.1 0-1.3-1-2.2-2.3-2.1zm-72.9-35.3c-2.4.3-4.2 2.4-3.9 4.7.2 2.3 2.4 3.9 4.8 3.5 2.4-.3 4.2-2.4 4-4.7-.3-2.2-2.5-3.8-4.9-3.5zm8.7 6.1c-2 .2-3.3 1.9-3 3.8.3 1.8 2.1 3.1 4 2.9 1.9-.2 3.3-1.9 3-3.7-.3-1.9-2.1-3.3-4-3zm6.9 6.3c-1.2.1-2.1 1.2-1.9 2.3.1 1.2 1.3 2 2.5 1.9 1.2-.2 2.1-1.1 1.9-2.3-.1-1.2-1.2-2-2.5-1.9zm32.5-52.2c-1.2 0-2.1 1-2 2.1.1 1.1 1.2 2 2.5 2 1.2 0 2.1-.9 2-2.1-.2-1.1-1.3-2-2.5-2zm1.5-5.9c-1.2 0-2.1 1-2 2.1.1 1.1 1.3 2 2.5 2s2.1-1 1.9-2.1c-.1-1.1-1.2-2-2.4-2zm4.7-3.2c-1.2 0-2 1-1.8 2.1.2 1.1 1.3 2 2.5 2s2-1 1.9-2.1c-.3-1.1-1.4-2-2.6-2zm6.1-.8c-1.2 0-2 .9-1.9 2.1.2 1.1 1.3 2.1 2.5 2.1s2-1 1.9-2.1c-.2-1.3-1.3-2.1-2.5-2.1zm6.2 1.6c-1.2 0-2.1 1-1.9 2.1.2 1.2 1.3 2 2.5 2s2.1-1 1.9-2.1c-.2-1.1-1.3-2-2.5-2zm-47.8-13c-1.5.1-2.7 1.5-2.5 2.9.2 1.5 1.6 2.5 3.2 2.4 1.5-.1 2.6-1.4 2.4-2.9-.1-1.4-1.5-2.5-3.1-2.4zm1.9 6.6c-1.5.1-2.5 1.3-2.3 2.7.3 1.4 1.7 2.5 3.2 2.3 1.5-.1 2.5-1.3 2.2-2.8-.2-1.3-1.7-2.3-3.1-2.2zm1.8 7c-1.2.1-2 1.1-1.8 2.2.2 1.1 1.3 2 2.5 1.9 1.2-.1 2-1.1 1.9-2.2-.3-1.2-1.4-2-2.6-1.9zm60.4 28.3c-1.2 0-2.1 1-2 2.1.1 1.2 1.2 2.1 2.4 2 1.2 0 2.1-1 2-2.1-.1-1.2-1.2-2.1-2.4-2zm2.3-4.9c-1.2 0-2.1 1-1.9 2.1.2 1.1 1.3 2.1 2.5 2 1.2 0 2.1-1 1.9-2.1-.1-1.2-1.2-2.1-2.5-2zm5-4.5c-1.6.1-2.6 1.3-2.4 2.7.2 1.4 1.7 2.6 3.3 2.5 1.5 0 2.7-1.3 2.4-2.7-.3-1.4-1.8-2.6-3.3-2.5zm9.2-2.1c-1.9.1-3.3 1.5-3 3.3.3 1.8 2 3.2 3.9 3.1 1.9 0 3.3-1.5 3-3.3-.2-1.8-2-3.2-3.9-3.1zm10.5 4.8c-2.8.1-4.9 2.3-4.6 5 .3 2.6 2.8 4.8 5.7 4.7 2.9 0 4.9-2.3 4.6-5-.2-2.7-2.8-4.8-5.7-4.7zm-20.8-57.6c-1.2.1-2.1 1-2.1 2.1 0 1 1 1.9 2.1 1.9 1.2-.1 2.1-1 2.1-2.1-.1-1.1-1-1.9-2.1-1.9zm5.2 3.9c-1.5.1-2.6 1.2-2.5 2.6.1 1.4 1.3 2.5 2.8 2.5 1.5-.1 2.6-1.2 2.5-2.6-.1-1.4-1.3-2.5-2.8-2.5zm5 6.1c-1.8.1-3.2 1.5-3.1 3.2 0 1.6 1.5 2.9 3.2 2.9 1.7 0 3.2-1.4 3.1-3.1 0-1.7-1.4-3-3.2-3zm.7 7.9c-2 .1-3.5 1.6-3.5 3.5.1 1.9 1.7 3.3 3.7 3.3 1.9 0 3.5-1.6 3.5-3.5-.1-1.8-1.8-3.4-3.7-3.3zm-11 0c-2.8.1-4.8 2.3-4.5 5 .3 2.6 2.8 4.7 5.6 4.6 2.8-.1 4.8-2.3 4.5-5-.3-2.7-2.8-4.7-5.6-4.6zm-12.7-7.9c-3.7.1-6.7 3.1-6.7 6.6 0 3.5 3.1 6.4 6.9 6.3 3.8-.2 6.8-3.1 6.7-6.7-.1-3.6-3.2-6.3-6.9-6.2zm-4.7 245.2c-5.6.5-18.6 2.6-31.5-4.1-8.2-4.3-11.3 1.7-4 5.5 10.6 5.3 18.8 4.8 35.5-1.4zm-88 4.3c-.8-.2-1.1.2-.2 1 3.2 2.7 6.6 7.2 11.2 14.3 4.3 6.6 11.2 7.7 13 4.5 5.1-9.2-17.9-16.3-24-19.8zM465 416c4.2 2 14.3 6.1 19.5 16 3.4 6.4 8.7 3.6 5.8-2-4.3-8.1-14.6-13.3-25.3-14zm-112.1 33.6c7.3-3.1 21.1-1.2 34-27.1 6.5-13.2 21.8-7.8 15.7 3.7-8.6 16.3-23 25.9-49.7 23.4zm11.1-.5c4.2-2 24-5.9 30.6-21.2 3.3-7.7 8.1-6.8 5.6-1.6-5.8 12.4-17 21.4-36.2 22.8zm154.6-75.9c1.7 2.2 6.2 7.1 5.8 13.4-.3 4.1 3.7 4.3 3.9.7.3-5.2-2-8.4-9.7-14.1zm-8.9-5.6c5.1.4 17.3 2.1 26.5-5.1 5.9-4.6 10.5 1.6 5.3 5.5-7.7 5.8-15 5.5-31.8-.4zm-56.3-1.7c3.3-2.9 11.9-8.2 24.3-9.4 8.1-.7 3.6-8.4-3.5-7.7-10.2.9-14.9 5.2-20.8 17.1zm5.8-14.3c6.2-6.7 19.1-23.4 45-27.9 16.6-2.9 10-14.5-4.3-11.9-20.8 3.7-29.6 12.9-40.7 39.8zm-12.6 40.9c2.4-3.6 9.2-10.9 20.7-14.7 7.5-2.5 4.4-7.7-2.1-5.5-9.4 3.1-14.9 6.7-18.6 20.2zm-5.5 12.9c5.3-4.3 17.1-15.2 36.5-16.5 12.5-.8 10.2-9.5-.7-8.7-15.8 1.1-24 7-35.8 25.2zm-9.8-68.3c5.7-6.3.1-17.8-10.8-17.8-16.9 0-13.8 18.1-7.2 24.9 2.8-.6 6.5-.9 9.9.3-9.9-10.4-8.9-19.6-1.4-18.8 5 .6 11.5 5.9 9.5 11.4zm-86.7 129.2c.7 2.7 3.8 10.2-.2 18-2.6 5 2.3 6.1 4.5 1.7 3.2-6.4 1.9-14.5-4.3-19.7zm-9.8-14.4c-.5-.6-1.3-.3-.9.7 2.2 5 2 9.5-2 16.9-7.4 13.6 13.3 14.2 12.1 1.3-.6-7.1-6-16-9.2-18.9zm18.4 10c4.5 1.4 14.2 3.1 26.1 2.9 11.8-.2 25.6-2 38.6-7 15.8-6.1 25.6 3.2 11.8 8.2-9.9 3.7-23.2 5.3-36.9 4.8-13.8-.3-28.1-3-39.6-8.9zm-3.7-4.8c3.8.2 15.3.6 28.3-1.5s27.4-6.7 37.8-16.1c12.8-11.6 29.7-1.7 17.4 7.4-8.8 6.6-21.5 11.2-36 13.3-14.6 2.2-31.1 1.7-47.5-3.1zm87.1-172.3c-4.4-4.5-10.8-12.3-27.1-14.9-10.6-1.7-10.4-10.4-1.3-9 .4.1.7.1 1.1.2-2.1-3.1 1.9-6.2 8.2-3.4 10.6 4.6 15.9 11.9 21.6 30.3-.4-.5-2.1-2.6-2.5-3.2zm5 26c-2.3-5.3-7-18.1-21.3-26.1-9.1-5.1-4.6-10.7 3.5-6.1 11.6 6.6 15.7 14.2 17.8 32.2zm.3 25.2c-2.9-8.6-9.3-29.1-31.6-41.6-14.5-8.1-7.1-17.2 5.6-10 18.5 10.4 24.7 22.7 26 51.6zm67-49.6c9.6 12.7 30 14 31.2 2.4 2.5-23.2-29-32.9-41.5-28.6.8 4.3.7 4.6 0 8.3 19.1-6.2 35.6 8 32.9 17.4-2 6.5-13.6 7.4-22.6.5zm-51.3-6.9c.6-2.1 2.8-6.4 8.7-8.3 3.8-1.2.7-4.7-2.6-3.6-4.8 1.6-7.2 3.5-6.1 11.9zm1.1 18.4c1.2-4 3.2-13.7 14-17.2 7-2.2 1.4-8.5-4.6-6.5-8.7 2.8-10.7 8.3-9.4 23.7zm-3.4-59.5c1.1-6.3 5.5-15.7 20.3-15.7 12.9 0 7-14.4-4.4-11.9-9 2-14.6 9.7-15.9 27.6zm4.4 81.3c2.5-6.4 6.5-22.1 24.1-27.7 11.3-3.6 2.4-13.7-7.3-10.5-14 4.5-17.5 13.4-16.8 38.2zm-46.4-122.8c1 .8 1.3.5.6-.7-4.2-7.1-7.6-14.6-9.1-23.3-2.6-15.3-23.7-10.7-15.1 4.5 4.5 7.9 18.6 16.3 23.6 19.5zm17.7 26c.5 1-.2 1.2-1.1.1-4.9-6-10.3-10-20.8-12.9-19.6-5.4-11.3-21.3 3.5-10 8.3 6.3 16.4 18.1 18.4 22.8zm-10.9-56.3c.4 1 1.2 1.3 1.6.3 1.5-3.8 5.3-7.8 12.5-12.4 6.4-4.1 6.3-15.1.1-17.9-17.8-8-13.7 22.7-14.2 30zm12.5 53.2c0 .5.3 1.2-.1.7-32.8-35.6-11.5-47.2-41.1-70.6-15.1-12 .5-18 9.8-10 22.4 19.4 15.4 27.7 16.4 45.9.5 10.8 6.2 22.7 15 34zm-5.4-15.4c-2.1-7.2-1.9-27.9 19.3-34 13.1-3.7 3.7-15.8-7.9-12.7-16.8 4.7-23.7 24.8-11.4 46.7zm5.2 8.2c.9-4.8 5.4-28.3 36.5-25.1 19.2 2 10.2-14.8-6.1-15.4-23.6-1-38.3 13.8-30.4 40.5zm28.1-16.4s-26.4 15-20.4 49.8c6 34.9 7.2 49 7.7 70.2.5 21.2-4.7 35-1.9 42.3 2.8 7.4 4.3-63.3 4.3-63.3s-5-35.5-7.4-60.2c-2.3-24.6 17.7-38.8 17.7-38.8zm-3-51.7c15.3 6.7 28.7 14.9 40.2 24.7 4 3.4 7.8 7 11.4 10.8-3.5-1.5-7.5-1.3-10.7.6-.6-1.2-1.5-2.2-2.5-3.1-2-1.7-4.7-2.7-7.6-2.6-1.6.1-3.1.5-4.5 1.1l-8.6-9.1c.4-1.3.6-2.7.5-4.1v-.1c-.1-3.3-1.6-6.3-4-8.3-2.3-2-5.4-3.2-8.7-3.1h-.2c-1.2 0-2.4.3-3.5.6.1-.5.1-.9.1-1.4v-.7c-.3-2-.9-3.8-1.9-5.3zM310.4 147.2c-9.7-.3-18.9 8.3-20.1 18.9-3.1-15.5 9.9-24.8 22.9-24 10.2.7 18.1 9.9 18.5 19.6.4 9.6-6.2 22.9-22.9 24.5-32.8 3.3-94.1-10.5-117.9-36.4 7.8 3.7 37.1 16.7 54.3 21.5 19 5.3 48.8 8.2 64.6 4.8 21.7-4.5 17.4-28.4.6-28.9z"/><path class="st6" d="M229.6 161.8c4.8 0 28.4-.4 41.5-13.9 8.1-8.4 18.5-3.3 10.7 3.7-11.2 10.3-32.1 15.5-52.2 10.2z"/><path class="st6" d="M234 164.8c5.5 1.4 24.1 2.8 40.6-5.9 10.1-5.3 15.9-.3 7.1 4.4-12.8 6.9-33.7 8.4-47.7 1.5zM260.6 171.3c-.7-.3-.5-.6.5-.7 3.7-.1 8.6-1 15.9-3.1 6.5-1.9 11.5.8 10.6 3.7-2.3 8.2-20.9 1-27 .1zM214.5 135.8c-6.6-.4-8.7 8.2.8 12.8-8.8.3-13.8-3.2-13.2-10.8.4-4.6 4.5-8.7 12.8-8.5 12.4.3 19.9 12.5 17.9 20.1-1.6 6-6.2 13.9-19 13.5-5.1-3.1-10.2-6.2-15.4-9.3 15.1 8 25-.4 25.3-6.5.4-5.5-3.8-11-9.2-11.3zM314.8 150.3c-8.4 1.6-3.1 14.8 5.5 9.4-3.4 5-9.8 4.2-12.7-.2-3.3-4.9-1-12 5.7-13.7 7.1-1.8 10.9 4.7 16.6 14.2l-4.5-1.2c-3.1-7.3-6.2-9.4-10.6-8.5z"/><path class="st6" d="M247.9 139.4c11.3 1.7 3 23-8.4 12 3.6 9.9 17.3 7.6 21.2-.4 4.4-9 .8-20.3-11.4-21.2-11.9-.9-19.4 8.9-23.7 27.3 1.9-1.3 3.8-2.5 5.7-3.8 7-14.3 11-14.8 16.6-13.9zM295.5 159.4c10.1-2.3 18.1 6.8 13 13-4.6 5.7-12.9 8.4-24.4 6 .2-.4.3-.8.5-1.2 15.4 2.4 26.6-12.1 10.9-17.8zM282.3 136.7c7.7-4.9 14.8-6.9 26.7-6 15.5 1.1 21.3 13.4 22.3 27.7-1.7-.5-3.5-1-5.2-1.5-.4-10.3-6.1-17-15-20.1-9.6-3.2-22.7-2.2-28.8-.1z"/><path class="st6" d="M316.8 141.2c-4-.5-13.8-2.1-23.1 4.3-6 4.1-9.5-1.9-4.2-5.5 7.6-5.2 15.2-4.2 27.3 1.2zM289.9 175c-.9 0-1.6-.7-1.6-1.6 0-.8.8-1.6 1.6-1.5.9 0 1.6.7 1.6 1.6.1.8-.7 1.5-1.6 1.5zM295.1 174.8c-1.1 0-2.1-.9-2.1-2s1-2.1 2.1-2c1.2 0 2.1 1 2.1 2.1-.1 1.1-1 1.9-2.1 1.9zM298.6 170.6c-1.6 0-2.9-1.3-2.9-2.9 0-1.6 1.3-2.8 3-2.8 1.6 0 2.9 1.3 2.9 2.9-.1 1.5-1.4 2.8-3 2.8zM294.4 162.7c-.9 0-1.5-.7-1.5-1.5s.7-1.5 1.5-1.5c.9 0 1.5.7 1.5 1.5.1.8-.6 1.5-1.5 1.5zM296.6 158.6c-.9 0-1.5-.7-1.5-1.5s.6-1.5 1.5-1.5 1.5.7 1.5 1.5c.1.8-.6 1.5-1.5 1.5zM300.1 155.3c-.8 0-1.5-.7-1.5-1.5s.8-1.5 1.6-1.4c.8 0 1.5.7 1.5 1.5-.1.8-.8 1.4-1.6 1.4zM303.7 152.6c-.8 0-1.5-.7-1.5-1.5s.7-1.5 1.6-1.4c.9 0 1.5.7 1.5 1.5-.1.8-.8 1.4-1.6 1.4zM317.4 161.3c-1.8 0-3.3-1.5-3.3-3.2 0-1.8 1.5-3.2 3.4-3.2 1.8 0 3.3 1.5 3.2 3.2 0 1.7-1.5 3.2-3.3 3.2zM315 171.2c-1.8 0-3.2-1.5-3.2-3.2 0-1.8 1.5-3.2 3.3-3.1 1.8 0 3.3 1.5 3.2 3.2-.1 1.7-1.5 3.1-3.3 3.1zM244.1 154.4c-2.8 0-5-2.3-4.9-5.2 0-2.8 2.3-5.1 5-5.1s4.9 2.3 4.9 5.2c-.1 2.8-2.3 5.1-5 5.1zM235.9 155.4c-1.4 0-2.4-1.2-2.4-2.6 0-1.4 1.2-2.5 2.5-2.5s2.5 1.2 2.5 2.6c0 1.4-1.2 2.5-2.6 2.5zM232.7 159.5c-1.2 0-2.1-1-2.1-2.2 0-1.2 1-2.2 2.1-2.2 1.2 0 2 1 2 2.2a2 2 0 0 1-2 2.2zM215.1 148.6c-2.3 0-4.2-2-4.1-4.4 0-2.4 1.9-4.3 4.2-4.2 2.3 0 4.2 1.9 4.1 4.3 0 2.4-1.9 4.3-4.2 4.3z"/><path d="M124 130.3c0 .3.1 2.1.2 3 7.4 2.3 13.3 11.8-.2 14.9 1.2.1 19.7 3 12.9-12.6 9.4 1.4 29.1 6.4 44.6 19.3 15.5 12.8 32.7 34.3 35.2 70.5 2.8 39.1 29.7 90.8 61.6 117.1 4 3.3 8 5.7 12 7.3l-3.9-13.5c-2.9-1.9-5.9-4-8.9-6.5-12.5-10.4-47.9-64.5-50.8-110.2-1.6-26-12.1-48.1-28.6-63.6-16.4-15.5-45.1-25.7-74.1-25.7z"/><path class="st6" d="M159.2 152.9c-11.3-13.2-25.6-3.3-26.4 8.2-.9 14.4 10.3 20.3 19.9 21.3 14.8 1.7 27.6-7.2 29-20.1 1.3-12.8-10.8-27-28.9-28-1.5 1-2.9 2-4.4 3.1 13.6.7 22.3 7.4 23.1 17.4-.2 9-11.5 10-18.5 6.6.5 6.7 8.6 10.5 15.6 5.8-3.1 5.1-7.3 6.7-12.3 6.8-8.9.1-15.8-4.8-15.4-12.6.4-8.7 7.8-13.2 18.3-8.5z"/><path class="st6" d="M144.7 137c3.5 1.8 16.7 6.3 17.4 16.5.4 6.2 8.5 5.5 6.8-.8-2.7-9.9-11.8-12.1-24.2-15.7z"/><path class="st6" d="M146.4 143.8c-1.1-.1-2-1-1.9-2.1.1-1.1 1-2 2.2-1.9 1.1.1 2 1 2 2.1-.1 1.1-1.2 2-2.3 1.9zM151 145.4c-1 0-1.7-.8-1.7-1.8.1-.9.9-1.7 1.8-1.6 1 0 1.7.8 1.7 1.8 0 .9-.8 1.6-1.8 1.6zM154.9 147.3c-.7 0-1.3-.6-1.3-1.4 0-.8.7-1.3 1.4-1.3.8 0 1.3.7 1.3 1.4 0 .8-.6 1.4-1.4 1.3zM156.4 159.3c1.5-1 1.9-2.9.9-4.4-1-1.4-3-1.8-4.5-.9-1.5 1-1.9 2.9-.9 4.4s3 1.8 4.5.9zM147.9 158.8c1.3-.9 1.7-2.6.8-3.9-.9-1.3-2.7-1.6-4-.8-1.3.9-1.7 2.6-.8 3.9.9 1.3 2.7 1.6 4 .8zM144.7 164.1c.9-.6 1.2-1.8.5-2.7-.6-.9-1.9-1.1-2.8-.5-.9.6-1.2 1.8-.5 2.7.7.8 1.9 1.1 2.8.5zM146.5 168.8c.8-.6 1.1-1.7.5-2.5-.6-.8-1.7-1-2.5-.5s-1.1 1.6-.5 2.4c.6.9 1.7 1.1 2.5.6zM150.1 171.5c.7-.4.9-1.3.4-2s-1.4-.9-2.1-.4c-.7.4-.8 1.4-.4 2 .5.6 1.4.8 2.1.4zM154.4 172.1c.5-.4.7-1.1.3-1.6-.4-.5-1.1-.6-1.7-.3-.5.4-.7 1.1-.3 1.6.4.5 1.2.6 1.7.3zM320.1 166.6c-1 0-1.9-.9-1.9-1.9 0-1 .9-1.8 1.9-1.8 1.1 0 1.9.8 1.9 1.8s-.9 1.9-1.9 1.9zM154.3 132.4c7.6 1.5 24.7 4.5 36.1 13.3 7.2 5.6 12.3-.7 5.5-5.6-10.9-7.9-19.9-9.4-41.6-7.7zM204 153.8c-1.7 0-3.1-1.5-3.1-3.3 0-1.8 1.4-3.2 3.2-3.2 1.7 0 3.1 1.5 3.1 3.3-.1 1.7-1.5 3.2-3.2 3.2zM211 154.4c-1.2 0-2.3-1.1-2.2-2.4 0-1.3 1-2.3 2.3-2.3 1.2 0 2.2 1.1 2.2 2.4-.1 1.3-1.1 2.3-2.3 2.3zM327.8 137.4c-2.2 0-4-1.8-3.9-3.9 0-2.2 1.8-3.8 4-3.8s4 1.8 4 3.9c0 2.1-1.9 3.8-4.1 3.8zM321.1 133.2c-1 0-1.8-.8-1.7-1.8 0-1 .7-1.8 1.7-1.7 1 0 1.8.8 1.8 1.8 0 .9-.8 1.7-1.8 1.7zM330 141.8c-1 0-1.8-.8-1.8-1.7 0-1 .8-1.7 1.8-1.7s1.7.8 1.7 1.8-.7 1.6-1.7 1.6zM330.5 145.6c-.7 0-1.3-.6-1.3-1.2 0-.7.6-1.3 1.3-1.2.7 0 1.2.5 1.2 1.2.1.6-.5 1.2-1.2 1.2zM202.3 398.3c-22.5 5.1-23.6-21.8-.5-28.9-16.3-4.9-28.3.4-30 14.7-2 16.1 10.2 34.7 35.1 25.1 34-13.1 31.9-50 27.4-88 2.1 3 4.5 4.9 5.8 4.7.1-8.3 5.9-17 1.3-23.5-3.6-5.1-7.2-13.5-10.1-18.8 0 0-1.6-2.5-1.5-2.4-1-9.5-1.1-13.6-.9-22.9-3.2-3.5-5.8-9.5-8.9-13 .3 25 2.6 64.8 3.5 93.1.9 28.3-1.1 55.3-21.2 59.9zm17.4-2.6s7.5-15.7 8.7-32.5c1.3-17.5.5-36-.7-52.5-1.2-16.4-2.8-30.9-3.2-40 1 1.6 1.9 3.2 3 4.8.5 6 1.1 12 1.7 18.1 1.7 3 3.5 6 5.3 9-.2 1.8-2.4 0-5.6-2.8 2.7 35.8 3.9 48.1 2.8 62.3-1.1 12.6-4.7 25.9-12 33.6zM269.5 278.3c14.9-4.8 31.9 12 26.1 24.5-11.9 25.4-42 8.3-48.9-6 3-3.9-5.1-15-3.5-19.3 15.5 35.5 39 30.8 42.6 19.2 2.4-8-5.5-18-16.3-18.4z"/><path class="st6" d="M201.7 255.2c-16.3 1.9-20.3-28.5 3.1-24-11.4-8.6-28.4 5.9-29 17.6-.8 13.3 11.2 22.4 29.9 16.1 18-6 15.4-23.6 15.5-48.2-.6 1.8-1.2 3.6-1.8 5.5-.9 21.1-4.6 31.5-17.7 33z"/><path class="st6" d="M173.3 224.3c12.2 14.9 42.3-11 43.8-29.8.1-1.6-1.3-7.4-4.2-14.2-2.7-.1-5.4-.1-8.1-.2 4.8 21-10.9 45.6-31.5 44.2z"/><path class="st6" d="M186.8 162.5c3.3 7.5 12.9 25-4.4 45.2-11.6 13.5 1.9 16 11 5 13.9-16.9 14.2-29.6-6.6-50.2z"/><path class="st6" d="M184.7 163.1c.5 6.2 3 18.6-6.7 33.4-6.8 10.3-1.2 15.4 5.6 6.9 10.2-12.7 9.8-20.3 1.1-40.3z"/><path class="st6" d="M182.8 162.7c-1 4.3-3.1 13.6-10.7 17.4-5.9 3-6.3 7.7-3.8 10.6 3.8 4.5 9.1.3 11.3-2.8 4.2-5.7 5.1-11.8 3.2-25.2zM220 281.5c-3.7 10.9-10.5 37.1-37.8 54.4-17.6 11.2-5.9 22.7 9.5 12.8 22.1-14.2 28.4-29.9 28.3-67.2z"/><path class="st6" d="M221.4 314c-2.1 6.3-6.1 21.6-21.9 31.7-10.3 6.5-3.4 13.2 5.5 7.4 12.9-8.2 16.5-17.3 16.4-39.1zM210.5 289.1c-3.6 9.6-10.4 17.2-28.3 15.7-9.8-.8-14.2 13.4-1.6 13.3-7 3.8-10.8 18.3-.6 15.6 11.7-3.1 27.5-23.2 32.7-42.9-.2.2 2.2-5.3 1.7-4.8-1.3 1.6-3.6 2.8-3.9 3.1z"/><path class="st6" d="M206.6 279.3c5.8 9.9-4.5 24.1-18.8 22-22.3-3.3-13.7-27.2-2.8-35.2 3.5 1.4 8.3 2.5 13.2 1.6-16.2 12.2-17.3 24.8-7.3 25.1 6.8.2 16.7-5.5 15.7-13.5z"/><path class="st6" d="M218.5 259.1c-2.3 2.7-8.3 8.3-17.5 11.7-5.9 2.2-2.5 7.3 2.7 5.4 7.5-2.8 10.3-7.3 14.8-17.1zM225.7 332.1c-1.8 5.3-1.5 12-14.6 23.3-10.5 9 3.9 15 9.9 6.3 5.9-8.5 6-15.5 5.6-19-.3-3-.8-2.2-.9-10.6zM224.9 446.9c24.7-3.2 16-36.6-2.8-23.5 11.9-13.2 29.1-1.1 29.2 10.6.1 13.2-9.7 25.8-30.3 23.8-18.1-1.8-27.9-17.6-15.9-47.8 4.6-2.9 9.3-5.8 13.9-8.7-15.1 30.8-6.7 47.3 5.9 45.6z"/><path class="st6" d="M268.8 462.5c17.3 12.3 13.4 39.2-5.3 42-37.8 5.8-41.4-35-31-52.9 6.8.4 8.6-.5 14.7-3.6-15.3 27-1.7 49.6 14.2 45 11-3.1 15.7-18.8 7.4-30.5z"/><path class="st6" d="M243.8 462.1c-.5 4.9 1.8 14.3 9.8 19.3 7 4.3-.6 11.3-5.6 6.3-4.6-4.6-6.5-12.1-4.2-25.6zM201.2 244.8c4 0 7.2-3.2 7.2-7.2s-3.2-7.2-7.2-7.2-7.2 3.2-7.2 7.2 3.2 7.2 7.2 7.2zM177.2 237.5c2 0 3.7-1.6 3.7-3.7 0-2-1.6-3.7-3.7-3.7-2 0-3.7 1.6-3.7 3.7s1.7 3.7 3.7 3.7zM212.2 209.9c-.1 3.1 1.3 7.9-4.5 14.5-3.7 4.3.9 9.2 4.2 5.5 4.6-5.5 3.2-10.3.3-20zM212.6 237.6c1.5 0 2.7-1.2 2.7-2.7 0-1.5-1.2-2.7-2.7-2.7s-2.7 1.2-2.7 2.7c0 1.4 1.2 2.7 2.7 2.7zM211.9 244.5c1.5 0 2.7-1.2 2.7-2.7 0-1.5-1.2-2.7-2.7-2.7-1.5 0-2.7 1.2-2.7 2.7-.1 1.5 1.2 2.7 2.7 2.7zM206.7 250.4c1.5 0 2.7-1.2 2.7-2.7s-1.2-2.7-2.7-2.7c-1.5 0-2.7 1.2-2.7 2.7s1.2 2.7 2.7 2.7zM199.4 251.6c1.5 0 2.7-1.2 2.7-2.7 0-1.5-1.2-2.7-2.7-2.7-1.5 0-2.7 1.2-2.7 2.7 0 1.5 1.2 2.7 2.7 2.7zM195.4 288.2c2.9 0 5.3-2.4 5.3-5.3s-2.4-5.3-5.3-5.3-5.3 2.4-5.3 5.3c0 3 2.4 5.3 5.3 5.3zM213.7 283.3c2.4 0 4.3-1.9 4.3-4.3s-1.9-4.3-4.3-4.3-4.3 1.9-4.3 4.3 1.9 4.3 4.3 4.3zM217 273.6c1.3 0 2.4-1.1 2.4-2.4 0-1.3-1.1-2.4-2.4-2.4-1.3 0-2.4 1.1-2.4 2.4 0 1.3 1.1 2.4 2.4 2.4zM199.6 388.5c5.3 0 9.5-4.3 9.5-9.5 0-5.3-4.3-9.5-9.5-9.5-5.3 0-9.5 4.3-9.5 9.5 0 5.3 4.3 9.5 9.5 9.5zM179.1 366.9c2.8 0 5.1-2.3 5.1-5.1s-2.3-5.1-5.1-5.1-5.1 2.3-5.1 5.1c-.1 2.8 2.2 5.1 5.1 5.1zM191 365.6c2.2 0 3.9-1.8 3.9-3.9 0-2.2-1.8-3.9-3.9-3.9-2.2 0-3.9 1.8-3.9 3.9-.1 2.1 1.7 3.9 3.9 3.9zM200.8 367.7c2.1 0 3.7-1.7 3.7-3.7 0-2.1-1.7-3.7-3.7-3.7-2.1 0-3.7 1.7-3.7 3.7-.1 2 1.6 3.7 3.7 3.7zM215.6 375c1.6 0 2.9-1.3 2.9-2.9 0-1.6-1.3-2.9-2.9-2.9-1.6 0-2.9 1.3-2.9 2.9 0 1.6 1.3 2.9 2.9 2.9zM214.1 383c1.5 0 2.8-1.2 2.8-2.8 0-1.5-1.2-2.8-2.8-2.8-1.5 0-2.8 1.2-2.8 2.8 0 1.6 1.3 2.8 2.8 2.8zM210.5 390.1c1.4 0 2.6-1.1 2.6-2.6 0-1.4-1.1-2.6-2.6-2.6-1.4 0-2.6 1.1-2.6 2.6.1 1.5 1.2 2.6 2.6 2.6zM204.7 394.5c1.3 0 2.4-1.1 2.4-2.4 0-1.3-1.1-2.4-2.4-2.4-1.3 0-2.4 1.1-2.4 2.4-.1 1.3 1 2.4 2.4 2.4zM197.7 396.1c1.3 0 2.4-1.1 2.4-2.4 0-1.3-1.1-2.4-2.4-2.4-1.3 0-2.4 1.1-2.4 2.4 0 1.3 1.1 2.4 2.4 2.4zM191.4 393.9c1.3 0 2.4-1.1 2.4-2.4 0-1.3-1.1-2.4-2.4-2.4-1.3 0-2.4 1.1-2.4 2.4 0 1.4 1.1 2.4 2.4 2.4zM188.7 388.5c1.3 0 2.4-1.1 2.4-2.4 0-1.3-1.1-2.4-2.4-2.4-1.3 0-2.4 1.1-2.4 2.4 0 1.3 1.1 2.4 2.4 2.4zM226.7 431.2c2.8 0 5.1-2.3 5.1-5.1s-2.3-5.1-5.1-5.1-5.1 2.3-5.1 5.1c-.1 2.8 2.2 5.1 5.1 5.1zM222.4 410.4c2.1 0 3.8-1.7 3.8-3.8 0-2.1-1.7-3.8-3.8-3.8-2.1 0-3.8 1.7-3.8 3.8.1 2.1 1.8 3.8 3.8 3.8zM218.6 419.1c1.9 0 3.4-1.5 3.4-3.4s-1.5-3.4-3.4-3.4-3.4 1.5-3.4 3.4 1.5 3.4 3.4 3.4zM216.2 427.3c1.7 0 3.1-1.4 3.1-3.1 0-1.7-1.4-3.1-3.1-3.1-1.7 0-3.1 1.4-3.1 3.1.1 1.7 1.5 3.1 3.1 3.1zM215.5 434.8c1.4 0 2.6-1.2 2.6-2.6 0-1.4-1.2-2.6-2.6-2.6-1.4 0-2.6 1.2-2.6 2.6 0 1.5 1.2 2.6 2.6 2.6zM217.1 441.1c1.3 0 2.3-1 2.3-2.3 0-1.3-1-2.3-2.3-2.3-1.3 0-2.3 1-2.3 2.3 0 1.3 1.1 2.3 2.3 2.3zM221.7 444.9c1.1 0 1.9-.9 1.9-1.9 0-1.1-.9-1.9-1.9-1.9-1.1 0-1.9.9-1.9 1.9-.1 1 .8 1.9 1.9 1.9zM227.4 444.3c1.1 0 1.9-.9 1.9-1.9 0-1.1-.9-1.9-1.9-1.9-1.1 0-1.9.9-1.9 1.9 0 1 .9 1.9 1.9 1.9zM232 441.2c1.1 0 1.9-.9 1.9-1.9 0-1.1-.9-1.9-1.9-1.9-1.1 0-1.9.9-1.9 1.9 0 1 .9 1.9 1.9 1.9zM235.2 436c1.1 0 1.9-.9 1.9-1.9 0-1.1-.9-1.9-1.9-1.9s-1.9.9-1.9 1.9c0 1.1.9 1.9 1.9 1.9zM235.5 430.4c1.1 0 1.9-.9 1.9-1.9 0-1.1-.9-1.9-1.9-1.9-1.1 0-1.9.9-1.9 1.9 0 1 .8 1.9 1.9 1.9zM203.9 411.7c.5-.5 0-1.1-1-.6-4.6 2.6-9.5 3.2-18.6.8-17-4.4-11.5 12.9 2 10.2 7.6-1.4 15.5-7.4 17.6-10.4z"/><path class="st6" d="M202.1 416c.6-.9.2-1.4-.8-.3-5.1 5.4-11.1 8.4-19.1 8.7-15.7.6-11.3 23.1 2.5 13.5 7.6-5.3 14.7-17.2 17.4-21.9zM197.1 432.5c-1.7 9.4-13.2 38.7-39.5 56.6-16.3 11-6.1 22.5 8.2 12.9 20.6-13.8 32.2-42.8 31.3-69.5zM263.5 487.4c2.5 0 4.5-2 4.5-4.5s-2-4.5-4.5-4.5-4.5 2-4.5 4.5c0 2.4 2 4.5 4.5 4.5zM265.7 475.1a6.7 6.7 0 1 0 0-13.4 6.7 6.7 0 0 0 0 13.4zM141.3 142.2c-1.2-.1-2.2-1.1-2.1-2.3.1-1.2 1.1-2.1 2.3-2.1 1.2.1 2.2 1.1 2.1 2.3.1 1.2-1 2.2-2.3 2.1zM136.9 149c-5 3.5-8.6 15.2-3 23.3 3.7 5.5.2 10-3.5 10.7-5.7 1.2-7.4-5.4-7.3-9.1.3-7.2 2.6-18.9 13.8-24.9z"/><path class="st6" d="M134.8 150.2c-1.3 1.1-4.3 2.6-7.4 1.3-3.2-1.4-3.8 1.2-3.8 2.5-.1 2 2.8 2.6 4 2.4 2.3-.5 5.8-2.1 7.2-6.2zM126.7 144.3c-1.8-.1-3.3-1.6-3.2-3.4.1-1.8 1.7-3.3 3.6-3.2 1.8.1 3.3 1.6 3.2 3.4-.1 1.9-1.8 3.3-3.6 3.2zM212.4 168.3c8.9 6.4 30.7 17.7 58.2 21.4 18.3 2.5 16.7 15.6.6 15.3-23.4-.5-36.9-9.2-58.8-36.7z"/><path class="st6" d="M219.5 181.8c5.1 5.5 19.4 20.6 38.6 24.8 12.4 2.7 7.6 12.9-3.2 10.4-15.6-3.5-24.3-13.7-35.4-35.2z"/><path class="st6" d="M224.4 196.5c2.3 4.3 8.8 13.3 20.1 19.1 7.3 3.8 3.6 9.9-2.9 6.8-8.6-4.1-12.9-5.5-17.2-25.9z"/><path class="st6" d="M284.5 189.7c25.2 10.7 15.7 43.7-4.9 49.5-18.9 5.3-36 .4-56.5-22.8l3-1.7c24 32.1 82.6 11.8 58.4-25z"/><path class="st6" d="M228.9 225.3c5.2 5.8 31.4 27.9 59.8 15 12-5.4 12.4 9.2 1.8 13.4-21.7 8.7-52-6.1-61.6-28.4zM280 214.6c-2.5-.4-4.1-2.7-3.7-5.2.4-2.5 2.7-4.1 5.2-3.7 2.5.4 4.1 2.7 3.7 5.2-.4 2.4-2.7 4.1-5.2 3.7zM274 222.8c-2.1-.3-3.5-2.3-3.2-4.4.3-2.1 2.3-3.5 4.4-3.2 2.1.3 3.5 2.3 3.2 4.4-.3 2.1-2.3 3.5-4.4 3.2zM265.7 226.6c-1.8-.3-3-2-2.7-3.7.3-1.8 2-3 3.7-2.7 1.8.3 3 2 2.7 3.7-.2 1.8-1.9 3-3.7 2.7zM257.5 227.8c-1.5-.2-2.5-1.7-2.3-3.2.2-1.5 1.7-2.5 3.2-2.3 1.5.2 2.5 1.7 2.3 3.2-.3 1.5-1.7 2.6-3.2 2.3zM250.8 227.8c-1.1-.2-1.9-1.3-1.7-2.4.2-1.1 1.3-1.9 2.4-1.7 1.1.2 1.9 1.3 1.7 2.4-.1 1.1-1.2 1.9-2.4 1.7zM198.8 425c.6-.1 1.1-.6.8-.1-19.5 36.1-45.3 40.1-54.4 70.1-5.1 18.1-23.3 9.9-17.3-3.6 10-22.5 25.2-37 43.9-44 10.8-4 20.2-12.2 27-22.4zM154.3 452.4c1 .2 1.2.8 0 1.3-4.2 2-8.8 5.9-15.3 12.9-5.8 6.3-13.6 4.4-15.1-.6-4.3-14.2 22.8-11.9 30.4-13.6zM128.4 480.8c2.5 0 4.4-2 4.4-4.4 0-2.5-2-4.4-4.4-4.4-2.5 0-4.4 2-4.4 4.4 0 2.4 1.9 4.4 4.4 4.4z"/><path class="st6" d="M169.5 475c2.5 0 4.5-2 4.5-4.5s-2-4.5-4.5-4.5-4.5 2-4.5 4.5c0 2.4 2 4.5 4.5 4.5zM161.8 481.6c1.9 0 3.5-1.5 3.5-3.5 0-1.9-1.5-3.5-3.5-3.5-1.9 0-3.5 1.5-3.5 3.5s1.6 3.5 3.5 3.5zM155 486.9c1.4 0 2.5-1.1 2.5-2.5s-1.1-2.5-2.5-2.5-2.5 1.1-2.5 2.5c-.1 1.3 1 2.5 2.5 2.5zM176.3 466.2c1.9 0 3.5-1.5 3.5-3.5 0-1.9-1.5-3.5-3.5-3.5-1.9 0-3.5 1.5-3.5 3.5s1.6 3.5 3.5 3.5zM182.8 457.5c1.4 0 2.5-1.1 2.5-2.5s-1.1-2.5-2.5-2.5-2.5 1.1-2.5 2.5c-.1 1.3 1.1 2.5 2.5 2.5zM198.9 444.9c-1.6 10.7-4.1 31.5-15.9 46.9-8.5 11.1 4.5 19.4 10.9 10.7 9.8-13.7 13.2-34.1 5-57.6zM225.7 496.6c-12.1 4.1-14.8-14-4.1-18.4-10.4-5.3-20.3 7.1-17.2 16.3 3.6 10.5 15.8 15.4 26 9.6 10.5-6.1 9.9-15.1 2.5-34.3l-5.6 3.7c5.8 16.6 3.1 21.4-1.6 23.1zM201.9 506.4c2.1 0 3.8-1.7 3.8-3.8s-1.7-3.8-3.8-3.8c-2.1 0-3.8 1.7-3.8 3.8s1.7 3.8 3.8 3.8zM174.9 506.5c2.1 0 3.8-1.7 3.8-3.8 0-2.1-1.7-3.8-3.8-3.8-2.1 0-3.8 1.7-3.8 3.8 0 2.1 1.7 3.8 3.8 3.8zM204.8 453.9c-.2-.7.2-.9.8-.3 2.3 2 6 3.8 12.1 5.9 5.4 1.9 6.4 7.2 3.7 9.5-7.5 6.4-13.5-10.9-16.6-15.1z"/><path class="st6" d="M218.7 492c4 0 7.2-3.2 7.2-7.2s-3.2-7.2-7.2-7.2-7.2 3.2-7.2 7.2 3.2 7.2 7.2 7.2zM209.2 476.5c2.1 0 3.8-1.7 3.8-3.8 0-2.1-1.7-3.8-3.8-3.8-2.1 0-3.8 1.7-3.8 3.8 0 2.1 1.7 3.8 3.8 3.8zM255.1 479c1.9 0 3.4-1.5 3.4-3.4s-1.5-3.4-3.4-3.4-3.4 1.5-3.4 3.4 1.5 3.4 3.4 3.4zM250.2 472c1.9 0 3.4-1.5 3.4-3.4s-1.5-3.4-3.4-3.4-3.4 1.5-3.4 3.4 1.6 3.4 3.4 3.4zM249.3 463.1c1.9 0 3.4-1.5 3.4-3.4s-1.5-3.4-3.4-3.4-3.4 1.5-3.4 3.4 1.5 3.4 3.4 3.4zM252 454.4c1.9 0 3.4-1.5 3.4-3.4s-1.5-3.4-3.4-3.4-3.4 1.5-3.4 3.4 1.5 3.4 3.4 3.4zM247 263.1c3.8-8.5 19.1-8.8 22.3-1.6 6.4 14.6-13.5 23-22.6 21-1.3-2.8-2.6-5.6-3.9-7.9 13.7 2.9 22.3-6.3 18.6-12.2-2.4-4-9.9-4-14.4.7zM229.9 230.5c2.3 4 6.8 14.7 17.2 19.5 6.7 3.1 2.4 9.6-3.4 6.9-8.4-4-11.4-11.6-13.8-26.4zM240.9 263.6c1.5 0 2.7-1.2 2.7-2.7 0-1.5-1.2-2.7-2.7-2.7s-2.7 1.2-2.7 2.7c0 1.5 1.2 2.7 2.7 2.7z"/><path class="st6" d="M243.5 270.8c1.5 0 2.7-1.2 2.7-2.7 0-1.5-1.2-2.7-2.7-2.7s-2.7 1.2-2.7 2.7c0 1.5 1.2 2.7 2.7 2.7zM250.4 273.3c1.5 0 2.7-1.2 2.7-2.7 0-1.5-1.2-2.7-2.7-2.7s-2.7 1.2-2.7 2.7c-.1 1.5 1.2 2.7 2.7 2.7zM256.5 270c1.5 0 2.7-1.2 2.7-2.7 0-1.5-1.2-2.7-2.7-2.7-1.5 0-2.7 1.2-2.7 2.7 0 1.5 1.2 2.7 2.7 2.7zM270.5 258.2c4.5.9 12.9 1.9 22.2-3.3 5.2-2.9 8.3 4.4 3.6 7.5-6.8 4.5-18.6 4.7-25.8-4.2zM271.4 396.1c15.4.9 23.6-20.9 13.6-34.4-6.2-8.4-20.4-10.1-32.9-2.4 13.1-16.7 42.7-12.7 46.2 10.4 3.9 25.4-11 38.2-27.9 36.1-23.3-2.9-31.2-19.3-35.8-52.6-1-7.2.1-3.1.2-9.8l.6-8.9c5.7 41.4 15.2 60.3 36 61.6z"/><path class="st6" d="M258.6 371.6c4.4 0 7.9-3.5 7.9-7.9s-3.5-7.9-7.9-7.9-7.9 3.5-7.9 7.9c0 4.3 3.5 7.9 7.9 7.9z"/><path class="st6" d="M242.2 356.8c1.5 5.3 8.5 26.3 30.8 26.8 9.4.2 8 11.2-.1 10.6-16.7-1.3-28.3-15.5-30.7-37.4zM275.2 370.9c3.1 0 5.6-2.5 5.6-5.6 0-3.1-2.5-5.6-5.6-5.6-3.1 0-5.6 2.5-5.6 5.6 0 3.1 2.5 5.6 5.6 5.6zM281.9 380.6c2.1 0 3.8-1.7 3.8-3.8 0-2.1-1.7-3.8-3.8-3.8-2.1 0-3.8 1.7-3.8 3.8.1 2.1 1.7 3.8 3.8 3.8z"/><path class="st6" d="M254.4 373.2c-.5-.4-.2-1.1.4-.7 3.2 2.1 6.8 1.9 11.8-.2 4.8-2.1 9.2 1.9 8.4 5-2.4 8.8-18.1.3-20.6-4.1zM235.2 384c-.1 4.3-.2 11.7 5.7 22.4 3.7 6.9-6.3 11.9-9.9 6.1-5.1-8.4-.6-15.4 4.2-28.5zM236.9 326c2.6 3.6 6.5 5 6.9 5.8 1.9 3.8 1.7 7.2 9.2 13.2 9.5 7.5-5.2 15.5-10.7 6.4-6.2-10.5-2.7-10.6-5.4-25.4zM273.5 264c3.6 2.3 10.7 6.2 20.9 4.9 5.6-.7 5.8 6.8.5 7.9-7.6 1.6-18.1-2.4-21.4-12.8zM271.9 290.2c3.4 0 6.2-2.8 6.2-6.2 0-3.4-2.8-6.2-6.2-6.2s-6.2 2.8-6.2 6.2c.1 3.4 2.8 6.2 6.2 6.2zM248.9 284c2.8 3 14 14.9 26.3 13.9 6.2-1.1 5.2 6-1.2 5.9-11.1-.1-19.3-8.7-25.1-19.8z"/><path class="st6" d="M258.2 288.3c1.5 0 2.7-1.2 2.7-2.7 0-1.5-1.2-2.7-2.7-2.7-1.5 0-2.7 1.2-2.7 2.7 0 1.5 1.2 2.7 2.7 2.7zM263.2 292.4c1.3 0 2.3-1 2.3-2.3 0-1.3-1-2.3-2.3-2.3-1.3 0-2.3 1-2.3 2.3 0 1.3 1.1 2.3 2.3 2.3zM268.3 295.1c1.2 0 2.1-.9 2.1-2.1 0-1.2-.9-2.1-2.1-2.1-1.2 0-2.1.9-2.1 2.1 0 1.2 1 2.1 2.1 2.1zM273.5 296.6c1.2 0 2.1-.9 2.1-2.1 0-1.2-.9-2.1-2.1-2.1-1.2 0-2.1.9-2.1 2.1 0 1.2.9 2.1 2.1 2.1zM278.7 294.2c1.2 0 2.1-.9 2.1-2.1 0-1.2-.9-2.1-2.1-2.1-1.2 0-2.1.9-2.1 2.1 0 1.2.9 2.1 2.1 2.1zM280.6 289.5c1.2 0 2.1-.9 2.1-2.1 0-1.2-.9-2.1-2.1-2.1-1.2 0-2.1.9-2.1 2.1 0 1.2 1 2.1 2.1 2.1zM278.3 326.1c2.3 0 4.1-1.8 4.1-4.1s-1.8-4.1-4.1-4.1-4.1 1.8-4.1 4.1c0 2.2 1.8 4.1 4.1 4.1zM237 379.4c1.6 7.3 16.4 43.2 50.1 28 13.4-6 18.7 14.9-2.7 17.3-32.6 3.5-48-22.6-47.4-45.3zM245.4 308c2.1 6.3 7.6 15.1 22.1 28.1 9 8.1 1 15.3-8 9.5-12.8-8.3-14.2-15.9-14.1-37.6zM273.8 503.1c8.7-1.6 25.3-5.3 40.2-.5 10.8 3.5 13.7-8.7 5.2-11.2-13-3.8-29.6-.9-45.4 11.7z"/><path class="st6" d="M249 416.8c6.3 4.4 15.5 12.6 37.7 11.3 14.4-.8 14.7 11.2 2.1 11.9-.5 0-1.2 1.5-1.6 1.5 3 3.7-1.8 9.5-10.4 7.8-14.5-2.9-22.4-12.9-31.3-35.8.4.4 3 2.6 3.5 3.3z"/><path class="st6" d="M256.9 437.7c-.6-.1-2.9-1.3-2.7-.8 11.5 21.3 45.6 45.3 69.9 32.6 8.8-4.6 11-14.7-4.6-16.1-23.6-2.1-29.9 4.2-44.2-1.6-8.9-3.6-11.6-4.2-18.4-14.1z"/><path class="st6" d="M295.5 451c3 0 5.4-2.4 5.4-5.4 0-3-2.4-5.4-5.4-5.4-3 0-5.4 2.4-5.4 5.4 0 3 2.4 5.4 5.4 5.4zM260.4 460.4c2.4 0 4.3-1.9 4.3-4.3s-1.9-4.3-4.3-4.3-4.3 1.9-4.3 4.3 1.9 4.3 4.3 4.3zM275.9 464.7c3.9 3 9.1 7.9 22.8 9.7 10.6 1.4 7.2 12.9-.5 12.3-11-1-13.5-8.8-22.3-22zM285.2 493c2.5 0 4.4-2 4.4-4.4 0-2.5-2-4.4-4.4-4.4-2.5 0-4.4 2-4.4 4.4 0 2.4 1.9 4.4 4.4 4.4zM323.1 487.1c3.3 0 5.9-2.6 5.9-5.9 0-3.3-2.6-5.9-5.9-5.9-3.3 0-5.9 2.6-5.9 5.9 0 3.2 2.7 5.9 5.9 5.9zM311.1 484.9c1.9 0 3.4-1.5 3.4-3.4s-1.5-3.4-3.4-3.4-3.4 1.5-3.4 3.4 1.5 3.4 3.4 3.4zM269.7 144.3c-3.9 0-7.1-3.3-7-7.4.1-4.1 3.2-7.2 7.1-7.2 3.9 0 7.1 3.3 7.1 7.3 0 4.1-3.3 7.3-7.2 7.3zM279.9 135.3c-1.4 0-2.6-1.3-2.5-2.8 0-1.5 1.2-2.7 2.6-2.7 1.4 0 2.6 1.2 2.6 2.8-.1 1.5-1.3 2.7-2.7 2.7zM231.6 135.2c-1.4 0-2.6-1.3-2.5-2.8 0-1.5 1.2-2.7 2.6-2.7 1.4 0 2.6 1.2 2.6 2.8-.1 1.5-1.3 2.7-2.7 2.7zM197.4 136.4c-1.8 0-3.3-1.6-3.3-3.6s1.5-3.5 3.3-3.5c1.8 0 3.3 1.6 3.3 3.6s-1.5 3.5-3.3 3.5zM308.2 186.4c9.3-1.9 58.5-6.8 78.5 19.8 8.5 11.2 10.4-1.1 2.4-10.6-16.2-19.3-55.8-22.2-80.9-9.2zM328.3 178.7c4.4-6 7.4-22.2 4.9-40.9-1.7-12.4 9-11.1 10.4-.3 1.1 9.2 3.5 26.4-15.3 41.2z"/><path class="st6" d="M335.5 175.3c8.7.6 27.2-1.9 46.1 9.8 12.5 7.8 15.3-.5 5.2-8.4-14.6-11.6-37.5-9.1-51.3-1.4zM351.5 142.9c-3.3 0-6-2.8-5.9-6.3.1-3.5 2.8-6.2 6.1-6.1 3.3 0 6 2.8 6 6.2-.2 3.5-2.9 6.3-6.2 6.2zM365 141.1c-2.3 0-4.2-2-4.2-4.4 0-2.4 1.9-4.3 4.2-4.3 2.3 0 4.2 2 4.2 4.4 0 2.4-1.9 4.3-4.2 4.3zM363.4 166.7c-2.2 0-4-1.8-3.9-3.9 0-2.2 1.8-3.8 4-3.8s4 1.8 4 3.9c-.1 2.1-1.9 3.8-4.1 3.8zM344.3 169.2c-1.5 0-2.7-1.2-2.7-2.7 0-1.5 1.3-2.7 2.8-2.7 1.5 0 2.7 1.2 2.7 2.7-.1 1.6-1.3 2.8-2.8 2.7z"/></g><linearGradient id="SVGID_6_" gradientUnits="userSpaceOnUse" x1="320.172" y1="11.244" x2="320.172" y2="1028.7"><stop offset="0" stop-color="#72328b" stop-opacity="0"/><stop offset=".479" stop-color="#72328b" stop-opacity=".051"/><stop offset=".695" stop-color="#72328b" stop-opacity=".393"/><stop offset=".899" stop-color="#72328b"/></linearGradient><path class="st7" d="M0 405.6h640.4v485.5H0z"/><g class="st8"><path class="st9" d="M625.8 670.1c-56.2 0-95.6-33.6-95.6-83.2 0-23.7 13.5-51.4 37.9-60.9-14.6-8.4-23.7-23.3-23.7-44.1 0-41.2 35-70 82.5-70 35.8 0 62.8 17.1 72.6 37.9-5.1 3.6-40.9 25.2-46.7 28.5-5.8-11.3-12.8-16.1-23.7-16.1-13.1 0-23 11.7-23 23.7 0 12.8 10.6 23.7 23.7 23.7h17.1v48.9h-23.4c-15.3 0-27.7 13.5-27.7 27 0 17.1 12.4 30.3 30.6 30.3 26.6 0 44.5-21.2 44.5-55.1v-2.2-48.9h80.6v48.9h-23.7v15c.1 55.4-39.7 96.6-102 96.6"/></g><g><path class="st2" d="M168.8 687.6c-2.3-3.1-5.4-4.6-9.2-4.6-3.6 0-6.3 1.3-8.1 3.9s-2.7 6-2.7 10.1c0 4 .9 7.4 2.7 10s4.4 4 8 4c2 0 3.9-.5 5.6-1.4 1.7-.9 3.1-2.2 4.1-3.8l7.1 6.4c-1.8 2.6-4.2 4.6-7.2 6.1s-6.1 2.2-9.5 2.2c-4.5 0-8.4-1.1-11.7-3.4-3.3-2.3-5.8-5.1-7.4-8.6s-2.4-7.3-2.4-11.5c0-6.4 1.9-11.9 5.8-16.5s9-6.9 15.5-6.9c3.4 0 6.5.7 9.4 2 2.9 1.4 5.3 3.3 7.2 5.9l-7.2 6.1zM214.2 720.1c-.4-3.6-1.1-7.3-2.1-11.1h-18c-1 3.8-1.7 7.5-2.1 11.1h-9.6c1.6-13.4 6.9-28.8 15.8-46.2h9.8c8.9 17.4 14.1 32.8 15.8 46.2h-9.6zm-4.7-20c-1.6-4.9-3.7-10.2-6.4-16-2.6 5.8-4.8 11.1-6.4 16h12.8zM272.3 720.1h-9.6c-1.3-.4-2.6-1.4-4-2.8-1.4-1.5-2.9-3.4-4.4-5.8-1.5-2.4-2.9-4.7-4-6.9-1.2-2.1-2.6-4.8-4.3-8.1-1.7-3.3-3-5.7-3.9-7.3l.1 31h-9.6V674h9.5c1.6.8 3.6 2.9 5.9 6.5s4.9 8.3 7.9 14c3 5.7 5.3 9.9 6.9 12.4v-32.3l9.6-.6v46.1zM313.7 680.2c4 4.4 6 9.8 6 16.2 0 4.3-.8 8.2-2.5 11.8-1.7 3.6-4.2 6.5-7.6 8.8-3.4 2.3-7.3 3.4-11.8 3.4-5.3 0-10.3-.6-15.1-1.8V675c1.4-.4 3.6-.7 6.7-1 3.1-.3 5.9-.4 8.4-.4 6.6 0 11.9 2.2 15.9 6.6zm-7.5 26.6c1.9-2.7 2.8-6.2 2.8-10.3 0-3.9-1-7.1-3-9.6s-4.8-3.8-8.4-3.8c-1.7 0-3.4.1-5.3.4v26.7c1.5.4 3.3.7 5.2.7 4-.1 6.9-1.4 8.7-4.1zM338.7 720.1h-9.6v-45.6l9.6-.6v46.2zM380.4 680.2c4 4.4 6 9.8 6 16.2 0 4.3-.8 8.2-2.5 11.8-1.7 3.6-4.2 6.5-7.6 8.8-3.4 2.3-7.3 3.4-11.8 3.4-5.3 0-10.3-.6-15.1-1.8V675c1.4-.4 3.6-.7 6.7-1 3.1-.3 5.9-.4 8.4-.4 6.6 0 11.9 2.2 15.9 6.6zm-7.4 26.6c1.9-2.7 2.8-6.2 2.8-10.3 0-3.9-1-7.1-3-9.6s-4.8-3.8-8.4-3.8c-1.7 0-3.4.1-5.3.4v26.7c1.5.4 3.3.7 5.2.7 3.9-.1 6.8-1.4 8.7-4.1zM422.5 720.1c-.4-3.6-1.1-7.3-2.1-11.1h-18c-1 3.8-1.7 7.5-2.1 11.1h-9.6c1.6-13.4 6.9-28.8 15.8-46.2h9.8c8.9 17.4 14.1 32.8 15.8 46.2h-9.6zm-4.7-20c-1.6-4.9-3.7-10.2-6.4-16-2.6 5.8-4.8 11.1-6.4 16h12.8zM455.3 681.7v38.4h-9.6v-38.4h-11.5l.6-7.8h31.6l-.6 7.8h-10.5zM496.6 684.4c-2.8-1.2-5.7-1.7-8.5-1.7-1.6 0-2.9.4-4 1.1-1 .7-1.6 1.6-1.6 2.5 0 1.3.5 2.4 1.5 3.4s3.2 2.1 6.6 3.5c7.2 2.9 10.8 7.4 10.8 13.6 0 2.2-.3 4.1-1 5.7-.7 1.6-1.6 3-2.6 3.9-1.1 1-2.4 1.8-4 2.4-1.6.6-3.1 1.1-4.7 1.3s-3.2.4-5 .4c-2.2 0-4.5-.3-6.9-1-2.4-.6-4.3-1.5-5.8-2.5l2-9.2c3.5 1.9 7.1 2.9 10.7 2.9 1.8 0 3.2-.2 4.3-.4 1.1-.3 1.9-.7 2.3-1.3s.7-1.1.8-1.5.2-1 .2-1.6c0-1-.6-1.9-1.8-2.8-1.2-.9-3.3-1.9-6.4-3.1-4.3-1.6-7.2-3.5-8.9-5.8-1.6-2.3-2.5-5-2.5-8 0-4 1.6-7.1 4.7-9.2 3.1-2.2 6.8-3.2 11.1-3.2 3.4 0 7.1.8 11 2.3l-2.3 8.3zM161.5 772.1c-3.9 1.6-7.7 2.4-11.3 2.4-4 0-7.2-1.3-9.4-3.8s-3.3-5.6-3.3-9.2c0-3.6 1.1-6.6 3.3-9.1 2.2-2.5 5.3-3.7 9.3-3.7 1.2 0 2.6.1 4.1.4v-9.4l7.2-.5v32.9zm-15-6.1c.9 1.2 2.2 1.8 3.9 1.8 1.5 0 2.8-.3 3.9-.8v-11.1c-1.3-.4-2.6-.6-3.9-.6-1.6 0-2.9.6-3.9 1.9-.9 1.3-1.4 2.8-1.4 4.5 0 1.6.5 3.1 1.4 4.3zM184 750c1.6 1 2.9 2.2 3.8 3.7s1.5 3.2 1.9 4.9c.4 1.7.5 3.5.3 5.2h-16.6c.4 1.2 1 2.2 1.9 3 .9.8 2.1 1.2 3.5 1.2 1.1 0 2-.1 2.6-.2s1.4-.4 2.3-.8l3.5 5.2c-2.3 1.6-5.2 2.3-8.6 2.2-2.1 0-4-.4-5.7-1.1-1.7-.7-3-1.7-4-2.9s-1.8-2.6-2.3-4.1-.8-3.2-.8-4.9c0-3.6 1.1-6.6 3.3-9.1s5.3-3.7 9.4-3.7c1.9-.1 3.8.4 5.5 1.4zm-1.6 8.9c0-.1-.1-.2-.1-.4s-.1-.5-.4-.9-.5-.8-.8-1.1c-.3-.3-.7-.6-1.3-.9-.6-.3-1.3-.4-2-.4-2.5 0-4 1.3-4.6 3.8h9.2zm-7.6-12.8l4.9-4.7h6.7l-6.6 4.7h-5zM214.9 752.3c2.2 2.5 3.3 5.6 3.3 9.2 0 3.6-1.1 6.6-3.3 9.1-2.2 2.5-5.3 3.7-9.3 3.7-1.2 0-2.6-.1-4.1-.4v9.7l-7.2.5v-33.3c3.9-1.6 7.7-2.4 11.3-2.4 4 .1 7.1 1.4 9.3 3.9zm-5.7 13.5c.9-1.3 1.4-2.8 1.4-4.5 0-1.7-.5-3.1-1.4-4.3-.9-1.2-2.2-1.8-3.9-1.8-1.5 0-2.8.3-3.9.8v11.1c1.3.4 2.6.6 3.9.6 1.7 0 3-.6 3.9-1.9zM243.5 770.6c-2.2 2.5-5.3 3.7-9.3 3.7-4.1 0-7.3-1.2-9.5-3.7s-3.3-5.6-3.3-9.2c0-3.6 1.1-6.6 3.3-9.1 2.2-2.5 5.4-3.7 9.5-3.7 4 0 7.1 1.3 9.3 3.8 2.2 2.5 3.3 5.6 3.3 9.2 0 3.5-1.1 6.6-3.3 9zm-5.6-13.6c-.9-1.2-2.1-1.8-3.8-1.8-1.7 0-3 .6-3.9 1.8s-1.3 2.7-1.3 4.5c0 1.7.4 3.2 1.3 4.5.9 1.2 2.2 1.8 3.9 1.8 1.6 0 2.9-.6 3.8-1.9.9-1.2 1.3-2.8 1.3-4.5 0-1.8-.4-3.2-1.3-4.4zM264.3 755.2c-1.8-.6-3.3-.9-4.4-.9-2 0-3 .6-3 1.9 0 .9 1.2 1.8 3.6 2.6 4.5 1.6 6.8 4.3 6.8 8.1 0 2.3-.9 4.1-2.7 5.4s-4 2-6.6 2c-1.3 0-2.7-.2-4.3-.6-1.6-.4-2.8-.8-3.5-1.4l2.1-5.4c1.4.9 3.3 1.3 5.7 1.3 2.2 0 3.3-.5 3.3-1.6 0-.7-.3-1.2-.8-1.6-.5-.4-1.8-1-3.8-1.6-3.9-1.3-5.8-3.7-5.8-7.2 0-5.1 3.1-7.6 9.2-7.6 2 0 4.1.4 6.3 1.2l-2.1 5.4zM289 750c1.6 1 2.9 2.2 3.8 3.7s1.5 3.2 1.9 4.9c.4 1.7.5 3.5.3 5.2h-16.6c.4 1.2 1 2.2 1.9 3 .9.8 2.1 1.2 3.5 1.2 1.1 0 2-.1 2.6-.2s1.4-.4 2.3-.8l3.5 5.2c-2.3 1.6-5.2 2.3-8.6 2.2-2.1 0-4-.4-5.7-1.1-1.7-.7-3-1.7-4-2.9s-1.8-2.6-2.3-4.1-.8-3.2-.8-4.9c0-3.6 1.1-6.6 3.3-9.1s5.3-3.7 9.4-3.7c2-.1 3.9.4 5.5 1.4zm-1.5 8.9c0-.1-.1-.2-.1-.4s-.1-.5-.4-.9-.5-.8-.8-1.1c-.3-.3-.7-.6-1.3-.9-.6-.3-1.3-.4-2-.4-2.5 0-4 1.3-4.6 3.8h9.2zM338.9 748.9c-.3 2.6-1 5.6-2.2 8.9s-2.3 6-3.2 7.9l-4.2 8.4H322l-4.2-8.4c-1-2-2-4.6-3.2-7.9-1.2-3.3-1.9-6.3-2.2-8.9h7.2c.5 4.8 2.6 10.8 6.1 18 3.5-7.3 5.5-13.3 6-18h7.2zM362.3 770.6c-2.2 2.5-5.3 3.7-9.3 3.7-4.1 0-7.3-1.2-9.5-3.7s-3.3-5.6-3.3-9.2c0-3.6 1.1-6.6 3.3-9.1 2.2-2.5 5.4-3.7 9.5-3.7 4 0 7.1 1.3 9.3 3.8 2.2 2.5 3.3 5.6 3.3 9.2 0 3.5-1.1 6.6-3.3 9zm-5.5-13.6c-.9-1.2-2.1-1.8-3.8-1.8-1.7 0-3 .6-3.9 1.8s-1.3 2.7-1.3 4.5c0 1.7.4 3.2 1.3 4.5.9 1.2 2.2 1.8 3.9 1.8 1.6 0 2.9-.6 3.8-1.9.9-1.2 1.3-2.8 1.3-4.5-.1-1.8-.5-3.2-1.3-4.4zM383.8 767.2v6.1c0 .2-.4.3-1.2.5-.8.1-1.4.2-2 .2-3 0-5.6-.8-7.7-2.5-2.1-1.7-3.2-4-3.2-7v-20.9l7.2-.4v5.7h6.2l-.5 5.8h-5.7v8.5c0 1.3.4 2.3 1.1 3.1.8.8 1.7 1.2 2.9 1.2 1.6-.1 2.6-.1 2.9-.3zM405.1 756.3c-1.1-.5-2.6-.8-4.7-.8-3 0-4.5 1.8-4.5 5.3V774h-7.2v-15.5c0-2.9 1-5.3 2.9-7.2 2-1.9 4.3-2.9 7.1-2.9 3.7 0 6.4.5 8.1 1.5l-1.7 6.4zM426.8 750c1.6 1 2.9 2.2 3.8 3.7s1.5 3.2 1.9 4.9c.4 1.7.5 3.5.3 5.2h-16.6c.4 1.2 1 2.2 1.9 3 .9.8 2.1 1.2 3.5 1.2 1.1 0 2-.1 2.6-.2s1.4-.4 2.3-.8l3.5 5.2c-2.3 1.6-5.2 2.3-8.6 2.2-2.1 0-4-.4-5.7-1.1-1.7-.7-3-1.7-4-2.9s-1.8-2.6-2.3-4.1-.8-3.2-.8-4.9c0-3.6 1.1-6.6 3.3-9.1s5.3-3.7 9.4-3.7c2-.1 3.9.4 5.5 1.4zm-1.5 8.9c0-.1-.1-.2-.1-.4s-.1-.5-.4-.9-.5-.8-.8-1.1c-.3-.3-.7-.6-1.3-.9-.6-.3-1.3-.4-2-.4-2.5 0-4 1.3-4.6 3.8h9.2zM472.3 770c-.8.9-1.5 1.6-2.2 2.1-.7.5-1.7 1-3.1 1.5-1.4.5-2.9.7-4.6.7-4.1 0-7.3-1.2-9.5-3.7s-3.3-5.6-3.3-9.2c0-3.6 1.1-6.6 3.3-9.1 2.2-2.5 5.4-3.7 9.5-3.7 1.9 0 3.6.3 5.4 1s3.1 1.7 4.2 3l-4.9 4.9c-.8-.8-1.5-1.4-2.2-1.8-.7-.4-1.5-.5-2.4-.5-1.8 0-3.1.6-3.9 1.8s-1.3 2.7-1.3 4.5c0 1.7.4 3.2 1.3 4.5.9 1.2 2.2 1.8 3.9 1.8.6 0 1.2-.1 1.7-.3.5-.2.9-.4 1.2-.6.2-.2.6-.5 1-.9s.6-.6.7-.6l5.2 4.6zM501.5 748.9c-.3 2.6-1 5.6-2.2 8.9s-2.3 6-3.2 7.9l-4.2 8.4h-7.2l-4.2-8.4c-1-2-2-4.6-3.2-7.9-1.2-3.3-1.9-6.3-2.2-8.9h7.2c.5 4.8 2.6 10.8 6.1 18 3.5-7.3 5.5-13.3 6-18h7.1z"/></g></svg>