<svg id="Calque_1" xmlns="http://www.w3.org/2000/svg" xmlns:xlink="http://www.w3.org/1999/xlink" viewBox="0 0 640.3 891.1"><style>.st0{clip-path:url(#SVGID_2_)}.st1{clip-path:url(#SVGID_4_)}.st2{fill:#da3832}.st3{clip-path:url(#SVGID_6_)}.st4{clip-path:url(#SVGID_8_)}.st5{clip-path:url(#SVGID_10_)}.st6{fill:url(#SVGID_11_)}.st7{fill:#070707}.st8{fill-rule:evenodd;clip-rule:evenodd;fill:#fff}.st9{display:none}.st10,.st11{stroke-miterlimit:22.9256}.st10{display:inline;stroke-width:2;stroke-linecap:round;stroke-linejoin:round;fill:#f7ec5c;stroke:#af3034}.st11{fill:#fff;stroke:#e0643a}</style><defs><path id="SVGID_1_" d="M640.4 0H0v891.1h640.4z"/></defs><clipPath id="SVGID_2_"><use xlink:href="#SVGID_1_" overflow="visible"/></clipPath><g class="st0"><defs><path id="SVGID_3_" d="M-499.1 280.1h615v615h-615z"/></defs><use xlink:href="#SVGID_3_" overflow="visible" fill="#f2e94d"/><clipPath id="SVGID_4_"><use xlink:href="#SVGID_3_" overflow="visible"/></clipPath><g class="st1"><circle class="st2" cx="-499.1" cy="280.1" r="13.6"/><circle class="st2" cx="-455.2" cy="280.1" r="13.6"/><circle class="st2" cx="-411.3" cy="280.1" r="13.6"/><circle class="st2" cx="-367.3" cy="280.1" r="13.6"/><circle class="st2" cx="-323.4" cy="280.1" r="13.6"/><circle class="st2" cx="-279.5" cy="280.1" r="13.6"/><circle class="st2" cx="-235.5" cy="280.1" r="13.6"/><circle class="st2" cx="-191.6" cy="280.1" r="13.6"/><circle class="st2" cx="-147.7" cy="280.1" r="13.6"/><circle class="st2" cx="-103.8" cy="280.1" r="13.6"/><circle class="st2" cx="-59.8" cy="280.1" r="13.6"/><circle class="st2" cx="-15.9" cy="280.1" r="13.6"/><circle class="st2" cx="28" cy="280.1" r="13.6"/><circle class="st2" cx="71.9" cy="280.1" r="13.6"/><circle class="st2" cx="115.9" cy="280.1" r="13.6"/><circle class="st2" cx="-477.2" cy="318.5" r="13.6"/><circle class="st2" cx="-433.2" cy="318.5" r="13.6"/><circle class="st2" cx="-389.3" cy="318.5" r="13.6"/><circle class="st2" cx="-345.4" cy="318.5" r="13.6"/><circle class="st2" cx="-301.4" cy="318.5" r="13.6"/><circle class="st2" cx="-257.5" cy="318.5" r="13.6"/><circle class="st2" cx="-213.6" cy="318.5" r="13.6"/><circle class="st2" cx="-169.7" cy="318.5" r="13.6"/><circle class="st2" cx="-125.7" cy="318.5" r="13.6"/><circle class="st2" cx="-81.8" cy="318.5" r="13.6"/><circle class="st2" cx="-37.9" cy="318.5" r="13.6"/><circle class="st2" cx="6.1" cy="318.5" r="13.6"/><circle class="st2" cx="50" cy="318.5" r="13.6"/><circle class="st2" cx="93.9" cy="318.5" r="13.6"/><g><circle class="st2" cx="-499.1" cy="357" r="13.6"/><circle class="st2" cx="-455.2" cy="357" r="13.6"/><circle class="st2" cx="-411.3" cy="357" r="13.6"/><circle class="st2" cx="-367.3" cy="357" r="13.6"/><circle class="st2" cx="-323.4" cy="357" r="13.6"/><circle class="st2" cx="-279.5" cy="357" r="13.6"/><circle class="st2" cx="-235.5" cy="357" r="13.6"/><circle class="st2" cx="-191.6" cy="357" r="13.6"/><circle class="st2" cx="-147.7" cy="357" r="13.6"/><circle class="st2" cx="-103.8" cy="357" r="13.6"/><circle class="st2" cx="-59.8" cy="357" r="13.6"/><circle class="st2" cx="-15.9" cy="357" r="13.6"/><circle class="st2" cx="28" cy="357" r="13.6"/><circle class="st2" cx="71.9" cy="357" r="13.6"/><circle class="st2" cx="115.9" cy="357" r="13.6"/></g><g><circle class="st2" cx="-477.2" cy="395.4" r="13.6"/><circle class="st2" cx="-433.2" cy="395.4" r="13.6"/><circle class="st2" cx="-389.3" cy="395.4" r="13.6"/><circle class="st2" cx="-345.4" cy="395.4" r="13.6"/><circle class="st2" cx="-301.4" cy="395.4" r="13.6"/><circle class="st2" cx="-257.5" cy="395.4" r="13.6"/><circle class="st2" cx="-213.6" cy="395.4" r="13.6"/><circle class="st2" cx="-169.7" cy="395.4" r="13.6"/><circle class="st2" cx="-125.7" cy="395.4" r="13.6"/><circle class="st2" cx="-81.8" cy="395.4" r="13.6"/><circle class="st2" cx="-37.9" cy="395.4" r="13.6"/><circle class="st2" cx="6.1" cy="395.4" r="13.6"/><circle class="st2" cx="50" cy="395.4" r="13.6"/><circle class="st2" cx="93.9" cy="395.4" r="13.6"/></g><g><circle class="st2" cx="-499.1" cy="433.9" r="13.6"/><circle class="st2" cx="-455.2" cy="433.9" r="13.6"/><circle class="st2" cx="-411.3" cy="433.9" r="13.6"/><circle class="st2" cx="-367.3" cy="433.9" r="13.6"/><circle class="st2" cx="-323.4" cy="433.9" r="13.6"/><circle class="st2" cx="-279.5" cy="433.9" r="13.6"/><circle class="st2" cx="-235.5" cy="433.9" r="13.6"/><circle class="st2" cx="-191.6" cy="433.9" r="13.6"/><circle class="st2" cx="-147.7" cy="433.9" r="13.6"/><circle class="st2" cx="-103.8" cy="433.9" r="13.6"/><circle class="st2" cx="-59.8" cy="433.9" r="13.6"/><circle class="st2" cx="-15.9" cy="433.9" r="13.6"/><circle class="st2" cx="28" cy="433.9" r="13.6"/><circle class="st2" cx="71.9" cy="433.9" r="13.6"/><circle class="st2" cx="115.9" cy="433.9" r="13.6"/></g><g><circle class="st2" cx="-477.2" cy="472.3" r="13.6"/><circle class="st2" cx="-433.2" cy="472.3" r="13.6"/><circle class="st2" cx="-389.3" cy="472.3" r="13.6"/><circle class="st2" cx="-345.4" cy="472.3" r="13.6"/><circle class="st2" cx="-301.4" cy="472.3" r="13.6"/><circle class="st2" cx="-257.5" cy="472.3" r="13.6"/><circle class="st2" cx="-213.6" cy="472.3" r="13.6"/><circle class="st2" cx="-169.7" cy="472.3" r="13.6"/><circle class="st2" cx="-125.7" cy="472.3" r="13.6"/><circle class="st2" cx="-81.8" cy="472.3" r="13.6"/><circle class="st2" cx="-37.9" cy="472.3" r="13.6"/><circle class="st2" cx="6.1" cy="472.3" r="13.6"/><circle class="st2" cx="50" cy="472.3" r="13.6"/><circle class="st2" cx="93.9" cy="472.3" r="13.6"/></g><g><circle class="st2" cx="-499.1" cy="510.7" r="13.6"/><circle class="st2" cx="-455.2" cy="510.7" r="13.6"/><circle class="st2" cx="-411.3" cy="510.7" r="13.6"/><circle class="st2" cx="-367.3" cy="510.7" r="13.6"/><circle class="st2" cx="-323.4" cy="510.7" r="13.6"/><circle class="st2" cx="-279.5" cy="510.7" r="13.6"/><circle class="st2" cx="-235.5" cy="510.7" r="13.6"/><circle class="st2" cx="-191.6" cy="510.7" r="13.6"/><circle class="st2" cx="-147.7" cy="510.7" r="13.6"/><circle class="st2" cx="-103.8" cy="510.7" r="13.6"/><circle class="st2" cx="-59.8" cy="510.7" r="13.6"/><circle class="st2" cx="-15.9" cy="510.7" r="13.6"/><circle class="st2" cx="28" cy="510.7" r="13.6"/><circle class="st2" cx="71.9" cy="510.7" r="13.6"/><circle class="st2" cx="115.9" cy="510.7" r="13.6"/></g><g><circle class="st2" cx="-477.2" cy="549.2" r="13.6"/><circle class="st2" cx="-433.2" cy="549.2" r="13.6"/><circle class="st2" cx="-389.3" cy="549.2" r="13.6"/><circle class="st2" cx="-345.4" cy="549.2" r="13.6"/><circle class="st2" cx="-301.4" cy="549.2" r="13.6"/><circle class="st2" cx="-257.5" cy="549.2" r="13.6"/><circle class="st2" cx="-213.6" cy="549.2" r="13.6"/><circle class="st2" cx="-169.7" cy="549.2" r="13.6"/><circle class="st2" cx="-125.7" cy="549.2" r="13.6"/><circle class="st2" cx="-81.8" cy="549.2" r="13.6"/><circle class="st2" cx="-37.9" cy="549.2" r="13.6"/><circle class="st2" cx="6.1" cy="549.2" r="13.6"/><circle class="st2" cx="50" cy="549.2" r="13.6"/><circle class="st2" cx="93.9" cy="549.2" r="13.6"/></g><g><circle class="st2" cx="-499.1" cy="587.6" r="13.6"/><circle class="st2" cx="-455.2" cy="587.6" r="13.6"/><circle class="st2" cx="-411.3" cy="587.6" r="13.6"/><circle class="st2" cx="-367.3" cy="587.6" r="13.6"/><circle class="st2" cx="-323.4" cy="587.6" r="13.6"/><circle class="st2" cx="-279.5" cy="587.6" r="13.6"/><circle class="st2" cx="-235.5" cy="587.6" r="13.6"/><circle class="st2" cx="-191.6" cy="587.6" r="13.6"/><circle class="st2" cx="-147.7" cy="587.6" r="13.6"/><circle class="st2" cx="-103.8" cy="587.6" r="13.6"/><circle class="st2" cx="-59.8" cy="587.6" r="13.6"/><circle class="st2" cx="-15.9" cy="587.6" r="13.6"/><circle class="st2" cx="28" cy="587.6" r="13.6"/><circle class="st2" cx="71.9" cy="587.6" r="13.6"/><circle class="st2" cx="115.9" cy="587.6" r="13.6"/></g><g><circle class="st2" cx="-477.2" cy="626" r="13.6"/><circle class="st2" cx="-433.2" cy="626" r="13.6"/><circle class="st2" cx="-389.3" cy="626" r="13.6"/><circle class="st2" cx="-345.4" cy="626" r="13.6"/><circle class="st2" cx="-301.4" cy="626" r="13.6"/><circle class="st2" cx="-257.5" cy="626" r="13.6"/><circle class="st2" cx="-213.6" cy="626" r="13.6"/><circle class="st2" cx="-169.7" cy="626" r="13.6"/><circle class="st2" cx="-125.7" cy="626" r="13.6"/><circle class="st2" cx="-81.8" cy="626" r="13.6"/><circle class="st2" cx="-37.9" cy="626" r="13.6"/><circle class="st2" cx="6.1" cy="626" r="13.6"/><circle class="st2" cx="50" cy="626" r="13.6"/><circle class="st2" cx="93.9" cy="626" r="13.6"/></g><g><circle class="st2" cx="-499.1" cy="664.5" r="13.6"/><circle class="st2" cx="-455.2" cy="664.5" r="13.6"/><circle class="st2" cx="-411.3" cy="664.5" r="13.6"/><circle class="st2" cx="-367.3" cy="664.5" r="13.6"/><circle class="st2" cx="-323.4" cy="664.5" r="13.6"/><circle class="st2" cx="-279.5" cy="664.5" r="13.6"/><circle class="st2" cx="-235.5" cy="664.5" r="13.6"/><circle class="st2" cx="-191.6" cy="664.5" r="13.6"/><circle class="st2" cx="-147.7" cy="664.5" r="13.6"/><circle class="st2" cx="-103.8" cy="664.5" r="13.6"/><circle class="st2" cx="-59.8" cy="664.5" r="13.6"/><circle class="st2" cx="-15.9" cy="664.5" r="13.6"/><circle class="st2" cx="28" cy="664.5" r="13.6"/><circle class="st2" cx="71.9" cy="664.5" r="13.6"/><circle class="st2" cx="115.9" cy="664.5" r="13.6"/></g><g><circle class="st2" cx="-477.2" cy="702.9" r="13.6"/><circle class="st2" cx="-433.2" cy="702.9" r="13.6"/><circle class="st2" cx="-389.3" cy="702.9" r="13.6"/><circle class="st2" cx="-345.4" cy="702.9" r="13.6"/><circle class="st2" cx="-301.4" cy="702.9" r="13.6"/><circle class="st2" cx="-257.5" cy="702.9" r="13.6"/><circle class="st2" cx="-213.6" cy="702.9" r="13.6"/><circle class="st2" cx="-169.7" cy="702.9" r="13.6"/><circle class="st2" cx="-125.7" cy="702.9" r="13.6"/><circle class="st2" cx="-81.8" cy="702.9" r="13.6"/><circle class="st2" cx="-37.9" cy="702.9" r="13.6"/><circle class="st2" cx="6.1" cy="702.9" r="13.6"/><circle class="st2" cx="50" cy="702.9" r="13.6"/><circle class="st2" cx="93.9" cy="702.9" r="13.6"/></g><g><circle class="st2" cx="-499.1" cy="741.4" r="13.6"/><circle class="st2" cx="-455.2" cy="741.4" r="13.6"/><circle class="st2" cx="-411.3" cy="741.4" r="13.6"/><circle class="st2" cx="-367.3" cy="741.4" r="13.6"/><circle class="st2" cx="-323.4" cy="741.4" r="13.6"/><circle class="st2" cx="-279.5" cy="741.4" r="13.6"/><circle class="st2" cx="-235.5" cy="741.4" r="13.6"/><circle class="st2" cx="-191.6" cy="741.4" r="13.6"/><circle class="st2" cx="-147.7" cy="741.4" r="13.6"/><circle class="st2" cx="-103.8" cy="741.4" r="13.6"/><circle class="st2" cx="-59.8" cy="741.4" r="13.6"/><circle class="st2" cx="-15.9" cy="741.4" r="13.6"/><circle class="st2" cx="28" cy="741.4" r="13.6"/><circle class="st2" cx="71.9" cy="741.4" r="13.6"/><circle class="st2" cx="115.9" cy="741.4" r="13.6"/></g><g><circle class="st2" cx="-477.2" cy="779.8" r="13.6"/><circle class="st2" cx="-433.2" cy="779.8" r="13.6"/><circle class="st2" cx="-389.3" cy="779.8" r="13.6"/><circle class="st2" cx="-345.4" cy="779.8" r="13.6"/><circle class="st2" cx="-301.4" cy="779.8" r="13.6"/><circle class="st2" cx="-257.5" cy="779.8" r="13.6"/><circle class="st2" cx="-213.6" cy="779.8" r="13.6"/><circle class="st2" cx="-169.7" cy="779.8" r="13.6"/><circle class="st2" cx="-125.7" cy="779.8" r="13.6"/><circle class="st2" cx="-81.8" cy="779.8" r="13.6"/><circle class="st2" cx="-37.9" cy="779.8" r="13.6"/><circle class="st2" cx="6.1" cy="779.8" r="13.6"/><circle class="st2" cx="50" cy="779.8" r="13.6"/><circle class="st2" cx="93.9" cy="779.8" r="13.6"/></g><g><circle class="st2" cx="-499.1" cy="818.2" r="13.6"/><circle class="st2" cx="-455.2" cy="818.2" r="13.6"/><circle class="st2" cx="-411.3" cy="818.2" r="13.6"/><circle class="st2" cx="-367.3" cy="818.2" r="13.6"/><circle class="st2" cx="-323.4" cy="818.2" r="13.6"/><circle class="st2" cx="-279.5" cy="818.2" r="13.6"/><circle class="st2" cx="-235.5" cy="818.2" r="13.6"/><circle class="st2" cx="-191.6" cy="818.2" r="13.6"/><circle class="st2" cx="-147.7" cy="818.2" r="13.6"/><circle class="st2" cx="-103.8" cy="818.2" r="13.6"/><circle class="st2" cx="-59.8" cy="818.2" r="13.6"/><circle class="st2" cx="-15.9" cy="818.2" r="13.6"/><circle class="st2" cx="28" cy="818.2" r="13.6"/><circle class="st2" cx="71.9" cy="818.2" r="13.6"/><circle class="st2" cx="115.9" cy="818.2" r="13.6"/></g><g><circle class="st2" cx="-477.2" cy="856.7" r="13.6"/><circle class="st2" cx="-433.2" cy="856.7" r="13.6"/><circle class="st2" cx="-389.3" cy="856.7" r="13.6"/><circle class="st2" cx="-345.4" cy="856.7" r="13.6"/><circle class="st2" cx="-301.4" cy="856.7" r="13.6"/><circle class="st2" cx="-257.5" cy="856.7" r="13.6"/><circle class="st2" cx="-213.6" cy="856.7" r="13.6"/><circle class="st2" cx="-169.7" cy="856.7" r="13.6"/><circle class="st2" cx="-125.7" cy="856.7" r="13.6"/><circle class="st2" cx="-81.8" cy="856.7" r="13.6"/><circle class="st2" cx="-37.9" cy="856.7" r="13.6"/><circle class="st2" cx="6.1" cy="856.7" r="13.6"/><circle class="st2" cx="50" cy="856.7" r="13.6"/><circle class="st2" cx="93.9" cy="856.7" r="13.6"/></g><g><circle class="st2" cx="-499.1" cy="895.1" r="13.6"/><circle class="st2" cx="-455.2" cy="895.1" r="13.6"/><circle class="st2" cx="-411.3" cy="895.1" r="13.6"/><circle class="st2" cx="-367.3" cy="895.1" r="13.6"/><circle class="st2" cx="-323.4" cy="895.1" r="13.6"/><circle class="st2" cx="-279.5" cy="895.1" r="13.6"/><circle class="st2" cx="-235.5" cy="895.1" r="13.6"/><circle class="st2" cx="-191.6" cy="895.1" r="13.6"/><circle class="st2" cx="-147.7" cy="895.1" r="13.6"/><circle class="st2" cx="-103.8" cy="895.1" r="13.6"/><circle class="st2" cx="-59.8" cy="895.1" r="13.6"/><circle class="st2" cx="-15.9" cy="895.1" r="13.6"/><circle class="st2" cx="28" cy="895.1" r="13.6"/><circle class="st2" cx="71.9" cy="895.1" r="13.6"/><circle class="st2" cx="115.9" cy="895.1" r="13.6"/></g></g></g><g class="st0"><defs><path id="SVGID_5_" d="M-499.1-334.9h615v615h-615z"/></defs><use xlink:href="#SVGID_5_" overflow="visible" fill="#f2e94d"/><clipPath id="SVGID_6_"><use xlink:href="#SVGID_5_" overflow="visible"/></clipPath><g class="st3"><circle class="st2" cx="-499.1" cy="-334.9" r="13.6"/><circle class="st2" cx="-455.2" cy="-334.9" r="13.6"/><circle class="st2" cx="-411.3" cy="-334.9" r="13.6"/><circle class="st2" cx="-367.3" cy="-334.9" r="13.6"/><circle class="st2" cx="-323.4" cy="-334.9" r="13.6"/><circle class="st2" cx="-279.5" cy="-334.9" r="13.6"/><circle class="st2" cx="-235.5" cy="-334.9" r="13.6"/><circle class="st2" cx="-191.6" cy="-334.9" r="13.6"/><circle class="st2" cx="-147.7" cy="-334.9" r="13.6"/><circle class="st2" cx="-103.8" cy="-334.9" r="13.6"/><circle class="st2" cx="-59.8" cy="-334.9" r="13.6"/><circle class="st2" cx="-15.9" cy="-334.9" r="13.6"/><circle class="st2" cx="28" cy="-334.9" r="13.6"/><circle class="st2" cx="71.9" cy="-334.9" r="13.6"/><circle class="st2" cx="115.9" cy="-334.9" r="13.6"/><circle class="st2" cx="-477.2" cy="-296.4" r="13.6"/><circle class="st2" cx="-433.2" cy="-296.4" r="13.6"/><circle class="st2" cx="-389.3" cy="-296.4" r="13.6"/><circle class="st2" cx="-345.4" cy="-296.4" r="13.6"/><circle class="st2" cx="-301.4" cy="-296.4" r="13.6"/><circle class="st2" cx="-257.5" cy="-296.4" r="13.6"/><circle class="st2" cx="-213.6" cy="-296.4" r="13.6"/><circle class="st2" cx="-169.7" cy="-296.4" r="13.6"/><circle class="st2" cx="-125.7" cy="-296.4" r="13.6"/><circle class="st2" cx="-81.8" cy="-296.4" r="13.6"/><circle class="st2" cx="-37.9" cy="-296.4" r="13.6"/><circle class="st2" cx="6.1" cy="-296.4" r="13.6"/><circle class="st2" cx="50" cy="-296.4" r="13.6"/><circle class="st2" cx="93.9" cy="-296.4" r="13.6"/><g><circle class="st2" cx="-499.1" cy="-258" r="13.6"/><circle class="st2" cx="-455.2" cy="-258" r="13.6"/><circle class="st2" cx="-411.3" cy="-258" r="13.6"/><circle class="st2" cx="-367.3" cy="-258" r="13.6"/><circle class="st2" cx="-323.4" cy="-258" r="13.6"/><circle class="st2" cx="-279.5" cy="-258" r="13.6"/><circle class="st2" cx="-235.5" cy="-258" r="13.6"/><circle class="st2" cx="-191.6" cy="-258" r="13.6"/><circle class="st2" cx="-147.7" cy="-258" r="13.6"/><circle class="st2" cx="-103.8" cy="-258" r="13.6"/><circle class="st2" cx="-59.8" cy="-258" r="13.6"/><circle class="st2" cx="-15.9" cy="-258" r="13.6"/><circle class="st2" cx="28" cy="-258" r="13.6"/><circle class="st2" cx="71.9" cy="-258" r="13.6"/><circle class="st2" cx="115.9" cy="-258" r="13.6"/></g><g><circle class="st2" cx="-477.2" cy="-219.6" r="13.6"/><circle class="st2" cx="-433.2" cy="-219.6" r="13.6"/><circle class="st2" cx="-389.3" cy="-219.6" r="13.6"/><circle class="st2" cx="-345.4" cy="-219.6" r="13.6"/><circle class="st2" cx="-301.4" cy="-219.6" r="13.6"/><circle class="st2" cx="-257.5" cy="-219.6" r="13.6"/><circle class="st2" cx="-213.6" cy="-219.6" r="13.6"/><circle class="st2" cx="-169.7" cy="-219.6" r="13.6"/><circle class="st2" cx="-125.7" cy="-219.6" r="13.6"/><circle class="st2" cx="-81.8" cy="-219.6" r="13.6"/><circle class="st2" cx="-37.9" cy="-219.6" r="13.6"/><circle class="st2" cx="6.1" cy="-219.6" r="13.6"/><circle class="st2" cx="50" cy="-219.6" r="13.6"/><circle class="st2" cx="93.9" cy="-219.6" r="13.6"/></g><g><circle class="st2" cx="-499.1" cy="-181.1" r="13.6"/><circle class="st2" cx="-455.2" cy="-181.1" r="13.6"/><circle class="st2" cx="-411.3" cy="-181.1" r="13.6"/><circle class="st2" cx="-367.3" cy="-181.1" r="13.6"/><circle class="st2" cx="-323.4" cy="-181.1" r="13.6"/><circle class="st2" cx="-279.5" cy="-181.1" r="13.6"/><circle class="st2" cx="-235.5" cy="-181.1" r="13.6"/><circle class="st2" cx="-191.6" cy="-181.1" r="13.6"/><circle class="st2" cx="-147.7" cy="-181.1" r="13.6"/><circle class="st2" cx="-103.8" cy="-181.1" r="13.6"/><circle class="st2" cx="-59.8" cy="-181.1" r="13.6"/><circle class="st2" cx="-15.9" cy="-181.1" r="13.6"/><circle class="st2" cx="28" cy="-181.1" r="13.6"/><circle class="st2" cx="71.9" cy="-181.1" r="13.6"/><circle class="st2" cx="115.9" cy="-181.1" r="13.6"/></g><g><circle class="st2" cx="-477.2" cy="-142.7" r="13.6"/><circle class="st2" cx="-433.2" cy="-142.7" r="13.6"/><circle class="st2" cx="-389.3" cy="-142.7" r="13.6"/><circle class="st2" cx="-345.4" cy="-142.7" r="13.6"/><circle class="st2" cx="-301.4" cy="-142.7" r="13.6"/><circle class="st2" cx="-257.5" cy="-142.7" r="13.6"/><circle class="st2" cx="-213.6" cy="-142.7" r="13.6"/><circle class="st2" cx="-169.7" cy="-142.7" r="13.6"/><circle class="st2" cx="-125.7" cy="-142.7" r="13.6"/><circle class="st2" cx="-81.8" cy="-142.7" r="13.6"/><circle class="st2" cx="-37.9" cy="-142.7" r="13.6"/><circle class="st2" cx="6.1" cy="-142.7" r="13.6"/><circle class="st2" cx="50" cy="-142.7" r="13.6"/><circle class="st2" cx="93.9" cy="-142.7" r="13.6"/></g><g><circle class="st2" cx="-499.1" cy="-104.3" r="13.6"/><circle class="st2" cx="-455.2" cy="-104.3" r="13.6"/><circle class="st2" cx="-411.3" cy="-104.3" r="13.6"/><circle class="st2" cx="-367.3" cy="-104.3" r="13.6"/><circle class="st2" cx="-323.4" cy="-104.3" r="13.6"/><circle class="st2" cx="-279.5" cy="-104.3" r="13.6"/><circle class="st2" cx="-235.5" cy="-104.3" r="13.6"/><circle class="st2" cx="-191.6" cy="-104.3" r="13.6"/><circle class="st2" cx="-147.7" cy="-104.3" r="13.6"/><circle class="st2" cx="-103.8" cy="-104.3" r="13.6"/><circle class="st2" cx="-59.8" cy="-104.3" r="13.6"/><circle class="st2" cx="-15.9" cy="-104.3" r="13.6"/><circle class="st2" cx="28" cy="-104.3" r="13.6"/><circle class="st2" cx="71.9" cy="-104.3" r="13.6"/><circle class="st2" cx="115.9" cy="-104.3" r="13.6"/></g><g><circle class="st2" cx="-477.2" cy="-65.8" r="13.6"/><circle class="st2" cx="-433.2" cy="-65.8" r="13.6"/><circle class="st2" cx="-389.3" cy="-65.8" r="13.6"/><circle class="st2" cx="-345.4" cy="-65.8" r="13.6"/><circle class="st2" cx="-301.4" cy="-65.8" r="13.6"/><circle class="st2" cx="-257.5" cy="-65.8" r="13.6"/><circle class="st2" cx="-213.6" cy="-65.8" r="13.6"/><circle class="st2" cx="-169.7" cy="-65.8" r="13.6"/><circle class="st2" cx="-125.7" cy="-65.8" r="13.6"/><circle class="st2" cx="-81.8" cy="-65.8" r="13.6"/><circle class="st2" cx="-37.9" cy="-65.8" r="13.6"/><circle class="st2" cx="6.1" cy="-65.8" r="13.6"/><circle class="st2" cx="50" cy="-65.8" r="13.6"/><circle class="st2" cx="93.9" cy="-65.8" r="13.6"/></g><g><circle class="st2" cx="-499.1" cy="-27.4" r="13.6"/><circle class="st2" cx="-455.2" cy="-27.4" r="13.6"/><circle class="st2" cx="-411.3" cy="-27.4" r="13.6"/><circle class="st2" cx="-367.3" cy="-27.4" r="13.6"/><circle class="st2" cx="-323.4" cy="-27.4" r="13.6"/><circle class="st2" cx="-279.5" cy="-27.4" r="13.6"/><circle class="st2" cx="-235.5" cy="-27.4" r="13.6"/><circle class="st2" cx="-191.6" cy="-27.4" r="13.6"/><circle class="st2" cx="-147.7" cy="-27.4" r="13.6"/><circle class="st2" cx="-103.8" cy="-27.4" r="13.6"/><circle class="st2" cx="-59.8" cy="-27.4" r="13.6"/><circle class="st2" cx="-15.9" cy="-27.4" r="13.6"/><circle class="st2" cx="28" cy="-27.4" r="13.6"/><circle class="st2" cx="71.9" cy="-27.4" r="13.6"/><circle class="st2" cx="115.9" cy="-27.4" r="13.6"/></g><g><circle class="st2" cx="-477.2" cy="11" r="13.6"/><circle class="st2" cx="-433.2" cy="11" r="13.6"/><circle class="st2" cx="-389.3" cy="11" r="13.6"/><circle class="st2" cx="-345.4" cy="11" r="13.6"/><circle class="st2" cx="-301.4" cy="11" r="13.6"/><circle class="st2" cx="-257.5" cy="11" r="13.6"/><circle class="st2" cx="-213.6" cy="11" r="13.6"/><circle class="st2" cx="-169.7" cy="11" r="13.6"/><circle class="st2" cx="-125.7" cy="11" r="13.6"/><circle class="st2" cx="-81.8" cy="11" r="13.6"/><circle class="st2" cx="-37.9" cy="11" r="13.6"/><circle class="st2" cx="6.1" cy="11" r="13.6"/><circle class="st2" cx="50" cy="11" r="13.6"/><circle class="st2" cx="93.9" cy="11" r="13.6"/></g><g><circle class="st2" cx="-499.1" cy="49.5" r="13.6"/><circle class="st2" cx="-455.2" cy="49.5" r="13.6"/><circle class="st2" cx="-411.3" cy="49.5" r="13.6"/><circle class="st2" cx="-367.3" cy="49.5" r="13.6"/><circle class="st2" cx="-323.4" cy="49.5" r="13.6"/><circle class="st2" cx="-279.5" cy="49.5" r="13.6"/><circle class="st2" cx="-235.5" cy="49.5" r="13.6"/><circle class="st2" cx="-191.6" cy="49.5" r="13.6"/><circle class="st2" cx="-147.7" cy="49.5" r="13.6"/><circle class="st2" cx="-103.8" cy="49.5" r="13.6"/><circle class="st2" cx="-59.8" cy="49.5" r="13.6"/><circle class="st2" cx="-15.9" cy="49.5" r="13.6"/><circle class="st2" cx="28" cy="49.5" r="13.6"/><circle class="st2" cx="71.9" cy="49.5" r="13.6"/><circle class="st2" cx="115.9" cy="49.5" r="13.6"/></g><g><circle class="st2" cx="-477.2" cy="87.9" r="13.6"/><circle class="st2" cx="-433.2" cy="87.9" r="13.6"/><circle class="st2" cx="-389.3" cy="87.9" r="13.6"/><circle class="st2" cx="-345.4" cy="87.9" r="13.6"/><circle class="st2" cx="-301.4" cy="87.9" r="13.6"/><circle class="st2" cx="-257.5" cy="87.9" r="13.6"/><circle class="st2" cx="-213.6" cy="87.9" r="13.6"/><circle class="st2" cx="-169.7" cy="87.9" r="13.6"/><circle class="st2" cx="-125.7" cy="87.9" r="13.6"/><circle class="st2" cx="-81.8" cy="87.9" r="13.6"/><circle class="st2" cx="-37.9" cy="87.9" r="13.6"/><circle class="st2" cx="6.1" cy="87.9" r="13.6"/><circle class="st2" cx="50" cy="87.9" r="13.6"/><circle class="st2" cx="93.9" cy="87.9" r="13.6"/></g><g><circle class="st2" cx="-499.1" cy="126.4" r="13.6"/><circle class="st2" cx="-455.2" cy="126.4" r="13.6"/><circle class="st2" cx="-411.3" cy="126.4" r="13.6"/><circle class="st2" cx="-367.3" cy="126.4" r="13.6"/><circle class="st2" cx="-323.4" cy="126.4" r="13.6"/><circle class="st2" cx="-279.5" cy="126.4" r="13.6"/><circle class="st2" cx="-235.5" cy="126.4" r="13.6"/><circle class="st2" cx="-191.6" cy="126.4" r="13.6"/><circle class="st2" cx="-147.7" cy="126.4" r="13.6"/><circle class="st2" cx="-103.8" cy="126.4" r="13.6"/><circle class="st2" cx="-59.8" cy="126.4" r="13.6"/><circle class="st2" cx="-15.9" cy="126.4" r="13.6"/><circle class="st2" cx="28" cy="126.4" r="13.6"/><circle class="st2" cx="71.9" cy="126.4" r="13.6"/><circle class="st2" cx="115.9" cy="126.4" r="13.6"/></g><g><circle class="st2" cx="-477.2" cy="164.8" r="13.6"/><circle class="st2" cx="-433.2" cy="164.8" r="13.6"/><circle class="st2" cx="-389.3" cy="164.8" r="13.6"/><circle class="st2" cx="-345.4" cy="164.8" r="13.6"/><circle class="st2" cx="-301.4" cy="164.8" r="13.6"/><circle class="st2" cx="-257.5" cy="164.8" r="13.6"/><circle class="st2" cx="-213.6" cy="164.8" r="13.6"/><circle class="st2" cx="-169.7" cy="164.8" r="13.6"/><circle class="st2" cx="-125.7" cy="164.8" r="13.6"/><circle class="st2" cx="-81.8" cy="164.8" r="13.6"/><circle class="st2" cx="-37.9" cy="164.8" r="13.6"/><circle class="st2" cx="6.1" cy="164.8" r="13.6"/><circle class="st2" cx="50" cy="164.8" r="13.6"/><circle class="st2" cx="93.9" cy="164.8" r="13.6"/></g><g><circle class="st2" cx="-499.1" cy="203.2" r="13.6"/><circle class="st2" cx="-455.2" cy="203.2" r="13.6"/><circle class="st2" cx="-411.3" cy="203.2" r="13.6"/><circle class="st2" cx="-367.3" cy="203.2" r="13.6"/><circle class="st2" cx="-323.4" cy="203.2" r="13.6"/><circle class="st2" cx="-279.5" cy="203.2" r="13.6"/><circle class="st2" cx="-235.5" cy="203.2" r="13.6"/><circle class="st2" cx="-191.6" cy="203.2" r="13.6"/><circle class="st2" cx="-147.7" cy="203.2" r="13.6"/><circle class="st2" cx="-103.8" cy="203.2" r="13.6"/><circle class="st2" cx="-59.8" cy="203.2" r="13.6"/><circle class="st2" cx="-15.9" cy="203.2" r="13.6"/><circle class="st2" cx="28" cy="203.2" r="13.6"/><circle class="st2" cx="71.9" cy="203.2" r="13.6"/><circle class="st2" cx="115.9" cy="203.2" r="13.6"/></g><g><circle class="st2" cx="-477.2" cy="241.7" r="13.6"/><circle class="st2" cx="-433.2" cy="241.7" r="13.6"/><circle class="st2" cx="-389.3" cy="241.7" r="13.6"/><circle class="st2" cx="-345.4" cy="241.7" r="13.6"/><circle class="st2" cx="-301.4" cy="241.7" r="13.6"/><circle class="st2" cx="-257.5" cy="241.7" r="13.6"/><circle class="st2" cx="-213.6" cy="241.7" r="13.6"/><circle class="st2" cx="-169.7" cy="241.7" r="13.6"/><circle class="st2" cx="-125.7" cy="241.7" r="13.6"/><circle class="st2" cx="-81.8" cy="241.7" r="13.6"/><circle class="st2" cx="-37.9" cy="241.7" r="13.6"/><circle class="st2" cx="6.1" cy="241.7" r="13.6"/><circle class="st2" cx="50" cy="241.7" r="13.6"/><circle class="st2" cx="93.9" cy="241.7" r="13.6"/></g><g><circle class="st2" cx="-499.1" cy="280.1" r="13.6"/><circle class="st2" cx="-455.2" cy="280.1" r="13.6"/><circle class="st2" cx="-411.3" cy="280.1" r="13.6"/><circle class="st2" cx="-367.3" cy="280.1" r="13.6"/><circle class="st2" cx="-323.4" cy="280.1" r="13.6"/><circle class="st2" cx="-279.5" cy="280.1" r="13.6"/><circle class="st2" cx="-235.5" cy="280.1" r="13.6"/><circle class="st2" cx="-191.6" cy="280.1" r="13.6"/><circle class="st2" cx="-147.7" cy="280.1" r="13.6"/><circle class="st2" cx="-103.8" cy="280.1" r="13.6"/><circle class="st2" cx="-59.8" cy="280.1" r="13.6"/><circle class="st2" cx="-15.9" cy="280.1" r="13.6"/><circle class="st2" cx="28" cy="280.1" r="13.6"/><circle class="st2" cx="71.9" cy="280.1" r="13.6"/><circle class="st2" cx="115.9" cy="280.1" r="13.6"/></g></g></g><g class="st0"><defs><path id="SVGID_7_" d="M115.9 280.1h615v615h-615z"/></defs><use xlink:href="#SVGID_7_" overflow="visible" fill="#f2e94d"/><clipPath id="SVGID_8_"><use xlink:href="#SVGID_7_" overflow="visible"/></clipPath><g class="st4"><circle class="st2" cx="115.9" cy="280.1" r="13.6"/><circle class="st2" cx="159.8" cy="280.1" r="13.6"/><circle class="st2" cx="203.7" cy="280.1" r="13.6"/><circle class="st2" cx="247.7" cy="280.1" r="13.6"/><circle class="st2" cx="291.6" cy="280.1" r="13.6"/><circle class="st2" cx="335.5" cy="280.1" r="13.6"/><circle class="st2" cx="379.4" cy="280.1" r="13.6"/><circle class="st2" cx="423.4" cy="280.1" r="13.6"/><circle class="st2" cx="467.3" cy="280.1" r="13.6"/><circle class="st2" cx="511.2" cy="280.1" r="13.6"/><circle class="st2" cx="555.2" cy="280.1" r="13.6"/><circle class="st2" cx="599.1" cy="280.1" r="13.6"/><circle class="st2" cx="643" cy="280.1" r="13.6"/><circle class="st2" cx="686.9" cy="280.1" r="13.6"/><circle class="st2" cx="730.9" cy="280.1" r="13.6"/><circle class="st2" cx="137.8" cy="318.5" r="13.6"/><circle class="st2" cx="181.8" cy="318.5" r="13.6"/><circle class="st2" cx="225.7" cy="318.5" r="13.6"/><circle class="st2" cx="269.6" cy="318.5" r="13.6"/><circle class="st2" cx="313.6" cy="318.5" r="13.6"/><circle class="st2" cx="357.5" cy="318.5" r="13.6"/><circle class="st2" cx="401.4" cy="318.5" r="13.6"/><circle class="st2" cx="445.3" cy="318.5" r="13.6"/><circle class="st2" cx="489.3" cy="318.5" r="13.6"/><circle class="st2" cx="533.2" cy="318.5" r="13.6"/><circle class="st2" cx="577.1" cy="318.5" r="13.6"/><circle class="st2" cx="621" cy="318.5" r="13.6"/><circle class="st2" cx="665" cy="318.5" r="13.6"/><circle class="st2" cx="708.9" cy="318.5" r="13.6"/><g><circle class="st2" cx="115.9" cy="357" r="13.6"/><circle class="st2" cx="159.8" cy="357" r="13.6"/><circle class="st2" cx="203.7" cy="357" r="13.6"/><circle class="st2" cx="247.7" cy="357" r="13.6"/><circle class="st2" cx="291.6" cy="357" r="13.6"/><circle class="st2" cx="335.5" cy="357" r="13.6"/><circle class="st2" cx="379.4" cy="357" r="13.6"/><circle class="st2" cx="423.4" cy="357" r="13.6"/><circle class="st2" cx="467.3" cy="357" r="13.6"/><circle class="st2" cx="511.2" cy="357" r="13.6"/><circle class="st2" cx="555.2" cy="357" r="13.6"/><circle class="st2" cx="599.1" cy="357" r="13.6"/><circle class="st2" cx="643" cy="357" r="13.6"/><circle class="st2" cx="686.9" cy="357" r="13.6"/><circle class="st2" cx="730.9" cy="357" r="13.6"/></g><g><circle class="st2" cx="137.8" cy="395.4" r="13.6"/><circle class="st2" cx="181.8" cy="395.4" r="13.6"/><circle class="st2" cx="225.7" cy="395.4" r="13.6"/><circle class="st2" cx="269.6" cy="395.4" r="13.6"/><circle class="st2" cx="313.6" cy="395.4" r="13.6"/><circle class="st2" cx="357.5" cy="395.4" r="13.6"/><circle class="st2" cx="401.4" cy="395.4" r="13.6"/><circle class="st2" cx="445.3" cy="395.4" r="13.6"/><circle class="st2" cx="489.3" cy="395.4" r="13.6"/><circle class="st2" cx="533.2" cy="395.4" r="13.6"/><circle class="st2" cx="577.1" cy="395.4" r="13.6"/><circle class="st2" cx="621" cy="395.4" r="13.6"/><circle class="st2" cx="665" cy="395.4" r="13.6"/><circle class="st2" cx="708.9" cy="395.4" r="13.6"/></g><g><circle class="st2" cx="115.9" cy="433.9" r="13.6"/><circle class="st2" cx="159.8" cy="433.9" r="13.6"/><circle class="st2" cx="203.7" cy="433.9" r="13.6"/><circle class="st2" cx="247.7" cy="433.9" r="13.6"/><circle class="st2" cx="291.6" cy="433.9" r="13.6"/><circle class="st2" cx="335.5" cy="433.9" r="13.6"/><circle class="st2" cx="379.4" cy="433.9" r="13.6"/><circle class="st2" cx="423.4" cy="433.9" r="13.6"/><circle class="st2" cx="467.3" cy="433.9" r="13.6"/><circle class="st2" cx="511.2" cy="433.9" r="13.6"/><circle class="st2" cx="555.2" cy="433.9" r="13.6"/><circle class="st2" cx="599.1" cy="433.9" r="13.6"/><circle class="st2" cx="643" cy="433.9" r="13.6"/><circle class="st2" cx="686.9" cy="433.9" r="13.6"/><circle class="st2" cx="730.9" cy="433.9" r="13.6"/></g><g><circle class="st2" cx="137.8" cy="472.3" r="13.6"/><circle class="st2" cx="181.8" cy="472.3" r="13.6"/><circle class="st2" cx="225.7" cy="472.3" r="13.6"/><circle class="st2" cx="269.6" cy="472.3" r="13.6"/><circle class="st2" cx="313.6" cy="472.3" r="13.6"/><circle class="st2" cx="357.5" cy="472.3" r="13.6"/><circle class="st2" cx="401.4" cy="472.3" r="13.6"/><circle class="st2" cx="445.3" cy="472.3" r="13.6"/><circle class="st2" cx="489.3" cy="472.3" r="13.6"/><circle class="st2" cx="533.2" cy="472.3" r="13.6"/><circle class="st2" cx="577.1" cy="472.3" r="13.6"/><circle class="st2" cx="621" cy="472.3" r="13.6"/><circle class="st2" cx="665" cy="472.3" r="13.6"/><circle class="st2" cx="708.9" cy="472.3" r="13.6"/></g><g><circle class="st2" cx="115.9" cy="510.7" r="13.6"/><circle class="st2" cx="159.8" cy="510.7" r="13.6"/><circle class="st2" cx="203.7" cy="510.7" r="13.6"/><circle class="st2" cx="247.7" cy="510.7" r="13.6"/><circle class="st2" cx="291.6" cy="510.7" r="13.6"/><circle class="st2" cx="335.5" cy="510.7" r="13.6"/><circle class="st2" cx="379.4" cy="510.7" r="13.6"/><circle class="st2" cx="423.4" cy="510.7" r="13.6"/><circle class="st2" cx="467.3" cy="510.7" r="13.6"/><circle class="st2" cx="511.2" cy="510.7" r="13.6"/><circle class="st2" cx="555.2" cy="510.7" r="13.6"/><circle class="st2" cx="599.1" cy="510.7" r="13.6"/><circle class="st2" cx="643" cy="510.7" r="13.6"/><circle class="st2" cx="686.9" cy="510.7" r="13.6"/><circle class="st2" cx="730.9" cy="510.7" r="13.6"/></g><g><circle class="st2" cx="137.8" cy="549.2" r="13.6"/><circle class="st2" cx="181.8" cy="549.2" r="13.6"/><circle class="st2" cx="225.7" cy="549.2" r="13.6"/><circle class="st2" cx="269.6" cy="549.2" r="13.6"/><circle class="st2" cx="313.6" cy="549.2" r="13.6"/><circle class="st2" cx="357.5" cy="549.2" r="13.6"/><circle class="st2" cx="401.4" cy="549.2" r="13.6"/><circle class="st2" cx="445.3" cy="549.2" r="13.6"/><circle class="st2" cx="489.3" cy="549.2" r="13.6"/><circle class="st2" cx="533.2" cy="549.2" r="13.6"/><circle class="st2" cx="577.1" cy="549.2" r="13.6"/><circle class="st2" cx="621" cy="549.2" r="13.6"/><circle class="st2" cx="665" cy="549.2" r="13.6"/><circle class="st2" cx="708.9" cy="549.2" r="13.6"/></g><g><circle class="st2" cx="115.9" cy="587.6" r="13.6"/><circle class="st2" cx="159.8" cy="587.6" r="13.6"/><circle class="st2" cx="203.7" cy="587.6" r="13.6"/><circle class="st2" cx="247.7" cy="587.6" r="13.6"/><circle class="st2" cx="291.6" cy="587.6" r="13.6"/><circle class="st2" cx="335.5" cy="587.6" r="13.6"/><circle class="st2" cx="379.4" cy="587.6" r="13.6"/><circle class="st2" cx="423.4" cy="587.6" r="13.6"/><circle class="st2" cx="467.3" cy="587.6" r="13.6"/><circle class="st2" cx="511.2" cy="587.6" r="13.6"/><circle class="st2" cx="555.2" cy="587.6" r="13.6"/><circle class="st2" cx="599.1" cy="587.6" r="13.6"/><circle class="st2" cx="643" cy="587.6" r="13.6"/><circle class="st2" cx="686.9" cy="587.6" r="13.6"/><circle class="st2" cx="730.9" cy="587.6" r="13.6"/></g><g><circle class="st2" cx="137.8" cy="626" r="13.6"/><circle class="st2" cx="181.8" cy="626" r="13.6"/><circle class="st2" cx="225.7" cy="626" r="13.6"/><circle class="st2" cx="269.6" cy="626" r="13.6"/><circle class="st2" cx="313.6" cy="626" r="13.6"/><circle class="st2" cx="357.5" cy="626" r="13.6"/><circle class="st2" cx="401.4" cy="626" r="13.6"/><circle class="st2" cx="445.3" cy="626" r="13.6"/><circle class="st2" cx="489.3" cy="626" r="13.6"/><circle class="st2" cx="533.2" cy="626" r="13.6"/><circle class="st2" cx="577.1" cy="626" r="13.6"/><circle class="st2" cx="621" cy="626" r="13.6"/><circle class="st2" cx="665" cy="626" r="13.6"/><circle class="st2" cx="708.9" cy="626" r="13.6"/></g><g><circle class="st2" cx="115.9" cy="664.5" r="13.6"/><circle class="st2" cx="159.8" cy="664.5" r="13.6"/><circle class="st2" cx="203.7" cy="664.5" r="13.6"/><circle class="st2" cx="247.7" cy="664.5" r="13.6"/><circle class="st2" cx="291.6" cy="664.5" r="13.6"/><circle class="st2" cx="335.5" cy="664.5" r="13.6"/><circle class="st2" cx="379.4" cy="664.5" r="13.6"/><circle class="st2" cx="423.4" cy="664.5" r="13.6"/><circle class="st2" cx="467.3" cy="664.5" r="13.6"/><circle class="st2" cx="511.2" cy="664.5" r="13.6"/><circle class="st2" cx="555.2" cy="664.5" r="13.6"/><circle class="st2" cx="599.1" cy="664.5" r="13.6"/><circle class="st2" cx="643" cy="664.5" r="13.6"/><circle class="st2" cx="686.9" cy="664.5" r="13.6"/><circle class="st2" cx="730.9" cy="664.5" r="13.6"/></g><g><circle class="st2" cx="137.8" cy="702.9" r="13.6"/><circle class="st2" cx="181.8" cy="702.9" r="13.6"/><circle class="st2" cx="225.7" cy="702.9" r="13.6"/><circle class="st2" cx="269.6" cy="702.9" r="13.6"/><circle class="st2" cx="313.6" cy="702.9" r="13.6"/><circle class="st2" cx="357.5" cy="702.9" r="13.6"/><circle class="st2" cx="401.4" cy="702.9" r="13.6"/><circle class="st2" cx="445.3" cy="702.9" r="13.6"/><circle class="st2" cx="489.3" cy="702.9" r="13.6"/><circle class="st2" cx="533.2" cy="702.9" r="13.6"/><circle class="st2" cx="577.1" cy="702.9" r="13.6"/><circle class="st2" cx="621" cy="702.9" r="13.6"/><circle class="st2" cx="665" cy="702.9" r="13.6"/><circle class="st2" cx="708.9" cy="702.9" r="13.6"/></g><g><circle class="st2" cx="115.9" cy="741.4" r="13.6"/><circle class="st2" cx="159.8" cy="741.4" r="13.6"/><circle class="st2" cx="203.7" cy="741.4" r="13.6"/><circle class="st2" cx="247.7" cy="741.4" r="13.6"/><circle class="st2" cx="291.6" cy="741.4" r="13.6"/><circle class="st2" cx="335.5" cy="741.4" r="13.6"/><circle class="st2" cx="379.4" cy="741.4" r="13.6"/><circle class="st2" cx="423.4" cy="741.4" r="13.6"/><circle class="st2" cx="467.3" cy="741.4" r="13.6"/><circle class="st2" cx="511.2" cy="741.4" r="13.6"/><circle class="st2" cx="555.2" cy="741.4" r="13.6"/><circle class="st2" cx="599.1" cy="741.4" r="13.6"/><circle class="st2" cx="643" cy="741.4" r="13.6"/><circle class="st2" cx="686.9" cy="741.4" r="13.6"/><circle class="st2" cx="730.9" cy="741.4" r="13.6"/></g><g><circle class="st2" cx="137.8" cy="779.8" r="13.6"/><circle class="st2" cx="181.8" cy="779.8" r="13.6"/><circle class="st2" cx="225.7" cy="779.8" r="13.6"/><circle class="st2" cx="269.6" cy="779.8" r="13.6"/><circle class="st2" cx="313.6" cy="779.8" r="13.6"/><circle class="st2" cx="357.5" cy="779.8" r="13.6"/><circle class="st2" cx="401.4" cy="779.8" r="13.6"/><circle class="st2" cx="445.3" cy="779.8" r="13.6"/><circle class="st2" cx="489.3" cy="779.8" r="13.6"/><circle class="st2" cx="533.2" cy="779.8" r="13.6"/><circle class="st2" cx="577.1" cy="779.8" r="13.6"/><circle class="st2" cx="621" cy="779.8" r="13.6"/><circle class="st2" cx="665" cy="779.8" r="13.6"/><circle class="st2" cx="708.9" cy="779.8" r="13.6"/></g><g><circle class="st2" cx="115.9" cy="818.2" r="13.6"/><circle class="st2" cx="159.8" cy="818.2" r="13.6"/><circle class="st2" cx="203.7" cy="818.2" r="13.6"/><circle class="st2" cx="247.7" cy="818.2" r="13.6"/><circle class="st2" cx="291.6" cy="818.2" r="13.6"/><circle class="st2" cx="335.5" cy="818.2" r="13.6"/><circle class="st2" cx="379.4" cy="818.2" r="13.6"/><circle class="st2" cx="423.4" cy="818.2" r="13.6"/><circle class="st2" cx="467.3" cy="818.2" r="13.6"/><circle class="st2" cx="511.2" cy="818.2" r="13.6"/><circle class="st2" cx="555.2" cy="818.2" r="13.6"/><circle class="st2" cx="599.1" cy="818.2" r="13.6"/><circle class="st2" cx="643" cy="818.2" r="13.6"/><circle class="st2" cx="686.9" cy="818.2" r="13.6"/><circle class="st2" cx="730.9" cy="818.2" r="13.6"/></g><g><circle class="st2" cx="137.8" cy="856.7" r="13.6"/><circle class="st2" cx="181.8" cy="856.7" r="13.6"/><circle class="st2" cx="225.7" cy="856.7" r="13.6"/><circle class="st2" cx="269.6" cy="856.7" r="13.6"/><circle class="st2" cx="313.6" cy="856.7" r="13.6"/><circle class="st2" cx="357.5" cy="856.7" r="13.6"/><circle class="st2" cx="401.4" cy="856.7" r="13.6"/><circle class="st2" cx="445.3" cy="856.7" r="13.6"/><circle class="st2" cx="489.3" cy="856.7" r="13.6"/><circle class="st2" cx="533.2" cy="856.7" r="13.6"/><circle class="st2" cx="577.1" cy="856.7" r="13.6"/><circle class="st2" cx="621" cy="856.7" r="13.6"/><circle class="st2" cx="665" cy="856.7" r="13.6"/><circle class="st2" cx="708.9" cy="856.7" r="13.6"/></g><g><circle class="st2" cx="115.9" cy="895.1" r="13.6"/><circle class="st2" cx="159.8" cy="895.1" r="13.6"/><circle class="st2" cx="203.7" cy="895.1" r="13.6"/><circle class="st2" cx="247.7" cy="895.1" r="13.6"/><circle class="st2" cx="291.6" cy="895.1" r="13.6"/><circle class="st2" cx="335.5" cy="895.1" r="13.6"/><circle class="st2" cx="379.4" cy="895.1" r="13.6"/><circle class="st2" cx="423.4" cy="895.1" r="13.6"/><circle class="st2" cx="467.3" cy="895.1" r="13.6"/><circle class="st2" cx="511.2" cy="895.1" r="13.6"/><circle class="st2" cx="555.2" cy="895.1" r="13.6"/><circle class="st2" cx="599.1" cy="895.1" r="13.6"/><circle class="st2" cx="643" cy="895.1" r="13.6"/><circle class="st2" cx="686.9" cy="895.1" r="13.6"/><circle class="st2" cx="730.9" cy="895.1" r="13.6"/></g></g></g><g class="st0"><defs><path id="SVGID_9_" d="M115.9-334.9h615v615h-615z"/></defs><use xlink:href="#SVGID_9_" overflow="visible" fill="#f2e94d"/><clipPath id="SVGID_10_"><use xlink:href="#SVGID_9_" overflow="visible"/></clipPath><g class="st5"><circle class="st2" cx="115.9" cy="-334.9" r="13.6"/><circle class="st2" cx="159.8" cy="-334.9" r="13.6"/><circle class="st2" cx="203.7" cy="-334.9" r="13.6"/><circle class="st2" cx="247.7" cy="-334.9" r="13.6"/><circle class="st2" cx="291.6" cy="-334.9" r="13.6"/><circle class="st2" cx="335.5" cy="-334.9" r="13.6"/><circle class="st2" cx="379.4" cy="-334.9" r="13.6"/><circle class="st2" cx="423.4" cy="-334.9" r="13.6"/><circle class="st2" cx="467.3" cy="-334.9" r="13.6"/><circle class="st2" cx="511.2" cy="-334.9" r="13.6"/><circle class="st2" cx="555.2" cy="-334.9" r="13.6"/><circle class="st2" cx="599.1" cy="-334.9" r="13.6"/><circle class="st2" cx="643" cy="-334.9" r="13.6"/><circle class="st2" cx="686.9" cy="-334.9" r="13.6"/><circle class="st2" cx="730.9" cy="-334.9" r="13.6"/><circle class="st2" cx="137.8" cy="-296.4" r="13.6"/><circle class="st2" cx="181.8" cy="-296.4" r="13.6"/><circle class="st2" cx="225.7" cy="-296.4" r="13.6"/><circle class="st2" cx="269.6" cy="-296.4" r="13.6"/><circle class="st2" cx="313.6" cy="-296.4" r="13.6"/><circle class="st2" cx="357.5" cy="-296.4" r="13.6"/><circle class="st2" cx="401.4" cy="-296.4" r="13.6"/><circle class="st2" cx="445.3" cy="-296.4" r="13.6"/><circle class="st2" cx="489.3" cy="-296.4" r="13.6"/><circle class="st2" cx="533.2" cy="-296.4" r="13.6"/><circle class="st2" cx="577.1" cy="-296.4" r="13.6"/><circle class="st2" cx="621" cy="-296.4" r="13.6"/><circle class="st2" cx="665" cy="-296.4" r="13.6"/><circle class="st2" cx="708.9" cy="-296.4" r="13.6"/><g><circle class="st2" cx="115.9" cy="-258" r="13.6"/><circle class="st2" cx="159.8" cy="-258" r="13.6"/><circle class="st2" cx="203.7" cy="-258" r="13.6"/><circle class="st2" cx="247.7" cy="-258" r="13.6"/><circle class="st2" cx="291.6" cy="-258" r="13.6"/><circle class="st2" cx="335.5" cy="-258" r="13.6"/><circle class="st2" cx="379.4" cy="-258" r="13.6"/><circle class="st2" cx="423.4" cy="-258" r="13.6"/><circle class="st2" cx="467.3" cy="-258" r="13.6"/><circle class="st2" cx="511.2" cy="-258" r="13.6"/><circle class="st2" cx="555.2" cy="-258" r="13.6"/><circle class="st2" cx="599.1" cy="-258" r="13.6"/><circle class="st2" cx="643" cy="-258" r="13.6"/><circle class="st2" cx="686.9" cy="-258" r="13.6"/><circle class="st2" cx="730.9" cy="-258" r="13.6"/></g><g><circle class="st2" cx="137.8" cy="-219.6" r="13.6"/><circle class="st2" cx="181.8" cy="-219.6" r="13.6"/><circle class="st2" cx="225.7" cy="-219.6" r="13.6"/><circle class="st2" cx="269.6" cy="-219.6" r="13.6"/><circle class="st2" cx="313.6" cy="-219.6" r="13.6"/><circle class="st2" cx="357.5" cy="-219.6" r="13.6"/><circle class="st2" cx="401.4" cy="-219.6" r="13.6"/><circle class="st2" cx="445.3" cy="-219.6" r="13.6"/><circle class="st2" cx="489.3" cy="-219.6" r="13.6"/><circle class="st2" cx="533.2" cy="-219.6" r="13.6"/><circle class="st2" cx="577.1" cy="-219.6" r="13.6"/><circle class="st2" cx="621" cy="-219.6" r="13.6"/><circle class="st2" cx="665" cy="-219.6" r="13.6"/><circle class="st2" cx="708.9" cy="-219.6" r="13.6"/></g><g><circle class="st2" cx="115.9" cy="-181.1" r="13.6"/><circle class="st2" cx="159.8" cy="-181.1" r="13.6"/><circle class="st2" cx="203.7" cy="-181.1" r="13.6"/><circle class="st2" cx="247.7" cy="-181.1" r="13.6"/><circle class="st2" cx="291.6" cy="-181.1" r="13.6"/><circle class="st2" cx="335.5" cy="-181.1" r="13.6"/><circle class="st2" cx="379.4" cy="-181.1" r="13.6"/><circle class="st2" cx="423.4" cy="-181.1" r="13.6"/><circle class="st2" cx="467.3" cy="-181.1" r="13.6"/><circle class="st2" cx="511.2" cy="-181.1" r="13.6"/><circle class="st2" cx="555.2" cy="-181.1" r="13.6"/><circle class="st2" cx="599.1" cy="-181.1" r="13.6"/><circle class="st2" cx="643" cy="-181.1" r="13.6"/><circle class="st2" cx="686.9" cy="-181.1" r="13.6"/><circle class="st2" cx="730.9" cy="-181.1" r="13.6"/></g><g><circle class="st2" cx="137.8" cy="-142.7" r="13.6"/><circle class="st2" cx="181.8" cy="-142.7" r="13.6"/><circle class="st2" cx="225.7" cy="-142.7" r="13.6"/><circle class="st2" cx="269.6" cy="-142.7" r="13.6"/><circle class="st2" cx="313.6" cy="-142.7" r="13.6"/><circle class="st2" cx="357.5" cy="-142.7" r="13.6"/><circle class="st2" cx="401.4" cy="-142.7" r="13.6"/><circle class="st2" cx="445.3" cy="-142.7" r="13.6"/><circle class="st2" cx="489.3" cy="-142.7" r="13.6"/><circle class="st2" cx="533.2" cy="-142.7" r="13.6"/><circle class="st2" cx="577.1" cy="-142.7" r="13.6"/><circle class="st2" cx="621" cy="-142.7" r="13.6"/><circle class="st2" cx="665" cy="-142.7" r="13.6"/><circle class="st2" cx="708.9" cy="-142.7" r="13.6"/></g><g><circle class="st2" cx="115.9" cy="-104.3" r="13.6"/><circle class="st2" cx="159.8" cy="-104.3" r="13.6"/><circle class="st2" cx="203.7" cy="-104.3" r="13.6"/><circle class="st2" cx="247.7" cy="-104.3" r="13.6"/><circle class="st2" cx="291.6" cy="-104.3" r="13.6"/><circle class="st2" cx="335.5" cy="-104.3" r="13.6"/><circle class="st2" cx="379.4" cy="-104.3" r="13.6"/><circle class="st2" cx="423.4" cy="-104.3" r="13.6"/><circle class="st2" cx="467.3" cy="-104.3" r="13.6"/><circle class="st2" cx="511.2" cy="-104.3" r="13.6"/><circle class="st2" cx="555.2" cy="-104.3" r="13.6"/><circle class="st2" cx="599.1" cy="-104.3" r="13.6"/><circle class="st2" cx="643" cy="-104.3" r="13.6"/><circle class="st2" cx="686.9" cy="-104.3" r="13.6"/><circle class="st2" cx="730.9" cy="-104.3" r="13.6"/></g><g><circle class="st2" cx="137.8" cy="-65.8" r="13.6"/><circle class="st2" cx="181.8" cy="-65.8" r="13.6"/><circle class="st2" cx="225.7" cy="-65.8" r="13.6"/><circle class="st2" cx="269.6" cy="-65.8" r="13.6"/><circle class="st2" cx="313.6" cy="-65.8" r="13.6"/><circle class="st2" cx="357.5" cy="-65.8" r="13.6"/><circle class="st2" cx="401.4" cy="-65.8" r="13.6"/><circle class="st2" cx="445.3" cy="-65.8" r="13.6"/><circle class="st2" cx="489.3" cy="-65.8" r="13.6"/><circle class="st2" cx="533.2" cy="-65.8" r="13.6"/><circle class="st2" cx="577.1" cy="-65.8" r="13.6"/><circle class="st2" cx="621" cy="-65.8" r="13.6"/><circle class="st2" cx="665" cy="-65.8" r="13.6"/><circle class="st2" cx="708.9" cy="-65.8" r="13.6"/></g><g><circle class="st2" cx="115.9" cy="-27.4" r="13.6"/><circle class="st2" cx="159.8" cy="-27.4" r="13.6"/><circle class="st2" cx="203.7" cy="-27.4" r="13.6"/><circle class="st2" cx="247.7" cy="-27.4" r="13.6"/><circle class="st2" cx="291.6" cy="-27.4" r="13.6"/><circle class="st2" cx="335.5" cy="-27.4" r="13.6"/><circle class="st2" cx="379.4" cy="-27.4" r="13.6"/><circle class="st2" cx="423.4" cy="-27.4" r="13.6"/><circle class="st2" cx="467.3" cy="-27.4" r="13.6"/><circle class="st2" cx="511.2" cy="-27.4" r="13.6"/><circle class="st2" cx="555.2" cy="-27.4" r="13.6"/><circle class="st2" cx="599.1" cy="-27.4" r="13.6"/><circle class="st2" cx="643" cy="-27.4" r="13.6"/><circle class="st2" cx="686.9" cy="-27.4" r="13.6"/><circle class="st2" cx="730.9" cy="-27.4" r="13.6"/></g><g><circle class="st2" cx="137.8" cy="11" r="13.6"/><circle class="st2" cx="181.8" cy="11" r="13.6"/><circle class="st2" cx="225.7" cy="11" r="13.6"/><circle class="st2" cx="269.6" cy="11" r="13.6"/><circle class="st2" cx="313.6" cy="11" r="13.6"/><circle class="st2" cx="357.5" cy="11" r="13.6"/><circle class="st2" cx="401.4" cy="11" r="13.6"/><circle class="st2" cx="445.3" cy="11" r="13.6"/><circle class="st2" cx="489.3" cy="11" r="13.6"/><circle class="st2" cx="533.2" cy="11" r="13.6"/><circle class="st2" cx="577.1" cy="11" r="13.6"/><circle class="st2" cx="621" cy="11" r="13.6"/><circle class="st2" cx="665" cy="11" r="13.6"/><circle class="st2" cx="708.9" cy="11" r="13.6"/></g><g><circle class="st2" cx="115.9" cy="49.5" r="13.6"/><circle class="st2" cx="159.8" cy="49.5" r="13.6"/><circle class="st2" cx="203.7" cy="49.5" r="13.6"/><circle class="st2" cx="247.7" cy="49.5" r="13.6"/><circle class="st2" cx="291.6" cy="49.5" r="13.6"/><circle class="st2" cx="335.5" cy="49.5" r="13.6"/><circle class="st2" cx="379.4" cy="49.5" r="13.6"/><circle class="st2" cx="423.4" cy="49.5" r="13.6"/><circle class="st2" cx="467.3" cy="49.5" r="13.6"/><circle class="st2" cx="511.2" cy="49.5" r="13.6"/><circle class="st2" cx="555.2" cy="49.5" r="13.6"/><circle class="st2" cx="599.1" cy="49.5" r="13.6"/><circle class="st2" cx="643" cy="49.5" r="13.6"/><circle class="st2" cx="686.9" cy="49.5" r="13.6"/><circle class="st2" cx="730.9" cy="49.5" r="13.6"/></g><g><circle class="st2" cx="137.8" cy="87.9" r="13.6"/><circle class="st2" cx="181.8" cy="87.9" r="13.6"/><circle class="st2" cx="225.7" cy="87.9" r="13.6"/><circle class="st2" cx="269.6" cy="87.9" r="13.6"/><circle class="st2" cx="313.6" cy="87.9" r="13.6"/><circle class="st2" cx="357.5" cy="87.9" r="13.6"/><circle class="st2" cx="401.4" cy="87.9" r="13.6"/><circle class="st2" cx="445.3" cy="87.9" r="13.6"/><circle class="st2" cx="489.3" cy="87.9" r="13.6"/><circle class="st2" cx="533.2" cy="87.9" r="13.6"/><circle class="st2" cx="577.1" cy="87.9" r="13.6"/><circle class="st2" cx="621" cy="87.9" r="13.6"/><circle class="st2" cx="665" cy="87.9" r="13.6"/><circle class="st2" cx="708.9" cy="87.9" r="13.6"/></g><g><circle class="st2" cx="115.9" cy="126.4" r="13.6"/><circle class="st2" cx="159.8" cy="126.4" r="13.6"/><circle class="st2" cx="203.7" cy="126.4" r="13.6"/><circle class="st2" cx="247.7" cy="126.4" r="13.6"/><circle class="st2" cx="291.6" cy="126.4" r="13.6"/><circle class="st2" cx="335.5" cy="126.4" r="13.6"/><circle class="st2" cx="379.4" cy="126.4" r="13.6"/><circle class="st2" cx="423.4" cy="126.4" r="13.6"/><circle class="st2" cx="467.3" cy="126.4" r="13.6"/><circle class="st2" cx="511.2" cy="126.4" r="13.6"/><circle class="st2" cx="555.2" cy="126.4" r="13.6"/><circle class="st2" cx="599.1" cy="126.4" r="13.6"/><circle class="st2" cx="643" cy="126.4" r="13.6"/><circle class="st2" cx="686.9" cy="126.4" r="13.6"/><circle class="st2" cx="730.9" cy="126.4" r="13.6"/></g><g><circle class="st2" cx="137.8" cy="164.8" r="13.6"/><circle class="st2" cx="181.8" cy="164.8" r="13.6"/><circle class="st2" cx="225.7" cy="164.8" r="13.6"/><circle class="st2" cx="269.6" cy="164.8" r="13.6"/><circle class="st2" cx="313.6" cy="164.8" r="13.6"/><circle class="st2" cx="357.5" cy="164.8" r="13.6"/><circle class="st2" cx="401.4" cy="164.8" r="13.6"/><circle class="st2" cx="445.3" cy="164.8" r="13.6"/><circle class="st2" cx="489.3" cy="164.8" r="13.6"/><circle class="st2" cx="533.2" cy="164.8" r="13.6"/><circle class="st2" cx="577.1" cy="164.8" r="13.6"/><circle class="st2" cx="621" cy="164.8" r="13.6"/><circle class="st2" cx="665" cy="164.8" r="13.6"/><circle class="st2" cx="708.9" cy="164.8" r="13.6"/></g><g><circle class="st2" cx="115.9" cy="203.2" r="13.6"/><circle class="st2" cx="159.8" cy="203.2" r="13.6"/><circle class="st2" cx="203.7" cy="203.2" r="13.6"/><circle class="st2" cx="247.7" cy="203.2" r="13.6"/><circle class="st2" cx="291.6" cy="203.2" r="13.6"/><circle class="st2" cx="335.5" cy="203.2" r="13.6"/><circle class="st2" cx="379.4" cy="203.2" r="13.6"/><circle class="st2" cx="423.4" cy="203.2" r="13.6"/><circle class="st2" cx="467.3" cy="203.2" r="13.6"/><circle class="st2" cx="511.2" cy="203.2" r="13.6"/><circle class="st2" cx="555.2" cy="203.2" r="13.6"/><circle class="st2" cx="599.1" cy="203.2" r="13.6"/><circle class="st2" cx="643" cy="203.2" r="13.6"/><circle class="st2" cx="686.9" cy="203.2" r="13.6"/><circle class="st2" cx="730.9" cy="203.2" r="13.6"/></g><g><circle class="st2" cx="137.8" cy="241.7" r="13.6"/><circle class="st2" cx="181.8" cy="241.7" r="13.6"/><circle class="st2" cx="225.7" cy="241.7" r="13.6"/><circle class="st2" cx="269.6" cy="241.7" r="13.6"/><circle class="st2" cx="313.6" cy="241.7" r="13.6"/><circle class="st2" cx="357.5" cy="241.7" r="13.6"/><circle class="st2" cx="401.4" cy="241.7" r="13.6"/><circle class="st2" cx="445.3" cy="241.7" r="13.6"/><circle class="st2" cx="489.3" cy="241.7" r="13.6"/><circle class="st2" cx="533.2" cy="241.7" r="13.6"/><circle class="st2" cx="577.1" cy="241.7" r="13.6"/><circle class="st2" cx="621" cy="241.7" r="13.6"/><circle class="st2" cx="665" cy="241.7" r="13.6"/><circle class="st2" cx="708.9" cy="241.7" r="13.6"/></g><g><circle class="st2" cx="115.9" cy="280.1" r="13.6"/><circle class="st2" cx="159.8" cy="280.1" r="13.6"/><circle class="st2" cx="203.7" cy="280.1" r="13.6"/><circle class="st2" cx="247.7" cy="280.1" r="13.6"/><circle class="st2" cx="291.6" cy="280.1" r="13.6"/><circle class="st2" cx="335.5" cy="280.1" r="13.6"/><circle class="st2" cx="379.4" cy="280.1" r="13.6"/><circle class="st2" cx="423.4" cy="280.1" r="13.6"/><circle class="st2" cx="467.3" cy="280.1" r="13.6"/><circle class="st2" cx="511.2" cy="280.1" r="13.6"/><circle class="st2" cx="555.2" cy="280.1" r="13.6"/><circle class="st2" cx="599.1" cy="280.1" r="13.6"/><circle class="st2" cx="643" cy="280.1" r="13.6"/><circle class="st2" cx="686.9" cy="280.1" r="13.6"/><circle class="st2" cx="730.9" cy="280.1" r="13.6"/></g></g></g><linearGradient id="SVGID_11_" gradientUnits="userSpaceOnUse" x1="319.783" y1="11.244" x2="319.783" y2="1028.7"><stop offset="0" stop-color="#f8ca46" stop-opacity="0"/><stop offset=".105" stop-color="#f6c746" stop-opacity=".021"/><stop offset=".194" stop-color="#f2bf44" stop-opacity=".039"/><stop offset=".277" stop-color="#ecb142" stop-opacity=".056"/><stop offset=".328" stop-color="#e8a640" stop-opacity=".066"/><stop offset=".357" stop-color="#e6a13f" stop-opacity=".175"/><stop offset=".4" stop-color="#e1933c" stop-opacity=".335"/><stop offset=".439" stop-color="#dc8339" stop-opacity=".479"/><stop offset=".92" stop-color="#c8322d"/></linearGradient><path class="st6" d="M0 405.6h639.5v485.5H0z"/><path class="st7" d="M398.2 288.7c-4.3 7.1 44.7-.4 6.9 62.9-7.7 12.9-6.6 13.9-7.6 25.6-3.9 42 2.8 99.5 6.9 112.3-10.8-33.7-113.6-57.9-113.6-57.9l-22-69.1-84.4-139c-9.7-15.4-18.1-25.7-25.2-30.9-7-5.3-14.9-7.9-23.7-7.9h-12.1v-54.8h226.3v54.8h-47.4c-7.3 0 6.5 19.5 2.3 21.3-4.2 1.7 11.2 18.3 11.2 21.4 0 3 23.3 27 24.4 30.6 1.1 3.5 37.4 33.6 39 36.2l-72.4-11.1 91.4 5.6z"/><path class="st7" d="M361.5 285.2l42.4-69.7c1.6-2.7 3-5.7 4-9.1 1.1-3.6 1.5-6.7 1.5-9.7 0-3.1-2.1-5.5-6.3-7.2-4.2-1.8-10-2.7-17.3-2.7h-14.4v-56.9H545v56.9h-12.1c-8.8 0-16.7 2.6-23.7 7.9-7.1 5.3-15.5 15.6-25.2 30.9l-86.6 138.3v7.2c-.8-2-2.4-4.2-5.1-6.5 14-11.3 14.2-27.6 14.2-27.6s-.7-29.3-36.1-27.3c4.8-13.9-3.2-21.5-8.9-24.5zm35.9 92v53.6c0 14.9 2 24.1 6 27.8 3.9 3.7 12.8 5.5 26.5 5.5H451v54.8H215.8V464h22c12.8 0 21.2-1.5 25.4-4.6 4.1-3.2 6.2-12.7 6.2-28.6v-67l-6.8-11.3s4.3 5.5 9 2c3.1 2.8 8.3 3.2 11.8-.7-11.3 18.2 5.4 39 21.3 30.7 0 0-7.8 20.9 15.8 15.5 1.2 9.1 28.2-20.2 47.5-31.4.9 6.7-7.5-25.8-3.6-21.4 6.6 7.3 4.7 50.8 2 25.5 7.2 9.1 21 8.8 6.7-8.1 9.2-8.1 12.4 22 12.4 22s9.4-3.4 11.9-9.4z"/><g><path class="st8" d="M324.8 335.2c34.4-16.5 2.5-48.6-13.1-30 5.3-15.7 23.3-14.5 34.4-6 12.7 9.1 12.8 32.3-17 46.4-22.6 10.7-42.1 2.5-60.7-14.7 5.2 6.9 7.4 12.6 2.8 18.6-6.1 8.2-17.4 8.1-22.6 1.1-4.2-5.7-2.8-16.2 4.6-17.1.1-.1.2 0 .2-.1 3-1.1 6.3.2 7.5 3 1.1 2.7-.3 5.9-3.3 7.1-2.6 1.1-5.7.1-7-2.2.6 6 9.4 10.6 15.2 4 4.9-5.6 4.3-10.6-4.2-21.2 0-.1-.1-.2-.1-.3-10.3-11.4-20.5-25.1-30.7-39.7-10.3-14.7-19.9-30.4-29.6-45 2.2 5.4 2.4 10.1-1.2 14.5-8 10.3-20 7.3-26.6-3-5.6-8.9-.4-22.9 9.8-20.5 3-.4 6 1.8 6.9 4.9.9 3.1-.8 5.9-3.7 6.4-2.9.5-6.1-1.7-7-4.8-.5-1.8-.2-3.4.7-4.6-9.8 6 3.8 24.8 12.4 15.9 6.1-6.1 4.4-13.3-1.3-29.1-3.4-5.4-7.1-10.4-11.2-15 1.1 12.9-8.3 27-22.3 25 19.9-10.2 17.7-31.6-1.9-44.7-8.3-5-16.5-8.6-26.2-10.2-9.7-1.6-20.8-1.2-33.7 1.8-.5.1-.4 0-.5-.3 15.2-5.7 28-7.4 39.1-6 11.1 1.4 20.5 5.7 29.1 12 5.8 2.4 11.3 4.3 16.3 5.8.1 0 .1 0 .1-.1 21.1 8.5 40.9-6.2 22.1-19.1 14.7.9 21.9 15.1 13 21.3-2.5 1.7-5.3 2.9-8.4 3.7 16.2 1.2 27.5-2.9 34.9-12.4 6.8-8.3 4.4-20-4.1-26.7-2.8-1.8-5.7-2.1-9.1-1.4-11.2 2.6-6 16.8 4.4 14.5-2.4-.3-4.2-2-4.2-4.2-.1-2.5 2.2-4.5 5-4.7 2.8-.2 5.2 1.7 5.3 4.2.1 1.6-1 3.1-2.6 3.9-5.3 6-14.4 5.4-18.7-.1-4.4-5.6-2.8-13.4 3.5-17.6-14.7.4-28.5 13.4-30.5 29.2-4.6-22.7 15.1-37 35-36.3 5.3.2 10.1 1.6 14.3 3.8-4.2-5.1-10.3-8.7-17.7-10.8-14.6-4.4-34.1-2.7-43.3.5 11.7-7.2 22.2-9 40.2-8.9 9.9.1 19 5 25.7 13.7 19.5 15.3 52 12.9 50.3 1-.7-5.2-9.3-7.6-14.5-4.4.5-.1 1.1-.1 1.8-.1 3.5 0 6.5 2.3 6.8 5 .3 2.7-2.4 4.9-5.9 5-2.7 0-5.3-1.3-6.4-3.3-6.4-9.2.7-15.7 10.7-15.6 5 0 13.5 3.4 15 12.1 1.2 6.4-.6 14.5-13.1 17.1-14.2 3.1-25.8 1.8-39-7.2 1.6 3.4 2.8 7.1 3.6 11.2 3.3 8.3 2.5 18.2-5.3 26.6-6.6 7.6-15.9 12-27.8 12.9-11.8.9-26.5-2.1-44.5-9.4 11.7 10.2 21.4 23.3 26.5 38.1 28.3 16.8 64.5-11.3 44.6-32.1 22.5 2.1 13.4 24.9.3 33.6-11.2 7.7-22.1 11.5-41.7 2.9l3.3 4.5c15.6 16.5 28.8 27.2 40.6 32 11.8 4.8 21.7 4.1 30.6-1.3 9.4-5.4 9-16.6 2.5-24.8-1.8-2-3.4-3.6-5-4.9-1.6-1.1-3.3-2.1-5.2-3-2.8-1-5.4-.8-8.1.3-10.5 4.2.2 18 9.7 11.7-.2 0-.3.1-.5.1-2.2.4-4.6-.8-5.2-2.7-.6-2 .7-4 3-4.4 2.3-.4 4.5.8 5.2 2.7.3 1.2 0 2.4-.9 3.2-2.9 6.9-11.9 7.8-17.8 3.2-5-4-6.1-10.4-2.8-15.2-6.6 2.2-12.7 7.4-16.2 15.1 1-20.9 29.9-32 47.7-15.5 19.6 16.7 15.2 33.7-.2 41.7-10.2 5.7-19.9 6.8-30.3 3.5-10.5-3.2-21.6-11.2-34.3-23.3 13.3 17.9 26.9 35.9 39.9 50.8 11.6 11.6 18.2 12 26.4 7.6 15.8-8.1-6.1-23.8-12.8-13.7.4-.4 1-.7 1.5-.9 2.2-.7 4.7.2 5.6 2.2.9 1.9-.2 4.1-2.3 4.8-2.2.8-4.7-.2-5.6-2.2-.5-1.2-.3-2.5.3-3.4 1.2-10.1 15.2-10.6 22.1-4.2 7.9 7.1 9.1 17.6-5.2 24.4-5.9 2.8-10.9 2.3-16-.6 16.7 14.7 32.9 21.9 48.6 14.4zm-114.8-73c-1.1.2-2.3-.5-2.7-1.6-.3-1.2.3-2.3 1.3-2.5 1.1-.3 2.3.5 2.7 1.6.4 1.2-.2 2.3-1.3 2.5zm-.9-5.1c-.8.2-1.7-.4-2-1.2-.3-.9.2-1.7 1.1-1.9.8-.1 1.7.4 2 1.3.2.8-.2 1.6-1.1 1.8zm-6.3 13.2c-1.5.3-3.2-.6-3.7-2.2s.2-3.1 1.7-3.4c1.5-.3 3.1.7 3.6 2.2.6 1.5-.1 3-1.6 3.4zm2-23c-.3 2.3-1.9 7.4-6 11.4-2.7 2.7 1.4 5.6 3.7 3.3 3.3-3.5 3.3-7.1 2.3-14.7zm-82.1-91.2c-.8 0-1.4-.6-1.3-1.4.1-.8.8-1.5 1.6-1.5s1.4.6 1.3 1.4c-.1.8-.8 1.5-1.6 1.5zm30.4-16.6c-.7.1-1.2-.5-1.2-1.1.1-.7.6-1.2 1.3-1.2.7 0 1.2.6 1.1 1.2.1.6-.5 1.1-1.2 1.1zm1.4-3.4c-1 0-1.8-.8-1.7-1.9 0-1 .9-1.7 1.9-1.7 1 0 1.8.8 1.7 1.7 0 1.1-.9 1.9-1.9 1.9zm21-1.1c-1.2 0-2.1-.9-2-2 0-1 1-2 2.2-2 1.1 0 2 .9 2 1.9-.1 1.1-1.1 2.1-2.2 2.1zm13.6 3.9c-1.5 0-2.7-1.1-2.7-2.5.1-1.4 1.3-2.5 2.7-2.5 1.5 0 2.7 1.1 2.6 2.4 0 1.4-1.2 2.6-2.6 2.6zm5.2-2.2c-1.1 0-2-.8-2-1.8s.9-1.9 2-1.9 2 .8 1.9 1.9c0 1-.9 1.8-1.9 1.8zm4.1-1.3c-.8 0-1.5-.5-1.5-1.3 0-.7.7-1.3 1.5-1.3s1.5.6 1.4 1.3c0 .7-.6 1.3-1.4 1.3zm-11.2 33.4c-.9.1-1.5-.5-1.5-1.3 0-.9.7-1.5 1.6-1.6.9 0 1.5.6 1.5 1.4 0 .8-.7 1.4-1.6 1.5zm.6-4.5c-1.1 0-2-.8-2-1.8s.9-2 2.1-2c1.1 0 2 .8 2 1.8s-.9 1.9-2.1 2zm1.5-5c-1.3.1-2.3-.9-2.3-2.1 0-1.2 1.1-2.2 2.5-2.3 1.3-.1 2.3.9 2.3 2.1-.1 1.2-1.2 2.2-2.5 2.3zm-18.1-20.9c-.8.1-1.5-.6-1.4-1.4 0-.7.7-1.4 1.5-1.4.9 0 1.5.7 1.5 1.4-.1.8-.8 1.5-1.6 1.4zm8.1-7.6c-1.6 0-2.8-1.2-2.8-2.7.1-1.5 1.4-2.7 3-2.7 1.6.1 2.8 1.3 2.8 2.8 0 1.4-1.4 2.6-3 2.6zm-24 .7c-1.6 0-2.8-1.2-2.8-2.8 0-1.5 1.4-2.8 3-2.7 1.6 0 2.8 1.2 2.8 2.7-.1 1.6-1.5 2.9-3 2.8zm-30.6 0c-1.6 0-2.8-1.3-2.7-2.9.1-1.6 1.5-2.9 3.1-2.9s2.8 1.3 2.6 2.9c0 1.6-1.4 2.9-3 2.9zm-14.6 7.2c-1.4 0-2.4-1.1-2.3-2.5.1-1.4 1.3-2.6 2.6-2.6 1.4 0 2.4 1.1 2.3 2.5-.1 1.4-1.3 2.6-2.6 2.6zm15.9 14.1c-1.1 0-2-.9-1.9-2 .1-1.1 1-2 2.1-2s2 .8 1.9 2c0 1-1 1.9-2.1 2zm3.4-4c-1.3.1-2.3-1-2.3-2.3.1-1.4 1.2-2.4 2.5-2.5 1.3 0 2.3 1.1 2.2 2.4 0 1.3-1.2 2.4-2.4 2.4zm5-4.4c-.3 0-.6 0-.9-.1 8.6 5 16.2-10.4 6.4-12.5-6.6-1.5-10.6 4.1-17.1 16.1-2.3 6.8-8.6 12.9-19.6 20.8 1.7-2.1 3.4-4.3 5.2-6.4 16.1-11.9 12.6-30.8 1.8-31.2-6.2-.3-8.8 7.9-.1 12-8.4.6-12.9-2.6-11.6-9.9.8-4.3 4.9-8.2 12.6-8.1 5.6.1 10.6 2.9 12.3 11.3.2 1 .3 1.9.4 2.7 4.2-9.2 9.6-14.3 17.2-13.8 10.1.7 12.8 9.5 8.7 16.8-3.4 6.4-15 8.8-17.8 1.2-.4-.6-.7-1.3-.6-2.2.1-1.9 1.7-3.4 3.6-3.4 1.9 0 3.3 1.4 3.2 3.3-.2 1.8-1.8 3.4-3.7 3.4zm54.9 9.7c-1.9.1-3.4-1.3-3.4-3.1s1.5-3.3 3.4-3.3c1.9-.1 3.4 1.3 3.4 3.1 0 1.7-1.6 3.2-3.4 3.3zm51.7-24.6c-.8-.1-1.4-.6-1.4-1.4 0-.7.7-1.2 1.5-1.2.8.1 1.5.6 1.4 1.3 0 .8-.7 1.4-1.5 1.3zm5.3 1.8c-1.2-.1-2.1-.9-2.1-1.9.1-1 1.1-1.7 2.2-1.6 1.1 0 2 .9 1.9 1.9.1.9-.9 1.7-2 1.6zm5.9 1.6c-1.4-.1-2.5-1.1-2.5-2.3.1-1.2 1.2-2.1 2.6-2 1.4.1 2.5 1.1 2.5 2.3 0 1.1-1.1 2.1-2.6 2zm7.3 1c-1.8-.1-3.2-1.3-3.1-2.7 0-1.5 1.5-2.6 3.2-2.4 1.7.1 3.1 1.4 3.1 2.8.1 1.3-1.4 2.4-3.2 2.3zm9.1 1c-2.5-.1-4.5-1.8-4.6-3.8.1-2 2.1-3.6 4.6-3.4 2.5.1 4.4 1.9 4.4 3.9.1 1.9-1.9 3.4-4.4 3.3zm-96.9 97.2c-1.2.1-2.4-.8-2.8-2 .1-1.3 1.1-2.5 2.3-2.7 1.2-.1 2 .8 2 2.1.3 1.3-.4 2.5-1.5 2.6zm6.1-3.1c-1.7.2-3.1-1.2-2.8-3.1.2-2 1.9-3.8 3.8-4 1.8-.2 3 1.1 2.7 3.1-.4 1.9-1.9 3.7-3.7 4zm45.6-50.5c-1.9.1-3.8-1.1-4.1-2.8-.1-1.7 1.5-3.2 3.4-3.4 1.9-.1 3.5 1.1 3.6 2.8.3 1.7-1 3.2-2.9 3.4zm-11.8-22.3c-1.3.1-2.3-.8-2.4-1.9 0-1.1 1-2.2 2.3-2.2 1.3 0 2.3.9 2.4 2 0 1.2-1 2.1-2.3 2.1zm-5.6 4.2c-1.3.1-2.3-.9-2.3-2 0-1.2 1.1-2.2 2.3-2.2 1.3-.1 2.4.9 2.4 2s-1 2.1-2.4 2.2zm-5.2 5.1c-1.3.1-2.4-.8-2.3-2 0-1.3 1.1-2.2 2.3-2.3 1.3 0 2.3.8 2.3 2.1 0 1.1-1 2.1-2.3 2.2zm-3.5 6.3c-1.3.1-2.4-.8-2.3-2.1 0-1.2 1.1-2.2 2.4-2.3 1.3-.1 2.4.8 2.3 2.1 0 1.1-1.1 2.1-2.4 2.3zm4.9 7.2c-1.9.1-3.8-1.2-4-2.9.1-1.8 1.6-3.4 3.6-3.5 1.9-.1 3.5 1.2 3.4 3 .2 1.8-1.1 3.3-3 3.4zm-2.2 6.9c-1.7.1-3.3-1-3.6-2.5-.3-1.5.8-2.9 2.5-3 1.7-.2 3.3 1 3.7 2.5.2 1.5-.9 2.9-2.6 3zm-7.3.9c-1.3.1-2.6-.8-2.8-2-.3-1.2.6-2.2 1.9-2.3 1.3-.1 2.6.8 2.8 2 .2 1.2-.7 2.2-1.9 2.3zm-7.6-1.3c-1.1.1-2.1-.7-2.3-1.7-.3-1 .4-1.9 1.5-2 1.1 0 2.1.7 2.3 1.7.3 1-.4 1.9-1.5 2zm73.8-11.9c-.9 0-1.8-.5-1.9-1.3 0-.8.7-1.4 1.7-1.5.9-.1 1.7.5 1.7 1.3.1.7-.5 1.4-1.5 1.5zm.2 4.3c-1 .1-1.8-.5-1.9-1.3-.1-.8.5-1.5 1.5-1.6.9-.1 1.7.5 1.9 1.3 0 .8-.6 1.5-1.5 1.6zm1.5-8.7c-1.7.1-3.2-1-3.2-2.4-.1-1.5 1.3-2.7 3-2.8 1.7 0 3.2 1 3.3 2.4 0 1.4-1.3 2.7-3.1 2.8zm-1.8 15.1c-1.4.1-2.7-.8-2.9-2-.1-1.2.8-2.2 2.3-2.3 1.4-.1 2.7.7 2.9 1.9.1 1.2-.9 2.2-2.3 2.4zm5.6 15.4c-1.9.2-3.4-.9-3.5-2.4-.1-1.6 1.3-3.1 3.2-3.3 1.8-.2 3.4.9 3.5 2.5.1 1.5-1.3 3-3.2 3.2zm-7.3-5.5c-2.6.3-4.9-1.3-5.1-3.5-.2-2.2 1.7-4.2 4.3-4.5 2.6-.2 4.9 1.4 5.1 3.5.2 2.2-1.7 4.2-4.3 4.5zm-71.7 33.9c-1.5.2-2.8-1-2.5-2.7.3-1.8 1.9-3.4 3.5-3.6 1.6-.2 2.7 1 2.3 2.8-.3 1.7-1.7 3.2-3.3 3.5zm.4-7.6c-1.3.2-2.1-.8-2.1-2-.2-1.3.7-2.4 1.9-2.6 1.3-.2 2.5.7 2.6 2 .1 1.3-1.1 2.4-2.4 2.6zm-2.1-6.1c-1 .1-2-.6-2.1-1.6-.1-1 .5-1.9 1.6-2 1-.1 2 .6 2.1 1.6.1.9-.6 1.9-1.6 2zm41.8 17.1c-.9.1-1.9-.4-2.1-1.3-.2-.9.3-1.7 1.2-1.8.9-.2 1.9.4 2.1 1.2.2.9-.4 1.7-1.2 1.9zm4.8-1.6c-1.1.2-2.3-.6-2.7-1.7-.3-1.1.3-2.2 1.5-2.4 1.2-.2 2.4.6 2.7 1.7.4 1.1-.3 2.2-1.5 2.4zm5.6-2.9c-1.4.2-2.8-.6-3.2-2-.3-1.3.5-2.5 1.9-2.8 1.4-.2 2.8.6 3.2 1.9.3 1.4-.6 2.6-1.9 2.9zm4.8-4.7c-1.7.3-3.4-.7-3.8-2.2.6-1.7 2.8-3.4 4.4-3.6 1.7-.3 2.3.9 1.5 2.7.5 1.5-.5 2.9-2.1 3.1zm4.9-7.4c-2.1.3-2.7-1.1-1.6-3.1.4-1.9 2.1-3.6 4.1-3.9 2.1-.3 3.7 1 3.2 2.9-1.2 1.9-3.7 3.8-5.7 4.1zm3.6 30c-.9.2-1.9-.3-2.3-1.2-.3-.9.3-1.7 1.3-1.9 1-.1 2 .3 2.3 1.2.3.9-.3 1.7-1.3 1.9zm-3 4.4c-.9.2-1.9-.4-2.3-1.3-.3-.9.3-1.8 1.3-2 1-.2 1.9.4 2.2 1.2.2 1-.3 1.9-1.2 2.1zm35.3 15.8c-1 .2-2-.2-2.4-1-.3-.9.2-1.7 1.2-1.9.9-.3 2 .2 2.3 1 .4.8-.2 1.6-1.1 1.9zm-1.6-5c-1 .3-2.1-.3-2.3-1.1-.3-.8.2-1.7 1.2-1.9.9-.2 2 .2 2.2 1.1.3.8-.2 1.7-1.1 1.9zm-4.8-3.2c-1 .2-2-.3-2.3-1.1-.3-.8.3-1.6 1.3-1.9.9-.2 1.9.3 2.2 1.2.3.8-.2 1.6-1.2 1.8zm-5.8-.6c-1 .3-1.9-.3-2.2-1.1-.3-.9.2-1.7 1.2-2 .9-.2 2 .3 2.3 1.2.2.8-.2 1.7-1.3 1.9zm-6.8.2c-.9.3-1.9-.3-2.2-1.1-.3-.9.2-1.7 1.2-1.9.9-.2 2 .3 2.3 1.1.2.8-.3 1.7-1.3 1.9zm-6.4-.3c-1 .2-2-.3-2.3-1.2-.3-.8.3-1.7 1.3-2 1-.2 2 .3 2.2 1.2.2.8-.3 1.7-1.2 2zM250 255c-.9.2-1.9-.3-2.2-1.2-.3-.8.3-1.8 1.2-2 1-.2 2 .3 2.2 1.2.3.9-.2 1.8-1.2 2zm-5.7-1.4c-1 .2-1.9-.3-2.2-1.2-.3-.9.2-1.8 1.2-2 .9-.2 2 .3 2.3 1.2.2.9-.4 1.8-1.3 2zm-34.8 43.7c-1.9.5-3.9-.6-4.7-2.6-.7-1.9.2-3.9 2.1-4.4 1.9-.5 3.9.6 4.6 2.5.8 2-.1 3.9-2 4.5zm2.9-7.5c-1.5.4-3.1-.5-3.7-2-.6-1.6.1-3.1 1.6-3.5 1.5-.4 3.2.5 3.8 2 .6 1.5-.2 3.1-1.7 3.5zm1.6-6.9c-.9.3-2-.3-2.4-1.3-.4-1 .1-2 1-2.2.9-.3 2 .3 2.3 1.3.5.9 0 1.9-.9 2.2zm55.9 27.7c-1 .3-2-.1-2.4-1-.4-.8.1-1.8 1-2.1.9-.3 2.1.1 2.4 1 .4.8 0 1.8-1 2.1zm5.3 3.2c-.9.4-2 0-2.4-.9-.4-.9 0-1.8 1-2.2.9-.3 2 .1 2.4 1 .4.9-.1 1.9-1 2.1zm5.9.5c-.9.4-2-.1-2.4-.9-.4-.9.1-1.8 1.1-2.1.9-.3 2 .1 2.4.9.3.9-.2 1.9-1.1 2.1zm5.3-1.2c-1 .3-2-.1-2.4-.9-.4-.8 0-1.8 1-2.1 1-.3 2.1 0 2.4.9.4.8-.1 1.8-1 2.1zm4.2-3.7c-1 .3-2-.1-2.4-.8-.4-.8.1-1.8 1-2.1 1-.4 2.1 0 2.4.9.3.7-.1 1.6-1 2zM263 331.7c-1 .4-2.1-.1-2.4-.9-.4-.9.1-1.9 1-2.3.9-.3 2 0 2.4.9.4 1-.1 2-1 2.3zm-3.1-4.3c-1 .4-2-.1-2.4-1-.3-.9.1-1.9 1.1-2.2 1-.3 2 .1 2.4 1 .3.9-.1 1.9-1.1 2.2zm-3.7-4.1c-1 .3-2-.1-2.4-1-.3-.8.1-1.9 1.1-2.2.9-.3 2 .1 2.4 1 .2.9-.2 1.8-1.1 2.2zm28.2-35.5c-1 .3-2-.1-2.4-1-.4-.8 0-1.7 1-2 .9-.3 2 .1 2.4 1 .4.8-.1 1.7-1 2zm5.1 2.4c-.9.3-2-.2-2.4-.9-.4-.9.1-1.8 1-2.1.9-.3 2 .1 2.4 1 .5.8 0 1.7-1 2zm6.5 1.4c-1.2.4-2.6-.1-3.1-1.1-.5-1.1.1-2.2 1.3-2.6 1.2-.4 2.6.1 3.1 1.2.5 1-.1 2.1-1.3 2.5zm8-1.1c-1.5.5-3.2-.1-3.7-1.3-.6-1.3.1-2.7 1.5-3.1 1.4-.4 3.1.2 3.7 1.4.6 1.1 0 2.5-1.5 3zm4.7-6.3c-2.2.7-4.7-.2-5.6-2-.9-1.8.1-3.9 2.2-4.5 2.2-.7 4.7.2 5.7 2 .9 1.8-.1 3.8-2.3 4.5zm23 43.1c-.9.4-2 .1-2.4-.6-.3-.8.1-1.7 1-2 .9-.4 2-.1 2.4.6.4.8-.1 1.6-1 2zm3.2-4.9c-1.2.5-2.5.1-3-.8s.1-2 1.3-2.5 2.5-.1 3 .8-.1 2.1-1.3 2.5zm-.8-4.9c-1.4.6-3 .1-3.6-.9-.6-1.1.1-2.4 1.5-3 1.4-.6 2.9-.1 3.5 1 .6 1.1 0 2.4-1.4 2.9zm-3.4-5.4c-1.5.6-3.3.1-4-1.1-.7-1.3.1-2.7 1.6-3.3 1.5-.6 3.3-.1 4 1.1.7 1.2 0 2.7-1.6 3.3zm-8.7.2c-2.2.8-4.7.1-5.6-1.7-.9-1.8.1-3.9 2.4-4.8 2.2-.8 4.7 0 5.6 1.7.9 1.8-.2 3.9-2.4 4.8zm-7.4 9.5c-3 1.2-6.3.2-7.5-2.3-1.2-2.5.2-5.5 3.2-6.6 2.9-1.2 6.3 0 7.6 2.4 1.1 2.4-.3 5.3-3.3 6.5zm-79-194.4c4.6 2.9 15.6 10.3 30.3 10.1 9.5 0 9.7 6.1 1.3 6.2-12.1.2-19.5-3.5-31.6-16.3zm18.7 25.5c5.5 3.9 19.2 9.2 39.9 3.9 11.9-2.9 13.4 5.1 2.5 6.9-15.5 2.8-32.4 4.5-42.4-10.8zm-25.7-13.6c-5.4-.4-18.1-2-30.4 4.5-8.1 4.3-10.9-1.4-3.9-5 10.1-5.2 17.9-4.9 34.3.5zm-79.1 7.1c-.7.3-.9-.1 0-.9 3-2.7 6.4-6.9 10.9-13.5 4.1-5.9 10-7.1 11.3-4.4 3.8 7.8-16.5 15.1-22.2 18.8zm66.4 44.8c3.7-2 12.9-6.2 15.9-15.2 2.6-5.7 8.2-3.3 6.2 1.6-2.5 7.3-7.8 10.4-22.1 13.6zM127 175.4c5.5 3.8 21.8 11.5 27.9 30.6 3.6 12.4 13.6 6.1 10.7-4.6-4.9-15.4-14.4-21.2-38.6-26zm131 45.4c.6-1.7 3.7-6.1 6.4-11.3.4-3.1 3.7-3.8 3.6-1-2.2 4.2-5.7 7.2-10 12.3zm-3.5 5.1c3.9-1 12.9-3.8 22.6-.1 6.4 2.3 7.9-2.5 2.4-4.5-8.1-3.1-13.8-2-25 4.6zm-44 9.9c3.5 1.8 12.1 4.7 22 3.5 6.5-.7 5.9 5.7.3 6.4-8.2 1.1-13.4-1.5-22.3-9.9zm9.8 10.3c7.4 4.1 24.4 14 45.9 12 14-1.3 15 7.6 2.9 8.9-17.4 2-28.9-2.9-48.8-20.9zm-19.4-31.8c2.6 2.8 6.7 8.3 15.9 10.1 6.6.9 6 5.4.3 4.6-8.3-1.2-13.8-3.4-16.2-14.7zm-7.4-10.1c5.4 3.1 17.5 10.8 33.4 9.4 10.1-.9 5.3 6.9-3 7.7-12.1 1.1-17.5-3.1-30.4-17.1zm-9.4-9c8.9 3.1 28.9 11 51.9 5 15.1-3.7 16.6 6.1 3.5 9.5-18.8 5.2-31 1.8-55.4-14.5zm21.5 67.5c7.1 3.7 9 13.9 1.6 16.9-11.6 4.7-18.8-11.1-17.4-18.5 2.3-.1 4.9-.8 6.8-2.5-2 11 3.4 18.2 8 15.6 3.2-1.8 5-7.6 1-11.5zm41.9 47.5c.8 2.2 1.8 7.4.2 13.5-1.1 4 1.8 4.3 2.7.9 1.3-5 1.4-8.4-2.9-14.4zM109.9 158.6c1.1-2.6 5-9.6 2.8-16.4-1.4-4.3 2.7-5.6 3.9-1.7 1.7 5.5-.6 12.9-6.7 18.1zm-13.7 14.8c-.6.7-1.2.5-.6-.5 3-4.9 3.8-9.2 1.9-15.8-3.6-12.4 13.7-13.8 10.4-2-1.8 6.5-8.4 15.3-11.7 18.3zm52.5-25.2c-.8.6-.7 1 .8.7 5.1-.7 11.7-.5 21.9.6 9.1 1 15.3-3.6 13.6-7.1-4.3-9.8-28.2 3.4-36.3 5.8zm-35.5 15.5c7.4-3.5 32.7-9.9 56.3-2.3 14.6 4.5 21.7-3.5 8.9-7.5-9.1-3-20.9-3.9-32.5-2.4-11.7 1.5-23.4 5.6-32.7 12.2zm-5.9 5.5c3.3-.6 13.1-2.4 24.5-2.1 11.4.3 24.4 2.6 34.3 10 14.5 8.7 26.1-.8 14.3-7.9-8.4-5.2-20-8.4-32.7-8.7-12.7-.3-26.7 2.2-40.4 8.7zm131.4 131.1c-.3 4.5.1 11.9-9.3 19.5-6.1 5-.4 11.2 5 6.7.2-.2.4-.3.6-.5.6 2.9 5.3 3.4 7.9-.7 4.3-6.9 3.3-13.5-4.5-27.8.1.5.2 2.4.3 2.8zm-12.1-19.8c1.5 4.5 5.6 14.9.8 25.1-3.1 6.7 3.5 9.1 6.2 3.3 3.9-8.4 2.1-14.9-7-28.4zm-12.8-19.3c2 7.3 8.5 24.3.8 40.7-5 10.8 5.7 14.9 10 5.4 6.2-13.4 3.4-23.9-10.8-46.1zm81.7 20.3c.8-9.9 15.3-15.1 22-9 14.4 11.9-3.7 25.7-15.6 26.8-1.9-2.7-2.1-2.8-4.6-4.7 17.9-1.9 22.4-13.8 15.3-18.4-4.8-3.2-13.9-.9-17.1 5.3zm-37.9 16.9c1.8 1.3 6.4 3.6 12.1 3.2 3.7-.3 3.7 2.7.5 3-4.7.3-7.8-.3-12.6-6.2zm-10.8-12.7c3.4 2.4 11.1 8.6 21.4 8.2 6.7-.3 6.7 5.1.9 5.4-8.4.4-13.5-2.7-22.3-13.6zm37.6 39.2c5.4 3.4 18.1 6.3 29.6 1.3 10-4.4 13.1 6 3.4 8.5-8.6 2.1-18.7 0-33-9.8zM235 270c5.4 4.1 17.7 14.3 34.2 13.9 10.7-.4 10.8 8.1 1.4 8.6-13.5.4-21.7-4.8-35.6-22.5zm47.7 94c.1-.9.5-.9.9.1 2.2 5.8 5.2 10.6 10.4 15.9 9.2 9.2-5.7 17.1-9.3 6-2.1-6.5-3.3-17.9-2-22zm-6-22c-.3-.8-1-.6-.9.4.7 5.4-.5 9.8-5.8 16-10 11.9 7.3 17.3 9.8 4.2 1.4-7.1-1.1-17.1-3.1-20.6zm33.2 35.3c-.5-.7-.1-1.2 1-.8 3.9 1.2 9.7 1.4 18.9.6 8.2-.8 11.3 4.8 8.3 8.9-8.6 12-22.5-5.2-28.2-8.7zM281.8 345c-.4-.3-.6-.8-.6-.4 2.2 34.4 25.9 30.5 21.7 57.3-2.3 14.3 12.8 8.9 14-.1 2.6-20.7-8.6-21.7-21.3-31.7-7.4-6.1-12-15.1-13.8-25.1zm5.7 9.1c3.7 4.8 19.2 15.7 40.7 10 13.4-3.7 14.6 5.9 2.9 9.4-17 4.9-36.8-2.3-43.6-19.4zm-2.2-6.6c4.3 2.4 25.6 13.3 48-.6 13.8-8.4 19.3 2.7 6.7 9.7-18.1 10.2-41 8.6-54.7-9.1zm34.8-1.6s-25.9 9.1-53-21c-13.5-15.9-27.9-34.2-39-50-11.1-15.7-18.4-28.7-20.7-32.3-4.4-7.2 34.7 46.8 34.7 46.8s19 25.3 34.8 41.3c16.1 15.2 43.2 15.2 43.2 15.2z"/></g><g class="st9"><path class="st10" d="M625.8 670.1c-56.2 0-95.6-33.6-95.6-83.2 0-23.7 13.5-51.4 37.9-60.9-14.6-8.4-23.7-23.3-23.7-44.1 0-41.2 35-70 82.5-70 35.8 0 62.8 17.1 72.6 37.9-5.1 3.6-40.9 25.2-46.7 28.5-5.8-11.3-12.8-16.1-23.7-16.1-13.1 0-23 11.7-23 23.7 0 12.8 10.6 23.7 23.7 23.7h17.1v48.9h-23.4c-15.3 0-27.7 13.5-27.7 27 0 17.1 12.4 30.3 30.6 30.3 26.6 0 44.5-21.2 44.5-55.1v-2.2-48.9h80.6v48.9h-23.7v15c.1 55.4-39.7 96.6-102 96.6"/></g><g><path class="st11" d="M203.7 687.3c-2.6-3.2-6.2-4.8-10.6-4.8-4.1 0-7.2 1.4-9.3 4.1-2 2.7-3.1 6.2-3.1 10.5 0 4.2 1 7.7 3.1 10.5 2 2.8 5.1 4.1 9.2 4.1 2.3 0 4.4-.5 6.4-1.5s3.6-2.3 4.8-4l8.1 6.7c-2.1 2.7-4.8 4.8-8.2 6.4-3.4 1.5-7.1 2.3-10.9 2.3-5.1 0-9.6-1.2-13.4-3.5s-6.6-5.4-8.5-9c-1.8-3.7-2.8-7.6-2.8-12 0-6.7 2.2-12.4 6.7-17.2 4.5-4.8 10.4-7.2 17.8-7.2 3.9 0 7.5.7 10.8 2.1 3.4 1.4 6.1 3.5 8.3 6.2l-8.4 6.3zM258.6 721.2h-35.8v-47.6l11-.6v39h25.5l-.7 9.2zM281.3 721.2h-11v-47.6l11-.6v48.2zM329.5 721.2h-35.8V673h35.6l-.7 9.3h-23.9v10.2h22.6l-.7 9.3h-21.9V712h25.5l-.7 9.2zM385.9 721.2h-11c-1.5-.5-3-1.5-4.6-3s-3.3-3.6-5-6.1c-1.7-2.5-3.3-4.9-4.6-7.2-1.3-2.2-3-5.1-4.9-8.5-2-3.4-3.5-6-4.5-7.7l.1 32.4h-11V673h10.9c1.9.8 4.1 3.1 6.7 6.8 2.6 3.8 5.6 8.6 9.1 14.6s6.1 10.3 8 13v-33.7l11-.6v48.1zM418.6 681.1v40.1h-11v-40.1h-13.2l.7-8.1h36.3l-.7 8.1h-12.1zM466 684c-3.3-1.2-6.5-1.8-9.8-1.8-1.8 0-3.4.4-4.5 1.2-1.2.8-1.8 1.7-1.8 2.7 0 1.4.6 2.5 1.7 3.5s3.7 2.2 7.6 3.7c8.3 3 12.4 7.8 12.4 14.2 0 2.3-.4 4.2-1.2 5.9s-1.8 3.1-3 4.1c-1.2 1-2.8 1.9-4.5 2.5-1.8.6-3.6 1.1-5.4 1.3-1.8.2-3.7.4-5.8.4-2.6 0-5.2-.3-7.9-1s-4.9-1.5-6.7-2.6l2.3-9.6c4 2 8.1 3 12.3 3 2 0 3.7-.2 5-.5 1.3-.3 2.2-.8 2.7-1.4.5-.6.8-1.1 1-1.6.1-.4.2-1 .2-1.7 0-1-.7-2-2.1-2.9s-3.8-2-7.3-3.2c-4.9-1.7-8.3-3.7-10.2-6.1-1.9-2.4-2.8-5.2-2.8-8.4 0-4.2 1.8-7.4 5.4-9.6 3.6-2.3 7.8-3.4 12.7-3.4 3.9 0 8.1.8 12.7 2.4l-3 8.9zM149.6 745.3c3 3.3 4.5 7.4 4.5 12.1 0 3.2-.6 6.2-1.9 8.9s-3.1 4.9-5.7 6.6c-2.5 1.7-5.5 2.5-8.8 2.5-4 0-7.8-.4-11.3-1.3v-32.7c1-.3 2.7-.6 5-.8 2.3-.2 4.4-.3 6.3-.3 5 0 8.9 1.7 11.9 5zm-5.6 19.9c1.4-2 2.1-4.6 2.1-7.8 0-2.9-.7-5.3-2.2-7.2-1.5-1.9-3.6-2.8-6.3-2.8-1.3 0-2.6.1-4 .3v20c1.1.3 2.4.5 3.9.5 3 .1 5.1-.9 6.5-3zM174.4 751.1c1.6 1 2.9 2.2 3.8 3.7.9 1.5 1.5 3.2 1.9 4.9.4 1.7.5 3.5.3 5.2h-16.6c.4 1.2 1 2.2 1.9 3 .9.8 2.1 1.2 3.5 1.2 1.1 0 2-.1 2.6-.2.6-.1 1.4-.4 2.3-.8l3.5 5.2c-2.3 1.6-5.2 2.3-8.6 2.2-2.1 0-4-.4-5.7-1.1-1.7-.7-3-1.7-4-2.9s-1.8-2.6-2.3-4.1c-.5-1.5-.8-3.2-.8-4.9 0-3.6 1.1-6.6 3.3-9.1 2.2-2.5 5.3-3.7 9.4-3.7 2 0 3.8.5 5.5 1.4zm-1.6 8.9c0-.1-.1-.2-.1-.4s-.1-.5-.4-.9-.5-.8-.8-1.1-.7-.6-1.3-.9c-.6-.3-1.3-.4-2-.4-2.5 0-4 1.3-4.6 3.8h9.2zM214.4 752.5c2.4 1.9 3.6 4.3 3.6 7.2v15.4h-7.2v-13.5c0-1.5-.4-2.7-1.3-3.6s-2.1-1.4-3.6-1.4c-.9 0-1.7.1-2.3.3.5 1.4.8 2.9.8 4.3v13.9h-7.2v-13.5c0-1.5-.4-2.7-1.3-3.6s-2.1-1.4-3.6-1.4c-.6 0-1.1.1-1.6.2v18.4h-7.2v-23.1c.2-.1.8-.4 1.9-.8s1.8-.7 2.2-.9c.4-.1 1.1-.3 2.1-.4 1-.2 2-.3 3.1-.3 2.1 0 4 .4 5.8 1.3 2.3-.9 4.9-1.3 7.9-1.3 2.9 0 5.5.9 7.9 2.8zM239 752.6c2 1.9 3 4.3 3 7.2v13.7c-1.2.5-2.1.9-2.7 1.1-.6.2-1.5.5-2.7.7-1.2.2-2.5.4-3.8.4-3.8 0-6.7-.8-8.7-2.3-2-1.5-3-3.7-3-6.5 0-1.6.4-2.9 1.2-4 .8-1.1 1.9-2 3.1-2.5 1.3-.6 2.5-1 3.7-1.2 1.2-.2 2.4-.4 3.6-.4.9 0 1.6 0 2.3.1-.1-1-.5-1.8-1-2.3s-1.5-.8-2.8-.8c-2.2 0-4 .3-5.5.8l-2.3-5c2.3-1.1 5-1.7 8.1-1.7 3-.2 5.5.8 7.5 2.7zm-9.8 16.2c.9.5 2.1.7 3.6.7 1 0 1.8 0 2.4-.1V764c-1-.1-1.8-.1-2.3-.1-1.5 0-2.7.2-3.6.7-.9.4-1.4 1.1-1.4 2.1s.4 1.7 1.3 2.1zM265.1 752.5c2.4 1.9 3.6 4.3 3.6 7.2v15.4h-7.2v-13.5c0-1.5-.4-2.7-1.3-3.6-.9-.9-2.1-1.4-3.6-1.4-.9 0-2.1.2-3.6.5v18h-7.2V752c3.9-1.6 7.7-2.4 11.2-2.4 3.1.1 5.8 1 8.1 2.9zM295.6 773.2c-3.9 1.6-7.7 2.4-11.3 2.4-4 0-7.2-1.3-9.4-3.8s-3.3-5.6-3.3-9.2c0-3.6 1.1-6.6 3.3-9.1s5.3-3.7 9.3-3.7c1.2 0 2.6.1 4.1.4v-9.4l7.2-.5v32.9zm-15-6c.9 1.2 2.2 1.8 3.9 1.8 1.5 0 2.8-.3 3.9-.8v-11.1c-1.3-.4-2.6-.6-3.9-.6-1.6 0-2.9.6-3.9 1.9-.9 1.3-1.4 2.8-1.4 4.5 0 1.6.5 3 1.4 4.3zM316.9 751.1c1.6 1 2.9 2.2 3.8 3.7.9 1.5 1.5 3.2 1.9 4.9.4 1.7.5 3.5.3 5.2h-16.6c.4 1.2 1 2.2 1.9 3 .9.8 2.1 1.2 3.5 1.2 1.1 0 2-.1 2.6-.2.6-.1 1.4-.4 2.3-.8l3.5 5.2c-2.3 1.6-5.2 2.3-8.6 2.2-2.1 0-4-.4-5.7-1.1-1.7-.7-3-1.7-4-2.9s-1.8-2.6-2.3-4.1c-.5-1.5-.8-3.2-.8-4.9 0-3.6 1.1-6.6 3.3-9.1 2.2-2.5 5.3-3.7 9.4-3.7 2 0 3.9.5 5.5 1.4zm-1.5 8.9c0-.1-.1-.2-.1-.4s-.1-.5-.4-.9-.5-.8-.8-1.1-.7-.6-1.3-.9c-.6-.3-1.3-.4-2-.4-2.5 0-4 1.3-4.6 3.8h9.2zM361.5 773.2c-3.9 1.6-7.7 2.4-11.3 2.4-4 0-7.2-1.3-9.4-3.8s-3.3-5.6-3.3-9.2c0-3.6 1.1-6.6 3.3-9.1s5.3-3.7 9.3-3.7c1.2 0 2.6.1 4.1.4v-9.4l7.2-.5v32.9zm-14.9-6c.9 1.2 2.2 1.8 3.9 1.8 1.5 0 2.8-.3 3.9-.8v-11.1c-1.3-.4-2.6-.6-3.9-.6-1.6 0-2.9.6-3.9 1.9-.9 1.3-1.4 2.8-1.4 4.5 0 1.6.4 3 1.4 4.3zM382.9 751.1c1.6 1 2.9 2.2 3.8 3.7.9 1.5 1.5 3.2 1.9 4.9.4 1.7.5 3.5.3 5.2h-16.6c.4 1.2 1 2.2 1.9 3 .9.8 2.1 1.2 3.5 1.2 1.1 0 2-.1 2.6-.2.6-.1 1.4-.4 2.3-.8l3.5 5.2c-2.3 1.6-5.2 2.3-8.6 2.2-2.1 0-4-.4-5.7-1.1-1.7-.7-3-1.7-4-2.9s-1.8-2.6-2.3-4.1c-.5-1.5-.8-3.2-.8-4.9 0-3.6 1.1-6.6 3.3-9.1 2.2-2.5 5.3-3.7 9.4-3.7 1.9 0 3.8.5 5.5 1.4zm-1.6 8.9c0-.1-.1-.2-.1-.4s-.1-.5-.4-.9-.5-.8-.8-1.1-.7-.6-1.3-.9c-.6-.3-1.3-.4-2-.4-2.5 0-4 1.3-4.6 3.8h9.2zM427.5 773.2c-3.9 1.6-7.7 2.4-11.3 2.4-4 0-7.2-1.3-9.4-3.8s-3.3-5.6-3.3-9.2c0-3.6 1.1-6.6 3.3-9.1s5.3-3.7 9.3-3.7c1.2 0 2.6.1 4.1.4v-9.4l7.2-.5v32.9zm-15-6c.9 1.2 2.2 1.8 3.9 1.8 1.5 0 2.8-.3 3.9-.8v-11.1c-1.3-.4-2.6-.6-3.9-.6-1.6 0-2.9.6-3.9 1.9-.9 1.3-1.4 2.8-1.4 4.5 0 1.6.5 3 1.4 4.3zM448.8 751.1c1.6 1 2.9 2.2 3.8 3.7.9 1.5 1.5 3.2 1.9 4.9.4 1.7.5 3.5.3 5.2h-16.6c.4 1.2 1 2.2 1.9 3 .9.8 2.1 1.2 3.5 1.2 1.1 0 2-.1 2.6-.2.6-.1 1.4-.4 2.3-.8l3.5 5.2c-2.3 1.6-5.2 2.3-8.6 2.2-2.1 0-4-.4-5.7-1.1-1.7-.7-3-1.7-4-2.9s-1.8-2.6-2.3-4.1c-.5-1.5-.8-3.2-.8-4.9 0-3.6 1.1-6.6 3.3-9.1 2.2-2.5 5.3-3.7 9.4-3.7 2 0 3.8.5 5.5 1.4zm-1.6 8.9c0-.1-.1-.2-.1-.4s-.1-.5-.4-.9-.5-.8-.8-1.1-.7-.6-1.3-.9c-.6-.3-1.3-.4-2-.4-2.5 0-4 1.3-4.6 3.8h9.2zM481.3 750c-.3 2.6-1 5.6-2.2 8.9s-2.3 6-3.2 7.9l-4.2 8.4h-7.2l-4.2-8.4c-1-2-2-4.6-3.2-7.9-1.2-3.3-1.9-6.3-2.2-8.9h7.2c.5 4.8 2.6 10.8 6.1 18 3.5-7.3 5.5-13.3 6-18h7.1zM486.7 747c-.8-.8-1.1-1.7-1.1-2.8 0-1 .4-1.9 1.1-2.7s1.7-1.1 2.7-1.1 2 .4 2.7 1.1 1.1 1.7 1.1 2.7c0 1.1-.4 2-1.1 2.8-.8.8-1.7 1.1-2.7 1.1s-2-.4-2.7-1.1zm6.3 28.2h-7.2V750h7.2v25.2zM511 756.4c-1.8-.6-3.3-.9-4.4-.9-2 0-3 .6-3 1.9 0 .9 1.2 1.8 3.6 2.6 4.5 1.6 6.8 4.3 6.8 8.1 0 2.3-.9 4.1-2.7 5.4s-4 2-6.6 2c-1.3 0-2.7-.2-4.3-.6s-2.8-.8-3.5-1.4l2.1-5.4c1.4.9 3.3 1.3 5.7 1.3 2.2 0 3.3-.5 3.3-1.6 0-.7-.3-1.2-.8-1.6-.5-.4-1.8-1-3.8-1.6-3.9-1.3-5.8-3.7-5.8-7.2 0-5.1 3.1-7.6 9.2-7.6 2 0 4.1.4 6.3 1.2l-2.1 5.4z"/></g></svg>