<svg id="layers" xmlns="http://www.w3.org/2000/svg" viewBox="0 0 159.8 220.7"><style>.st0{fill:#2d2d2d}.st1{fill:#fff}.st2,.st3{fill:#383836;stroke:#fff;stroke-width:2.0575;stroke-miterlimit:10}.st3{fill:#fff;stroke:#383836;stroke-width:.8689}</style><path class="st0" d="M140 3.5c-.3-.5-.5-.9-.8-1.2-2.2-2.7-4.7 0-6.1 3.1-2.1 4.8-5.4 8.1-8.7 12.2-3.5 4.4-6.8 8.9-9.7 13.8-6.3 10.4-11 22.1-13.3 34.1-1.5 7.8-2.4 16-2.5 23.9-.1 10.6-1.6 6 8.4 13.6 2.3 1.7 6.1 2.7 8.6.9 3.1-2.2 1.4-4.7 2.7-7.5 3.2-6.7 10.2-12.7 14-19.6 3.3-5.9 6.3-12.2 8.6-18.5 3.9-10.6 6-22.3 4.6-33.5-.7-7.4-2.3-14.7-5.8-21.3zM72.1 23.2c-3.1-4.3-6.9-7.3-10.5-11-2.2-2.2-1.7-4.4-3.3-6.9-1.2-2-2.5-2.3-3.8-1.5C50 6.7 46 21.6 45.4 27.9c-3 34.9 24.7 61.8 27.9 68.5 1.4 2.8-.3 5.3 2.7 7.5 2.5 1.8 6.4.8 8.6-.9 10-7.6 8.5-3 8.4-13.6-.1-23.8-7.1-46.9-20.9-66.2z"/><path class="st0" d="M126.2 129.3c0 .2 2.2-.4 2.4-.5-1.3-2.8-3.2-5-4.2-8-1-3.2-1.2-6.5-1.9-9.7-1.2-5.7-1.2-10.7-5.1-15.3-3.4-4-7.5-6.8-12.7-7.7-8.8-1.5-18.9-1.7-26.5 3.8-7.8 5.6-11 17-10.6 26.3.2 5.1-2.3 6.5-4.5 10.7.6 0 1.6.5 2.5.4-1 4.3-5.2 8.5-5.1 13.2 1.4-.2 2.5 0 3.8-.8-.9 2.3-1.3 5-1.2 7.5.5-.3 1.6-.5 2.2-.8 2 11.5 15 20.2 26.4 22.1 14.1 2.4 32.5-8.3 34.9-22.1.6.4 1.7.5 2.2.8.1-2.5-.3-5.2-1.2-7.5 1.2.8 2.4.6 3.8.8 0-4.6-4.2-8.8-5.2-13.2z"/><path class="st1" d="M91.3 80.8c1.1 2.2 2.9 3.9 4.2 5.9-3.3 0-9.2.4-11 3.4 1.9.9 4.7.6 6.4 1.8-3.4 2.8-6.8 5.9-6.3 10.8 1.8-1.7 3.3-3.6 5.7-4.6-1 2.7-.8 5.4.8 7.8-1-1.5 2.6-7.1 3.5-8.2 1.8-2 5.4-2.7 6.9-4.8 3.4-4.7-6-11.5-10.2-12.1z"/><path class="st0" d="M138.2 179.7c1.3.2 2.6.5 4 .5-3.1-6.7-9.3-10.5-13.9-15.1.8.1 1.7-.2 2.5-.1-1.7-3.8-5.6-6.3-8.2-8.9-2.3-2.3-5.3-6.5-8.2-6.8l-18.7-1.6v-.1l-.8.1-.9-.1v.1l-17.7 1.5c-2.9.3-5.9 4.5-8.2 6.8-2.6 2.6-6.5 5.1-8.2 8.9.8-.1 1.7.2 2.5.1-4.6 4.6-10.8 8.4-13.9 15.1 1.3.1 2.7-.3 4-.5-5.2 5.1-9.8 11.3-13 18.7-2.7 6.1-6 13.9-7.1 21.1h126c-1.1-7.2-4.4-15.1-7.1-21.1-3.3-7.3-7.8-13.6-13.1-18.6zM124.5 113.7c-2.8-.5-7.4-1.4-13.9-.9-4.3.3-8.4.7-12.5 1.8-.8.2-4.1.2-4.8 0-4.2-1.1-7.8-1.3-12.1-1.5-6.5-.4-11.1.5-13.9 1.1-2.5.5-8.1.8-8.1 3.7.1 4.4 2 2.4 2.9 4.6 1.1 2.9 1.3 8.5 3.2 11.1 1.9 2.5 4.6 3.7 7.7 4.3 3.4.7 8 .6 11-.9 2.9-1.4 4.9-3.5 6.4-6.4 1.3-2.5 2.5-5.3 2.7-8.1.2-3 5.5-2.6 5.8-.2.3 2.8 1.5 5.5 2.8 8.1 1.5 2.8 3.5 4.9 6.5 6.3 3.1 1.5 7.5 1.6 10.9.8 3.1-.7 6-2 7.8-4.5 1.8-2.6 1.9-8.2 3-11.1.8-2.2 2.8-.2 2.8-4.6 0-2.9-5.7-3.1-8.2-3.6z"/><path class="st2" d="M126.2 113.5c-.6-.1-1.1-.2-1.6-.2-1.7-.3-5.3-1-10-1-1.3 0-2.7.1-4 .2-3.9.3-8.3.6-12.6 1.8-.3.1-1.3.1-2.4.1-1.1 0-1.9-.1-2.1-.1-4-1-7.4-1.3-11.5-1.5h-.7c-1.1-.1-2.2-.1-3.3-.1-5.2 0-8.9.8-10.8 1.2-.4.1-1 .2-1.6.3-2.9.5-6.9 1.1-6.9 3.8 0 2.8.8 3.3 1.8 3.7.5.2.8.3 1.1 1 .4 1.1.7 2.7 1 4.3.5 2.6 1 5.3 2.2 6.9 1.7 2.3 4.2 3.7 7.9 4.5 1.4.3 2.9.4 4.4.4 2.7 0 5.2-.5 7-1.4 2.9-1.4 5-3.5 6.6-6.6 1.3-2.6 2.6-5.3 2.8-8.3.1-1.3 1.3-1.7 2.3-1.7 1.2 0 2.5.6 2.6 1.6.3 2.5 1.2 5.1 2.9 8.2 1.6 3 3.8 5.1 6.7 6.5 2.3 1.1 4.9 1.3 6.7 1.3 1.5 0 3-.2 4.4-.5 3.8-.8 6.4-2.4 8.1-4.7 1.2-1.6 1.6-4.3 2.1-6.9.3-1.6.6-3.2 1-4.3.3-.7.6-.8 1.1-1 1-.4 1.8-1 1.8-3.7-.1-2.8-4.1-3.4-7-3.8zm4.8 6.7c-.5.2-1.2.5-1.6 1.5-.4 1.2-.7 2.8-1 4.5-.4 2.5-.9 5.1-1.9 6.6-1.5 2.2-4 3.6-7.5 4.4-1.3.3-2.8.4-4.2.4-2.4 0-4.7-.4-6.4-1.2-2.7-1.3-4.7-3.2-6.3-6.1-1.6-3-2.5-5.5-2.8-7.9-.2-1.5-1.9-2.4-3.5-2.4-1.5 0-3.1.8-3.2 2.5-.2 2.8-1.4 5.5-2.7 7.9-1.5 2.9-3.5 4.9-6.2 6.2-1.7.8-4 1.3-6.6 1.3-1.4 0-2.9-.1-4.2-.4-3.6-.7-5.8-2-7.4-4.2-1.1-1.5-1.6-4-2-6.5-.3-1.7-.6-3.2-1.1-4.4-.4-1-1.1-1.3-1.6-1.5-.7-.3-1.2-.5-1.3-2.9 0-2 3.5-2.5 6.1-3 .6-.1 1.2-.2 1.6-.3 1.8-.4 5.5-1.2 10.6-1.2 1.1 0 2.1 0 3.2.1h.7c4 .2 7.4.5 11.3 1.5.5.1 1.9.1 2.3.1.5 0 2 0 2.6-.2 4.2-1.2 8.6-1.5 12.4-1.8 1.3-.1 2.7-.2 4-.2 4.7 0 8.2.7 9.8 1 .5.1 1 .2 1.6.3 2.6.4 6.2.9 6.2 2.9.3 2.4-.2 2.7-.9 3z"/><path class="st3" d="M76.5 115.1c-5 .2-11.9 1.3-11.8 7 .1 5.3.9 13.7 10.6 14.5 8.9.7 11.7-4.3 11.7-4.3 2.9-3.4 4.3-9.3 3.5-12.5-1.4-5.1-9.4-4.9-14-4.7zM115.4 114.9c-4.6-.2-12.6-.4-14 4.7-.8 3.2.6 9.1 3.5 12.5 0 0 2.8 5 11.7 4.3 9.8-.8 10.5-9.2 10.6-14.5.2-5.6-6.8-6.7-11.8-7z"/><path class="st1" d="M95.3 144.6c-.2 4.3-1.4 11.3-7.1 11.2-1.7 0-3.5-.8-4.7-2-.5-.5-.6-2.1-1.6-2.2-1.4-.2-.5 1.3-.1 1.9 1.4 1.9 3.8 3.2 6.1 3.4 6.4.4 8.2-7.3 8.3-12.2.1-.8-.9-.8-.9-.1z"/><path class="st1" d="M109.8 151.5c-.7-.2-1.6 2.1-2.1 2.6-1.1 1.1-2.7 1.7-4.3 1.8-5.7.3-7-6.9-7.2-11.2 0-.6-1-.7-1 0 .2 5 1.8 12.4 8.2 12.3 2.3-.1 5.1-1.5 6.2-3.6.2-.5.9-1.7.2-1.9zM133.6 21.5c-1 3.3-3.1 5.4-5.5 8-3.6 3.9-6.8 7.8-9.5 12.4-5.1 8.8-8.2 18-9.3 28-.6 5.7-.4 11.6.2 17.3 0 .3.1.7.1 1 17-10.4 28-28.4 29.9-47.4.7-7.1 2.5-13.5-.8-20.5-2.1-4.8-4.1-2.3-5.1 1.2zM58 19.4c-1.2-4.8-4.1-.8-4.9 1.7-1.3 4.2-1.5 9.8-1.3 14.1 1 20.5 12.3 41.9 30.7 52.8 0-.3.1-.7.1-1 2-19.2-2.9-38.4-15.6-53.7-3.8-4.5-7.5-8.1-9-13.9z"/><path class="st0" d="M82.7 80.5c-.1-.6-.3-1.2-.5-1.7-.4.4-.5 1.2-.4 1.7-.1-.7-.7-1.4-.9-2.1-.2-.8-.1-1.7-.1-2.6-1.5.6-.9 4.3-.1 5.2-.5-.6-1.3-1.3-1.5-2-.7.6-.7 2.6 0 3.2-.9-.8-1.2-2.1-2.2-2.9-.9-.7-2.4-.9-3.5-.5.4-.2 2.5 1.1 2.8 1.4.6.5 1.5 2.5-.1 1.9-.6-.2-.8-.9-1.1-1.4-.2-.3-.4 1-.4 1.1.1.5.6 1.2.9 1.6 1 1.2 1.4 2 1.3 3.6 0 .2-.4 2.7-.6 2.7l3.4.1c3.3-1 3.7-2.5 3.4-5.1 0-1.1-.2-3.2-.4-4.2zM115 78.2c-1.1 1.2-1.2 3-2.4 4.1.3-1.1.9-2.5 0-3.3 0 .3-.1 2.5-.8 2.3-1.3-.5.3-3.9.4-4.8 0-.1-1.3.8-1.8 2.4-.2.6-.4 1.2-.5 1.8-.1-.9 0-2-.1-2.7-.4 1-.5 2.2-.8 3.2-.2.8-.4 2-.1 2.9-.4 2.6.4 4.8 3.1 5.6l3.2-.1c1.8-6 1.3-6.9 1.3-9.6-.5.2-.7 2-2 2.3.2-.1.6-1.8.7-2.1.5-1.3 1.4-1.9 2.5-.6.2-1.5-1.4-2.8-2.7-1.4z"/><path class="st1" d="M97.8 136.5c-.8.1-1.4.4-2.1.5-.7-.2-1.3-.4-2.1-.5-2-.2-4.4.1-4.7 2.7-.3 2.2 5.1 6.7 6.8 7.4 1.7-.6 7-5.1 6.8-7.4-.3-2.6-2.6-2.9-4.7-2.7z"/><path class="st0" d="M40.3 216.1c.1 0 1.2-.2 1.3-.1-.8-3-3.4-5.2-4.1-8.3.1-.1 1-.3 1-.2-.8-1.4-1.7-2.8-2.4-4.1.5.4 1.2.8 1.8.8-.8-2.7-6.9-8.5-4.4-7.1 2.8 1.6-3-5.1-3.2-6.6.5.2 1.1 0 1.7.4-2.4-4.4-5.5-7-5-12.2 1-10 3.4-17.2-2.4-19.3-1.2-.4.4-12 .7-16.7.1-2 1-9-1.7-10.2-4.4-1.9-4.7 8.5-5.1 10.7-.3 2.1-1.6 12.6-2.1 14.8-.4-.7-5.8-22.4-9-23.8-2.4-1.1-4.3 0-4.6 2.3-.6 3.9 8.4 21.4 6.8 23.7-1.9-2.7-4.4-1.7-5.3.2-.9 1.3.4 3 .3 3.5.2-.5-5.4-1.5-2.5 7.1 1.1 3.3 3.6 6.4 5.7 9.1.9 1.2 2.5 2.3 3.2 3.5 1.3 2.1.2 5.4.2 7.7.3-.1.8 0 1.1 0 .7 2.8-.8 8-.3 8.8.4-.2 1.2.1 1.4-.4-.2 2.3-.9 4.6-.8 6.9.7-.2 1.4-.5 2-.7.1 2.3-1.3 4.5-1 6.8.5-.3 1.1-.4 1.6-.6.4 1.9.1 4.6-.2 6.5.3-.2 1-.4 1.3-.6-.2.1-.3.9-.4 1.7h26.2v-.1c-.1-1.5-1.2-2.4-1.8-3.5z"/><path class="st1" d="M57.1 184.2c-3-2.5-6.1.1-7.3 3.1-1.1 2.8.3 6.9 1.5 9.5 1.5 3.5 4.8 7.1 4.1 11.2-.3 1.4-1.2 4-2.9 4.2-.8.1-1.3-.2-1.6-.7-.7-.9-1-2.5-2.1-3-1.2-.5-2.2-.4-2.9.7-1.3 1.9-1.1 5.3.8 6.7 1.8 1.4 4.4 1.6 6.5.6 6.1-2.9 7.2-10.9 4.1-16.4-1.3-2.4-3.1-4.5-4-7.1-.6-1.6-1.6-6.3 1.4-6.5 2.4-.1-.4 2.4.7 3.1 1.1.7 3.2-.5 3.8-1.4.6-1.6-1-3.1-2.1-4z"/><path class="st1" d="M59.8 179.5c-1.3-.2-3.5-1-4.7-.2-1.4.9-.6 2.2.6 2.6 1.9.6 4.7.6 6.7.6h.2c0 1.7.2 6.5.6 14.4.2 3.2.2 6.4.3 9.7 0 2.9-.5 6.3 0 9.1.2 1.3 1.6 3.1 2.7 1.2 1-1.7.4-3.9.3-5.7-.2-4.9 0-10.1-.9-14.8-.7-4.2-.6-13.7-.6-13.7s6.1 1.1 6.9.1c.4-.4.6-2.4.2-2.9-1.1-1.8-10.3-.1-12.3-.4zM80.7 203.9c-.7-5.2-1-10.7-1.6-15.9-.2-2-.3-4-.6-6-.1-1 0-4.5-1.7-3.8-.7.3-.6 1.1-.7 1.7-.8 3.9-1.9 7.7-2.8 11.6-.5 2-1.1 4-1.5 6.1-.3 1.7-3.5 13.8-.5 14.4 3.3.7 1-5.7 2.9-6.3.7-.2 2.5 0 3.2.3 1.4.6 1.4 1.8 1.4 3.1 0 1.5-.1 6.1 2.3 6.2 1 0 1.8-1.7 1.9-2.5 0-1.9-1.4-4.1-1.7-6-.3-1-.4-1.9-.6-2.9zm-3.1-.9c-.1.3-.2.5-.3.7-.3.6-.9.8-1.8.3-2-1-1.1-3.3-.7-4.8.5-2.2.7-4.4.9-6.6.1-.6.4-3.9 1-4.1.3-.1.9 7.6.9 8.1.2 2.1.6 4.3 0 6.4z"/><path class="st1" d="M94.3 168.2c-4.4-1.7-6.2 10.3-6.6 12.8-.1.8-.3 5.7-1.7 3.1-.7-1.2-.6-2.9-.9-4.2-.9-3.4-2.6-7-4.7-9.8-1.2-1.5-5.4-3.5-4.9.1.2 1.3 1.4 2.1 2.4 2.8 4.3 3.2 5.4 10.8 7 15.6.3.8.6 1.1.9 1.7 1.4 2.9.9 21 .5 22.3-.5 1.5-1.8 3.6-.5 4.9 1.6 1.6 4.2.6 4.3-1.8 0-2.3-.1-4.6-.3-6.9-.2-2.8-.5-5.6-.6-8.5v-8.5c0-3.6 1.3-7.3 2.3-10.6.7-2.5.8-5.4 2.3-7.6.7-1.4 3.1-4.4.5-5.4zM106 212.1c-1 .6-.9 1.8-2.5 1.5-4.7-.8-4.2-9.2-4.5-12.8-.4-5.4.1-11.1 2.1-16.1.3-.8 1.1-2.2 2.1-2.2 1.2 0 2.5 2.8 4 1.2 1.7-1.9.7-4.9-1.5-5.7-1.9-.6-4.7-.2-6.2 1.2-2.4 2.2-3.1 6.2-3.7 9.2-1 4.8-.6 9.8-.3 14.7.1 1.2.3 2.5.3 3.7.7 12.7 11.1 12.3 12.7 10.1 1-1.4 0-6.3-2.5-4.8z"/><path class="st1" d="M112.6 183c-2.7.3-3.5 1.7-4.2 4-1.1 4-1.2 8.2-1 12.4.2 3.4 1.7 21.1 9.3 13.9 2.6-2.5 2.6-7.5 2.9-10.8.3-4.1.4-8.6-.3-12.7-.5-3.4-2.2-7.2-6.7-6.8zm4.4 20.1c.1 2.2-.2 4.4-1.1 6.5-1.3 3-4.2.9-4.9-1.4-.8-2.7-.8-5.6-.8-8.4 0-2.1-.3-4.2-.2-6.3 0-.7.1-1.4.2-2.1.2-1.1.3-3.4 1.2-4.1 1.4-1.1 4-.9 5 .6.8 1.3.3 3.2.3 4.6 0 1.2.6 2.2.7 3.4 0 2.5-.6 4.8-.4 7.2zM130.6 182.5c-2.1-2.5-7.2-3.5-8.6.2-1.3 3.3-1 7.5-.6 10.9 0 .4.5 5 .4 5 0 0 .1.1.1.3v2c-.1 3.7-.3 7.6.6 11.2.5 2.1 1 4.7 3.5 5.5 2 .7 4.3-.2 5.4-1.9 1.8-2.7 1.4-6.4 1.6-9.4.4-5-.4-9.8-.5-14.8-.1-3 .2-6.5-1.9-9zm-.5 25.1c-.3 1.5 0 4.4-1.1 5.7-1.1 1.2-2.8.1-3.4-1.1-1-2-1-4.3-1.2-6.5-.1-2.8-.7-5.9-.3-8.7.1-1 .2-2.1.3-3.1.2-2 .3-4 .5-6 .1-1.2.1-3.2 1.9-3.1 1.5.1 2.6 2 3 3.1 1 2.4.4 5.8.6 8.4.3 3.5.4 7.8-.3 11.3z"/><path class="st1" d="M144 210.8c-2.7.1-5.3.1-5.4-3.3 0-6.4.5-12.9 0-19.3-.4-4.5-1.5-9.4-4-13.3-1.1-1.7-2.7-3.7-4.8-4.3-1.7-.5-6.4.4-7.1 2.2-.8 1.9.4 4.1 2.7 4 2.4-.2 3.7-3.4 6.2-1.4 1.9 1.5 2.5 4.7 3 6.9 1.7 7.5-.3 15.1.5 22.7.2 2.3-.6 7.3.9 9.2 1.5 2 5.9.7 8 .8 1.9.1 4.6.6 4.1-2.4-.3-2.3-2.3-1.8-4.1-1.8z"/><path class="st0" d="M77 133.8c-.1 0-.2.1-.3.1v.1c.1 0 .2.2.3 0v-.2zM109.6 128.4c.1 0 .2.1.2.2.1-.1.2-.2.3-.2l-.1-.1c-.2 0-.4-.1-.4.1z"/><path class="st1" d="M100.8 105.6c-.1.2-.2.2-.4.1.1.2.2.3.2.5h.2c-.1-.3.2-.5 0-.6zM124.5 80.6c.1 0 .2.1.2.2.1-.1.2-.2.3-.2l-.1-.1c-.1 0-.3-.1-.4.1zM84.2 90.3c-.1 0-.2.1-.4.1v.2c.2 0 .3.2.4 0 0-.1-.1-.2 0-.3zM80.1 86.7c0 .2-.1.2-.3.3.1.1.3.2.3.4l.2-.1c-.1-.3.1-.6-.2-.6zM73 84.8c.2 0 .3 0 .3.2.1-.2.1-.4.2-.5l-.1-.1c-.1.1-.4.1-.4.4zM74.6 89.5c.2 0 .3 0 .3.2.1-.2.1-.4.2-.5l-.1-.1c-.2.2-.5.2-.4.4zM72.4 91.4c-.1 0-.2.1-.4.1v.2c.2 0 .3.2.4 0-.1-.1-.1-.2 0-.3zM71.3 93.2c.2 0 .3 0 .3.2.1-.2.1-.3.2-.4l-.1-.1c-.2.1-.5.1-.4.3zM84 81.4v.1c.1.1.2.3.4.2-.1-.1 0-.2 0-.3-.1 0-.3.1-.4 0zM88 76.5c.1 0 .2.1.2.3.1-.1.2-.3.3-.3l-.1-.2c-.1.1-.4 0-.4.2zM89.5 71.2c.5 0 .9.6 1.3.1-.3-.2-.9-.5-1.2-.5l-.1.4zM51.8 12.8c-.1.1-.2.1-.3.1 0 .1.2.3.1.4h.2c0-.2.2-.4 0-.5zM59.7 13.4c-.1.1-.2.1-.3.1 0 .1.2.3.1.4h.2c0-.2.2-.4 0-.5zM53.4 16.9c-.1.1-.2.2-.4.1 0 .1.2.3.1.4h.2c0-.2.3-.4.1-.5zM49.4 18.8c-.1.2-.3.2-.5.2.1.2.3.4.2.7h.3c0-.4.4-.7 0-.9zM55.3 9c-.1.2-.3.2-.5.2.1.2.3.4.2.7h.3c0-.4.4-.7 0-.9zM86.8 69.9c-.1.1-.2.1-.3.1 0 .1.2.3.1.4h.2c0-.2.2-.4 0-.5zM85.5 71.6c.1 0 .2.1.2.3.1-.1.2-.3.3-.3v-.2c-.2.1-.4 0-.5.2zM57.9 11.2c.1 0 .2.1.2.3.1-.1.2-.3.3-.3V11c-.2.1-.4-.1-.5.2zM79.8 80.9c.1 0 .2.1.2.3.1-.1.2-.3.3-.3l-.1-.2c-.1.1-.3-.1-.4.2zM117.3 109.3c.1.1.1.2 0 .4.2.2.3-.1.5-.2l-.1-.2h-.4zM114.7 103.2c0-.1.1-.1.1-.1-.1-.1-.3-.1-.3-.1.2 0 .1.2.2.2zM110.9 83c0-.1.1-.1.1-.1-.1-.1-.3-.1-.3-.1.1 0 0 .2.2.2zM116.7 102.8l-.1.1c.1.1 0 .3.1.3 0-.1.1-.1.2-.2 0-.1-.2-.1-.2-.2zM107.5 109.4l-.2.1c.1.2 0 .5.2.5 0-.2.1-.2.3-.2-.1-.2-.2-.3-.3-.4zM118.4 99.7c0 .1-.1.3 0 .3 0-.1.1-.1.1-.1.1-.1 0-.1-.1-.2zM121.9 107.5c0 .1-.1.3 0 .3 0-.1.1-.1.1-.1 0-.1 0-.1-.1-.2zM113.3 103.1c0 .1 0 .2-.1.3l.1.1c.1-.1.3-.1.2-.3 0 .1-.1 0-.2-.1zM111 100.9c0 .1 0 .2-.1.3l.1.1c.1-.1.3-.1.2-.3-.1 0-.1 0-.2-.1zM113 83.1c0 .1 0 .2-.1.3l.1.1c.1-.1.3-.1.2-.3-.1 0-.1 0-.2-.1zM106.9 82.5c0 .1 0 .2-.1.3l.1.1c.1-.1.3-.1.2-.3-.1.1-.2 0-.2-.1zM109 101.9c0 .1 0 .2-.1.3l.1.1c.1-.1.3-.1.2-.3-.1.1-.2 0-.2-.1zM113.8 100.7c0 .1 0 .2-.1.3l.1.1c.1-.1.3-.1.2-.3 0 0-.1 0-.2-.1zM127.2 138.1c0 .1 0 .2-.1.3l.1.1c.1-.1.3-.1.2-.3-.1 0-.1 0-.2-.1zM120.5 105.8c.1.1.1.2 0 .2h.3v-.1c-.1 0-.1-.2-.3-.1zM116.4 96.7c.1.1.1.2 0 .2h.3v-.1c-.1 0-.2-.2-.3-.1zM119.1 101.9c.3.3.2.7 0 1 .5 0 1-.2 1.4 0l.2-.5c-.7-.2-.9-1-1.6-.5zM109.3 84.5c.3.3.2.7 0 1 .5 0 1-.2 1.4 0l.2-.5c-.7-.1-1-1-1.6-.5zM115.7 106.1c.1.1.1.2 0 .2h.3v-.1c-.1 0-.2-.2-.3-.1zM120.2 89.3c.1.1.1.2 0 .2h.3v-.1c-.1 0-.1-.2-.3-.1zM112.3 97.9c0 .1-.1.3 0 .3 0-.1.1-.1.1-.1 0-.1 0-.2-.1-.2zM107.1 99.4c-.1.2-.2.7-.2.9h.3c-.1-.4.3-.7-.1-.9zM114 96.8c0 .4.1.9 0 1.1 0 0 .6.1.4-.6-.2 0-.3-.2-.4-.5zM115.3 82.2c0 .4.1.9 0 1.1 0 0 .6.1.4-.6-.1.1-.3-.1-.4-.5zM121.7 109.7c0 .2 0 .4-.1.5l.2.1c.1-.2.4-.3.3-.5-.2.1-.3 0-.4-.1zM114.5 107.7c-.1.2-.1.4-.2.5l.2.1c.1-.2.5-.2.4-.4-.2 0-.4-.1-.4-.2z"/><path class="st0" d="M110.9 132.1c0 .1.1.1.1.2h.1c0-.1.1-.2 0-.3-.1.1-.2.1-.2.1zM109.1 128.8c.1.1.1.1 0 .2.1 0 .2-.1.3 0v-.1c-.2-.1-.2-.2-.3-.1zM84 180.3c.1.1.1.1 0 .2.1 0 .2-.1.3 0v-.1c-.1-.1-.2-.3-.3-.1z"/><path class="st1" d="M88.7 148.6c.1.1.2.3.1.5.2 0 .4-.1.6-.1v-.2c-.3-.1-.5-.5-.7-.2z"/><path class="st0" d="M103.1 139.2c.1.1.1.1 0 .2.1 0 .2-.1.3 0v-.1c-.1 0-.2-.2-.3-.1zM103.8 120.3c.1.1.1.1 0 .2.1 0 .2-.1.3 0v-.1c-.1 0-.2-.2-.3-.1z"/><path class="st1" d="M117.8 144c.1.1.1.1 0 .2.1 0 .2-.1.3 0v-.1c-.1 0-.2-.2-.3-.1z"/><g><path class="st1" d="M120.4 148.4c.1.1.1.1 0 .2.1 0 .2-.1.3 0v-.1c-.1 0-.2-.2-.3-.1zM108.9 163.3c.1.1.1.1 0 .2.1 0 .2-.1.3 0v-.1c-.1 0-.2-.2-.3-.1zM103.1 136.5c.1.1.1.1 0 .2.1 0 .2-.1.3 0v-.1c-.1-.1-.2-.2-.3-.1zM116.2 158.5c.1.1.1.1 0 .2.1 0 .2-.1.3 0v-.1c-.1-.1-.2-.3-.3-.1zM115.9 154.5c.1.1.1.1 0 .2.1 0 .2-.1.3 0v-.1c-.1-.1-.2-.2-.3-.1zM120.2 163.2c.1.1.1.1 0 .2.1 0 .2-.1.3 0v-.1c-.1-.1-.2-.2-.3-.1zM109.1 148c.1.1.1.1 0 .2.1 0 .2-.1.3 0v-.1c-.1 0-.2-.2-.3-.1z"/></g><g><path class="st1" d="M117.4 185.4c0 .1-.1.2-.2.2l.3.3.1-.1c-.1-.1 0-.3-.2-.4zM122 170.2c.1.2.2.5.1.7.2 0 .3-.2.5 0v-.4c-.3-.1-.5-.7-.6-.3zM117.3 167.9c.1.1.1.1 0 .2.1 0 .2-.1.3 0v-.1c-.1-.1-.2-.2-.3-.1z"/></g><path class="st1" d="M75.8 103.3c.4.1.5.3.5.7.3-.2.5-.6.9-.6l-.2-.4c-.5.1-1.1-.3-1.2.3z"/><path class="st0" d="M117.5 133.9c0 .2 0 .4.1.3 0-.1 0-.2.1-.2 0 0-.1 0-.2-.1z"/><g><path class="st1" d="M19.7 135v.2c.1 0 .3.2.4.2 0-.1 0-.3.1-.3 0-.3-.2-.1-.5-.1zM19 141.3c0 .1.1.1.1.2h.1c0-.1.1-.2 0-.3-.1.2-.2.2-.2.1zM18.3 139.4c0 .1.1.1.1.2h.1c0-.1.1-.2 0-.3-.1.2-.1.2-.2.1zM30.4 137.3c.1 0 .1.1.1.2l.2-.2v-.1c-.1.1-.2 0-.3.1zM22.9 144.9c.1 0 .1.1.1.2l.2-.2v-.1c-.1 0-.3-.1-.3.1zM18.5 143.5c.1 0 .1.1.1.2l.2-.2v-.1c-.1 0-.3-.1-.3.1zM16.1 141.6c.1 0 .1.1.1.2l.2-.2v-.1c-.1 0-.2-.1-.3.1zM17.3 141.7c0 .2 0 .4.1.3 0-.1 0-.2.1-.2 0 0-.1 0-.2-.1zM14.6 145.2c0 .2 0 .4.1.3 0-.1 0-.2.1-.2 0 0-.1 0-.2-.1zM17.3 144.6c0 .2 0 .4.1.3 0-.1 0-.2.1-.2 0 0-.1 0-.2-.1zM26.6 140.3c0 .2 0 .4.1.3 0-.1 0-.2.1-.2l-.2-.1zM18.4 146.4c0 .1.1.1.1.2h.1c0-.1.1-.2 0-.3-.1.1-.2.1-.2.1zM23.3 147.9c.2-.1.5-.4.6-.6l-.3-.1c-.1.3-.6.4-.3.7zM16.6 146.1c.1 0 .1.2.1.6.2-.3.4-.7.5-.8 0-.1-.4-.5-.6.2zM16.3 162c.1 0 .1.2.1.6.2-.3.4-.7.5-.8 0-.1-.4-.4-.6.2zM19.7 138.9c.2 0 .2.1.2.3.1-.1.2-.2.4-.3l-.1-.2c-.2.1-.5-.1-.5.2zM21.3 137.7c.2 0 .2.1.2.3.1-.1.2-.2.4-.3l-.1-.2c-.2.1-.5-.1-.5.2z"/></g><g><path class="st1" d="M48.1 217.5c.1.1.1.1 0 .2.1 0 .2-.1.3 0v-.1c-.1 0-.2-.2-.3-.1zM34.1 199.1c-.1 0-.2.1-.3.1v.1c.1 0 .2.2.3 0 0 0-.1-.1 0-.2zM36.5 198.1c-.1 0-.2.1-.3.1v.1c.1 0 .2.2.3 0-.1-.1-.1-.2 0-.2zM32.3 201.3c0 .1-.1.2-.2.2l.3.3.1-.1c-.1-.1.1-.3-.2-.4zM23.6 207.4c0 .1-.1.2-.2.2l.3.3.1-.1c-.1-.2.1-.4-.2-.4zM31.2 198.7c0 .1-.1.2-.2.2l.3.3.1-.1c-.1-.1 0-.3-.2-.4zM27.4 198.9c-.1 0-.2.1-.3.1v.1c.1 0 .2.2.3 0v-.2zM27.5 196.4c0 .2-.3.2-.8.2.4.2 1 .4 1.2.6 0 0 .5-.6-.4-.8zM28.3 202.7c0 .2-.2.3-.4.3.1.2.3.3.4.5l.2-.1c-.1-.3.1-.7-.2-.7zM18.5 188.9c0 .2-.2.3-.4.3.1.2.3.3.4.5l.2-.1c-.1-.2.1-.6-.2-.7zM24 200.7c-.2.1-.3.2-.4.2v.2c.2 0 .4.2.6-.1-.2 0-.3-.1-.2-.3zM22.6 214.9c.2 0 .3.1.3.3.2-.2.2-.4.4-.5l-.1-.2c-.2.2-.5 0-.6.4zM25.4 207.9h-.2c0 .2-.3.3-.1.4.1-.1.2-.1.3 0v-.4zM45.2 196.7c.1 0 0 .1-.1.2.1-.1.3-.2.4-.2 0 0-.1-.2-.3 0zM48.3 205.3c-.1.1-.1.2-.2.2l.1.1c.1-.1.3 0 .4-.2-.2.1-.3 0-.3-.1zM42.7 197.9c-.1.1-.1.2-.2.2l.1.1c.1-.1.3 0 .4-.2-.3 0-.3 0-.3-.1zM78.6 209.8c-.1.1-.1.2-.2.2l.1.1c.1-.1.3 0 .4-.2-.3.1-.3 0-.3-.1zM45.2 203.5c-.1.1-.1.2-.2.2l.1.1c.1-.1.3 0 .4-.2-.3.1-.3 0-.3-.1zM34 214.9c0 .1 0 .2-.1.2.1 0 .2.1.3.1l.1-.1c-.1-.1-.1-.3-.3-.2zM43.8 201l.3.1c.1-.4.6-.6.3-.9-.2.2-.5.6-.6.8zM39.2 203.3c-.1.1-.1.2-.2.2l.1.1c.1-.1.3 0 .4-.2-.2.1-.3 0-.3-.1zM48 211.3c-.1.1-.2.3-.4.4l.1.2c.2-.1.5 0 .6-.3-.2 0-.3-.1-.3-.3zM46.9 201.6c-.1.1-.2.3-.4.4l.1.2c.2-.1.5 0 .6-.3-.2 0-.3-.1-.3-.3zM8.1 143.8c-.1.1-.2.3-.4.4l.1.2c.2-.1.5 0 .6-.3-.2 0-.3-.1-.3-.3zM42.6 207.1c0 .1 0 .2-.1.2.1 0 .2 0 .3.1l.1-.1c-.2-.1-.2-.3-.3-.2z"/></g><g><path class="st1" d="M73.4 155.9c-.1.1-.2.2-.4.2v.2c.2 0 .4.1.5-.1-.1-.1-.1-.2-.1-.3zM71.3 155.1h-.1c0 .1-.2.2-.1.3.1-.1.1-.1.2 0 0-.1-.1-.2 0-.3zM66.8 147l-.2.2v.1c.1 0 .3.1.3-.1-.1 0-.1-.1-.1-.2zM67.9 148.8c0 .1 0 .1-.1.2.1 0 .1 0 .2.1v-.1c.1-.1.1-.3-.1-.2zM70 148h-.1c0 .1-.2.2-.1.3.1-.1.1-.1.2 0 0-.1-.1-.2 0-.3z"/><path class="st1" d="M73.3 155.8c.2.2.1.7.4.6 0-.2-.1-.6-.2-.8l-.2.2zM64.6 150.3c.1.2.5.4.7.5l.1-.3c-.3-.1-.5-.5-.8-.2zM70.2 146.2c.1-.1.3 0 .5.2-.2-.3-.4-.6-.5-.9.1.1-.4.2 0 .7zM69 147.9h-.1c0 .1-.2.2-.1.3.1-.1.1-.1.2 0 0-.1-.1-.2 0-.3zM74.3 151.2h-.1c0 .1-.2.2-.1.3.1-.1.1-.1.2 0 0-.2-.1-.3 0-.3zM69.6 150h-.1c0 .1-.2.2-.1.3.1-.1.1-.1.2 0v-.3zM73.8 148.4h-.1c0 .1-.2.2-.1.3.1-.1.1-.1.2 0v-.3zM71.4 147.7h-.2c0 .2-.3.4-.1.5.1-.1.2-.1.3 0v-.5zM71.8 153h-.2c0 .2-.3.4-.1.5.1-.1.2-.1.3 0 .1-.2 0-.3 0-.5zM67 151.3h-.1c0 .1-.2.2-.1.3.1-.1.1-.1.2 0v-.3zM67.7 150.4l-.2.2v.1c.1 0 .3.1.3-.1-.1 0-.1-.1-.1-.2zM70.1 151.7l-.2.2v.1c.1 0 .3.1.3-.1-.1 0-.1-.1-.1-.2zM68.5 147.4l-.2.2v.1c.1 0 .3.1.3-.1-.1 0-.1-.1-.1-.2z"/></g><g><path class="st1" d="M127 157.5c0 .1-.1.2-.2.2.1.1.3.1.3.3l.1-.1c0-.1.1-.4-.2-.4zM127.1 159.9c-.1 0-.2.1-.2.1v.1c.1 0 .3.1.3-.1-.1.1-.1 0-.1-.1zM122.7 168.3c0 .1 0 .1-.1.2.1.1.2.1.2.2l.1-.1c-.1-.2 0-.3-.2-.3zM122.4 165.3c-.1.1-.2.1-.1.2h.2c-.1-.1-.1-.1-.1-.2zM126.9 164.9c-.1.1-.2.1-.1.2h.2c-.1-.1-.1-.2-.1-.2zM128 163.7c-.1.1-.2.1-.1.2h.2c-.1 0-.2-.1-.1-.2zM131.5 169c-.1 0-.2.1-.2.1v.1c.1 0 .3.1.3-.1-.1 0-.1 0-.1-.1zM126.9 163.1l.2.1c.2-.3.6-.3.4-.6-.2.1-.5.3-.6.5zM124.9 168c.1-.2.2-.6.2-.8h-.3c.1.4-.3.7.1.8zM127.3 168.7s.4.4.6-.2c-.1 0-.1-.2 0-.6-.2.3-.4.7-.6.8zM131.4 176.4c-.1 0-.2.1-.2.1v.1c.1 0 .3.1.3-.1-.1 0-.2 0-.1-.1zM122.3 158.6c-.1 0-.2.1-.2.1v.1c.1 0 .3.1.3-.1-.1.1-.1 0-.1-.1zM134.6 173c-.1 0-.2.1-.2.1v.1c.1 0 .3.1.3-.1-.1 0-.1 0-.1-.1zM119.9 160.1c-.1 0-.2.1-.2.1v.1c.1 0 .3.1.3-.1-.1.1-.1 0-.1-.1zM129.8 163.6c-.1.1-.2.2-.4.2v.2c.2-.1.4.1.5-.1 0 0-.1-.1-.1-.3zM129.5 167.6c-.1.1-.2.2-.4.2v.2c.2-.1.4.1.5-.1 0 0-.1-.1-.1-.3zM125.2 165.3c-.1 0-.2.1-.2.1v.1c.1 0 .3.1.3-.1-.1.1-.1 0-.1-.1zM124 165c0 .1 0 .1-.1.2.1.1.2.1.2.2l.1-.1c-.1-.2 0-.3-.2-.3zM126.3 160.4c0 .1 0 .1-.1.2.1.1.2.1.2.2l.1-.1c-.1-.2-.1-.3-.2-.3zM133.1 170.4c0 .1 0 .1-.1.2.1.1.2.1.2.2l.1-.1c-.1-.2-.1-.3-.2-.3zM124.3 162.2c0 .1 0 .1-.1.2.1.1.2.1.2.2l.1-.1c-.1-.1 0-.3-.2-.3zM127.3 168.1c0 .1 0 .1-.1.2.1.1.2.1.2.2l.1-.1c-.1-.1-.1-.3-.2-.3z"/></g><g><path class="st0" d="M74.2 130.4c-.1.1-.2.2-.4.2v.2c.2 0 .4.1.5-.1-.1-.1-.1-.2-.1-.3zM72.1 129.6H72c0 .1-.2.2-.1.3.1-.1.1-.1.2 0 0-.1-.1-.2 0-.3zM67.6 121.5l-.2.2v.1c.1 0 .3.1.3-.1-.1 0-.1-.1-.1-.2zM68.7 123.3c0 .1 0 .1-.1.2.1 0 .1 0 .2.1v-.1c0-.2 0-.3-.1-.2zM70.7 122.5h-.1c0 .1-.2.2-.1.3.1-.1.1-.1.2 0 .1-.2 0-.3 0-.3z"/><path class="st0" d="M74.1 130.3c.2.2.1.7.4.6 0-.2-.1-.6-.2-.8l-.2.2zM65.4 124.8c.1.2.5.4.7.5l.1-.3c-.3-.1-.5-.5-.8-.2zM71 120.7c.1-.1.3 0 .5.2-.2-.3-.4-.6-.5-.9 0 0-.5.2 0 .7zM69.7 122.4h-.1c0 .1-.2.2-.1.3.1-.1.1-.1.2 0 .1-.2 0-.3 0-.3zM69.7 119.9h-.1c0 .1-.2.2-.1.3.1-.1.1-.1.2 0 .1-.1 0-.2 0-.3zM121.2 130.8h-.1c0 .1-.2.2-.1.3.1-.1.1-.1.2 0 0-.1-.1-.2 0-.3zM70.4 124.5h-.1c0 .1-.2.2-.1.3.1-.1.1-.1.2 0v-.3zM74.6 122.8h-.1c0 .1-.2.2-.1.3.1-.1.1-.1.2 0v-.3zM72.2 122.2H72c0 .2-.3.4-.1.5.1-.1.2-.1.3 0 0-.2-.1-.3 0-.5zM115.6 134h-.2c0 .2-.3.4-.1.5.1-.1.2-.1.3 0 0-.2-.1-.3 0-.5zM72.6 127.5h-.2c0 .2-.3.4-.1.5.1-.1.2-.1.3 0v-.5zM67.8 125.7h-.1c0 .1-.2.2-.1.3.1-.1.1-.1.2 0v-.3zM68.5 124.9l-.2.2v.1c.1 0 .3.1.3-.1-.1-.1-.1-.1-.1-.2zM70.9 126.2c-.1.1-.2.1-.2.2v.1c.1 0 .3.1.3-.1-.1-.1-.1-.1-.1-.2zM69.3 121.9l-.2.2v.1c.1 0 .3.1.3-.1-.1-.1-.2-.1-.1-.2zM71.4 199.4l-.2.2v.1c.1 0 .3.1.3-.1-.1-.1-.1-.1-.1-.2zM72.6 201.1c0 .1 0 .1-.1.2.1 0 .1 0 .2.1v-.1c0-.1 0-.2-.1-.2zM74.6 200.3h-.1c0 .1-.2.2-.1.3.1-.1.1-.1.2 0v-.3zM64.7 205.9h-.1c0 .1-.2.2-.1.3.1-.1.1-.1.2 0 .1-.1 0-.2 0-.3zM74.8 198.5c.1-.1.3 0 .5.2-.2-.3-.4-.6-.5-.9.1.1-.4.3 0 .7zM63.2 182.4c.1-.1.3 0 .5.2-.2-.3-.4-.6-.5-.9.1 0-.4.2 0 .7zM66 215.1c.1-.1.3 0 .5.2-.2-.3-.4-.6-.5-.9.1 0-.4.2 0 .7zM73.6 200.2h-.1c0 .1-.2.2-.1.3.1-.1.1-.1.2 0 0-.1-.1-.2 0-.3zM73.6 197.8h-.1c0 .1-.2.2-.1.3.1-.1.1-.1.2 0 0-.2-.1-.3 0-.3zM74.2 202.4h-.1c0 .1-.2.2-.1.3.1-.1.1-.1.2 0 .1-.2 0-.3 0-.3zM91.4 177.6h-.1c0 .1-.2.2-.1.3.1-.1.1-.1.2 0v-.3zM86.4 187.6h-.2c0 .2-.3.4-.1.5.1-.1.2-.1.3 0 0-.2-.1-.4 0-.5zM71.6 203.6h-.1c0 .1-.2.2-.1.3.1-.1.1-.1.2 0v-.3zM72.3 202.8l-.2.2v.1c.1 0 .3.1.3-.1-.1-.1-.1-.1-.1-.2zM74.8 204.1l-.2.2v.1c.1 0 .3.1.3-.1-.1-.1-.2-.1-.1-.2zM127.2 182.4c-.1.1-.2.1-.2.2v.1c.1 0 .3.1.3-.1-.1-.1-.2-.1-.1-.2zM137.8 211.9c-.1.1-.2.1-.2.2v.1c.1 0 .3.1.3-.1-.1 0-.2-.1-.1-.2zM73.1 199.8l-.2.2v.1c.1 0 .3.1.3-.1-.1-.1-.1-.1-.1-.2zM113.3 211.8l-.2.2v.1c.1 0 .3.1.3-.1-.1-.1-.1-.1-.1-.2zM115.7 131.9l-.2.2v.1c.1 0 .3.1.3-.1 0 0-.1-.1-.1-.2zM138 192.8h-.1c0 .1-.2.2-.1.3.1-.1.1-.1.2 0 0-.1-.1-.2 0-.3zM137.2 193.8h-.2c0 .2-.3.4-.1.5.1-.1.2-.1.3 0 .1-.2 0-.4 0-.5zM137.4 191.7l-.2.2v.1c.1 0 .3.1.3-.1-.1-.1-.1-.1-.1-.2z"/></g><g><path class="st1" d="M110.2 49.2l-.1.1c.1.1 0 .4.2.4 0-.1.1-.2.2-.2l-.3-.3zM106.7 57.6v.2c.1 0 .2 0 .3.1l.1-.1c-.2-.1-.3-.2-.4-.2zM110.1 53.3c.1.1.1.1.1.2.1 0 .2-.1.3-.1v-.1c-.2 0-.3-.2-.4 0zM112.3 42.7c.1.1 0 .3.1.3 0-.1.1-.1.2-.1-.1-.1-.2-.1-.2-.2h-.1zM109.5 59.1c.1.1.2.2.1.4.2 0 .3-.2.4-.1v-.2c-.2-.1-.3-.3-.5-.1zM106.9 49.1c.2-.1.3 0 .5.1.1-.2 0-.4.2-.6l-.2-.1c-.2.3-.6.3-.5.6zM112.7 48.1l-.1.1c.1.1 0 .4.2.4 0-.1 0-.2.1-.3-.1-.1-.2-.1-.2-.2z"/></g><path class="st0" d="M122.4 125.6h-.1c0 .2-.3.3-.1.4.1-.1.2-.1.3 0-.1-.2-.2-.3-.1-.4z"/><g><path class="st1" d="M146.2 205c.1-.2.2-.5.2-.7h-.2c0 .3-.3.6 0 .7zM146.1 208.6c-.1.1-.3.2-.4.2v.2c.2 0 .4.2.5 0-.1-.2-.1-.3-.1-.4zM148.6 205.1c.2.1.2.4.4.4-.1-.2 0-.3.1-.3-.2-.1-.3-.1-.4-.2l-.1.1zM143 205.5h-.2c0 .2-.3.4-.1.5.1-.1.2-.1.4 0-.1-.2-.2-.3-.1-.5zM150.6 200.1c0 .1 0 .1-.1.1.1 0 .2 0 .2.1l.1-.1c-.1-.1-.1-.2-.2-.1zM148.4 197.3h-.1c0 .1-.2.2-.1.3.1-.1.1-.1.2 0v-.3zM139.3 197.3h-.1c0 .1-.2.2-.1.3.1-.1.1-.1.2 0v-.3zM144.9 206.9h-.1c0 .1-.2.2-.1.3.1-.1.1-.1.2 0v-.3zM146.6 201.1h-.1c0 .1-.2.2-.1.3.1-.1.1-.1.2 0 0-.2-.1-.3 0-.3zM140.2 201c-.1 0-.2.1-.3.1v.1c.1 0 .3.1.3-.1 0 0-.1-.1 0-.1zM137.6 194.3c-.1 0-.2.1-.3.1v.1c.1 0 .3.1.3-.1v-.1zM142 200.8c0 .1 0 .1-.1.2.1 0 .2 0 .2.1l.1-.1c-.1-.1-.1-.2-.2-.2zM152.7 189.6c.2.2 0 .6.4.6 0-.2-.1-.6-.1-.8l-.3.2zM153.6 188.4h-.2c-.1.2-.3.3-.2.5.1-.1.2-.1.4 0 0-.2-.1-.3 0-.5zM135.6 204.5c-.1 0-.2.1-.3.1v.1c.1 0 .3.1.3-.1v-.1zM146.5 196.5c-.1 0-.2.1-.3.1v.1c.1 0 .3.1.3-.1v-.1zM153.1 200c-.1.1-.1.3-.2.4l.1.1c.1-.1.4-.1.3-.3l-.2-.2zM154.2 204.6c0 .2-.2.5 0 .6.1-.1.2-.2.4-.1-.1-.2-.2-.3-.2-.5h-.2zM151.6 206.9c-.1.1-.1.3-.2.3l.1.1c.1-.1.4-.1.3-.3-.1 0-.1 0-.2-.1zM150.4 213.8c-.2.2-.4.8-.4 1h.4c0-.4.4-.7 0-1zM149.6 209.4v.1c.1 0 .2 0 0-.1.1.1.1.1 0 0zM147.5 209.6v.1s.1 0 0-.1c0 .1 0 .1 0 0zM148.7 209.7v.2h.1c0-.1.2-.1.1-.2h-.2zM150.8 208.9h-.1v.1c.1 0 .1.1.2.1-.1-.1-.1-.2-.1-.2z"/></g><path class="st0" d="M116.3 186.2v-.1c-.1 0-.1 0-.2-.1-.1-.2-.3-.3-.5-.5 0 .3-.3.5 0 .6-.5.1.6.3.6.3.1.1.1.1.1.2h.2c.1 0 .1-.3-.2-.4z"/><path class="st1" d="M135.3 10c.2 0 .3 0 .4.2.1-.2.1-.4.3-.5l-.2-.2c-.1.2-.6.1-.5.5z"/><g><path class="st1" d="M69.6 164c0 .1.1.3.1.4h.2c0-.2.2-.3.1-.4-.2.1-.3.1-.4 0zM70.2 164.8c.1 0 .2.1.1.3.1-.1.2-.2.3-.2v-.1c-.1-.1-.3-.2-.4 0zM77 155.7l-.1.1c.1.1.1.3.3.2 0-.1 0-.2.1-.2-.2 0-.3 0-.3-.1zM66.9 175.5c0 .1.1.3.1.4h.2c0-.2.2-.3.1-.4-.2.1-.3.1-.4 0zM68.3 175.6c0 .1.1.3.1.4h.2c0-.2.2-.3.1-.4-.2.1-.2.1-.4 0zM60.6 171.4c0 .1.1.3.1.4h.2c0-.2.2-.3.1-.4h-.4zM73.6 165.2c-.1.2-.3.2-.5.1 0 .2.2.4.1.6h.2c.1-.3.5-.5.2-.7zM78 170.5c-.1.2-.3.2-.5.1 0 .2.2.4.1.6h.2c.1-.3.4-.5.2-.7zM65.4 175.6c-.1.2-.3.2-.5.1 0 .2.2.4.1.6h.2c.1-.2.4-.4.2-.7zM70.8 170.9c0 .1.1.3.1.4h.2c0-.2.2-.3.1-.4h-.4zM69.8 172.2c.1 0 .2.1.2.3.1-.1.2-.2.3-.2v-.1c-.3-.1-.5-.2-.5 0zM69 176.4c.1 0 .2.1.1.3.1-.1.2-.2.3-.2v-.1c-.2-.1-.4-.3-.4 0z"/></g><path class="st0" d="M126.5 173.6c.1-.1.2-.4.2-.5h-.2c.1.2-.2.4 0 .5z"/><g><path class="st1" d="M104.6 156.4c.1.1.1.1 0 .2.1 0 .2-.1.3 0v-.1c-.1-.1-.2-.3-.3-.1zM104.5 204.4l-.2.1c.1.2 0 .5.3.5 0-.2.1-.3.2-.3 0-.1-.2-.1-.3-.3zM97.4 204c.2 0 .3 0 .4.2.1-.2.1-.5.3-.6l-.2-.2c-.2.3-.6.2-.5.6zM98.5 176.5c0 .1 0 .2-.1.3l.1.1c.1-.1.3-.1.2-.3-.1 0-.2 0-.2-.1zM113.6 175c0-.1.2-.2.6-.2-.4-.1-.8-.2-1-.4-.1 0-.3.5.4.6zM112.4 190.3c0 .1-.1.2-.2.2l.3.3.1-.1c-.1-.2 0-.4-.2-.4zM114.9 188.5c.2.3.6.6.9.8l.1-.4c-.4-.1-.6-.7-1-.4zM93 192c-.1 0-.2.1-.3.1v.1c.1 0 .2.2.3 0v-.2zM103.4 185c.2 0 .3.1.3.3.2-.2.2-.4.4-.5l-.1-.2c-.2.2-.5.1-.6.4zM108.2 201.7c.2 0 .3.1.3.3.2-.2.2-.4.4-.5l-.1-.2c-.2.3-.6.1-.6.4zM106.7 188c.1.1.1.3.3.3 0-.1 0-.2.1-.3-.1 0-.3 0-.4-.1v.1zM102.4 194.5c.1 0 .2.1.2.2.1-.1.1-.2.3-.3l-.1-.1c-.1 0-.4-.1-.4.2zM85.5 198.7c.2 0 .3.3.2.8.2-.4.3-1 .5-1.3 0 0-.6-.4-.7.5zM84.1 194.5c.1.1.1.3.3.3 0-.1 0-.2.1-.3-.1 0-.3 0-.4-.1v.1zM80.3 192.4c0 .1-.1.1-.2.1.1.1.2.1.2.2h.1c-.1-.1 0-.2-.1-.3zM96.1 192c.1 0 .2 0 .3.1.1-.1.1-.3.2-.3l-.1-.1c-.2.2-.5.1-.4.3zM86.4 184.8c.1 0 .2 0 .3.1.1-.1.1-.3.2-.3l-.1-.1c-.2.1-.4 0-.4.3zM85.4 187.7c.1 0 .2 0 .3.1.1-.1.1-.3.2-.3l-.1-.1c-.2.1-.4.1-.4.3zM84.7 189.8l-.1.1c.2.1.2.3.4.2-.1-.1 0-.2 0-.3-.1 0-.2.1-.3 0zM86.3 183.6l-.1.1c.2.1.2.3.4.2-.1-.1 0-.2 0-.3 0 0-.2.1-.3 0zM93.4 176.6c0 .1-.1.1-.2.1.1.1.2.1.2.2h.1c-.1-.1 0-.3-.1-.3zM95.8 177.6c.1 0 .2 0 .3.1.1-.1.1-.3.2-.3l-.1-.1c-.2.1-.4.1-.4.3zM77.1 206.4c.2-.3.4-.8.4-1.1h-.4c0 .4-.5.8 0 1.1zM93.5 205.3c0 .3.2.8.4 1.1l.3-.2c-.3-.4-.2-1-.7-.9zM88.5 208.5c.2-.1.3.2.4.7.1-.5 0-1.1.2-1.3 0-.1-.7-.3-.6.6zM106.6 176.1c.2-.1.3.2.4.7.1-.5 0-1.1.2-1.3 0 0-.7-.3-.6.6zM94.8 176.6c.1 0 .2 0 .3.1.1-.1.1-.3.2-.3l-.1-.1c-.2.2-.5.1-.4.3zM98 184.9c.1 0 .2 0 .3.1.1-.1.1-.3.2-.3l-.1-.1c-.2.1-.4 0-.4.3zM111.8 205.9c.1 0 .2 0 .3.1.1-.1.1-.3.2-.3l-.1-.1c-.2.1-.4.1-.4.3zM103.3 182.6c.2 0 .3 0 .4.2.1-.2.1-.4.3-.6l-.2-.2c-.2.4-.6.3-.5.6zM84.3 181.4c.2 0 .3 0 .4.2.1-.2.1-.4.3-.5l-.2-.2c-.1.3-.5.2-.5.5zM84.3 174.6c.2 0 .3 0 .4.2.1-.2.1-.4.3-.5l-.2-.2c-.1.2-.5.2-.5.5zM97.3 178.7c.2 0 .3 0 .4.2.1-.2.1-.4.3-.5l-.2-.2c-.1.2-.5.1-.5.5zM88.1 188.8c.2 0 .3 0 .4.2.1-.2.1-.4.3-.6l-.2-.2c-.2.4-.6.3-.5.6zM89.9 178.7c.1 0 .2 0 .3.1.1-.1.1-.3.2-.3l-.1-.1c-.2.2-.5.1-.4.3zM91.4 178.2l-.1.1c.2.1.2.3.4.2-.1-.1 0-.2 0-.3h-.3zM94.7 175.5l-.1.1c.2.1.2.3.4.2-.1-.1 0-.2 0-.3-.1 0-.2.1-.3 0zM111.4 208c0 .1 0 .2-.1.3l.1.1c.1-.1.3-.1.2-.3-.1 0-.1 0-.2-.1zM106.3 208.1c0 .1-.1.1-.2.1.1.1.2.1.2.2h.1c0-.1.1-.3-.1-.3zM95.8 208.8c.1 0 .2 0 .3.1.1-.1.1-.3.2-.3l-.1-.1c-.2.2-.4.1-.4.3zM107.7 208.1c.1 0 .2 0 .3.1.1-.1.1-.3.2-.3l-.1-.1c-.2.2-.4.1-.4.3zM104.4 209.7l-.1.1c.2.1.2.3.4.2-.1-.1 0-.2 0-.3h-.3zM107.6 207l-.1.1c.2.1.2.3.4.2-.1-.1 0-.2 0-.3h-.3zM100.7 176l-.1.1c.2.1.2.3.4.2-.1-.1 0-.2 0-.3-.1.1-.2.1-.3 0z"/><path class="st0" d="M105.6 214.3c0 .1 0 .2-.1.3l.1.1c.1-.1.3-.1.2-.3-.1.1-.2 0-.2-.1zM76.7 184.8c0 .1 0 .2-.1.3l.1.1c.1-.1.3-.1.2-.3-.1 0-.2 0-.2-.1zM102.9 215.5c.1 0 .2 0 .3.1.1-.1.1-.3.2-.3l-.1-.1c-.2.1-.4.1-.4.3zM101.9 214.5c.1 0 .2 0 .3.1.1-.1.1-.3.2-.3l-.1-.1c-.2.1-.5.1-.4.3zM48.3 213.8c.1 0 .2 0 .3.1.1-.1.1-.3.2-.3l-.1-.1c-.2.1-.5.1-.4.3zM104.5 216.5c.2 0 .3 0 .4.2.1-.2.1-.4.3-.5l-.2-.2c-.2.3-.6.2-.5.5zM118.1 195.7c.2 0 .3 0 .4.2.1-.2.1-.4.3-.5l-.2-.2c-.1.2-.5.1-.5.5zM101.8 213.4l-.1.1c.2.1.2.3.4.2-.1-.1 0-.2 0-.3h-.3zM107.8 213.9l-.1.1c.2.1.2.3.4.2-.1-.1 0-.2 0-.3-.1 0-.2.1-.3 0zM87.9 210.1l-.1.1c.2.1.2.3.4.2-.1-.1 0-.2 0-.3 0 0-.2.1-.3 0z"/><path class="st1" d="M111.9 175.6l-.1.1c.2.1.2.3.4.2-.1-.1 0-.2 0-.3-.1.1-.2.1-.3 0zM84.1 206.4c.1.2 0 .3-.2.5.2.1.4.1.6.2l.1-.2c-.2-.2-.2-.6-.5-.5zM95.2 190.1c0 .1 0 .2-.1.3.1 0 .2 0 .3.1l.1-.1c-.1-.1-.1-.3-.3-.3zM104.4 203.4c0 .1-.1.1-.2.1l.2.2h.1c0-.1.1-.3-.1-.3zM104.3 204.9c-.1 0-.1.1-.2.1v.1c.1 0 .2.1.2 0v-.2zM95.6 166.1l.1.1c.1-.2.4-.1.3-.4-.1 0-.3.2-.4.3zM101.4 203.7c-.1 0-.1.1-.2.1v.1c.1 0 .2.1.2 0v-.2zM99.8 204.4c-.1 0-.1.1-.2.1v.1c.1 0 .2.1.2 0s-.1-.1 0-.2zM93.2 195.5c-.1 0-.2.1-.3.1v.1c.1 0 .3.1.3 0 0 0-.1-.1 0-.2z"/></g></svg>