<svg data-name="Layer 1" xmlns="http://www.w3.org/2000/svg" viewBox="0 0 531 788"><title>rockmodifé</title><path d="M531 89c-4-6-4-6-9-8h-23l-8 4h-2l-7 6-2 2-11 13h-2l-4 5-2 4v2h-3l-2 3-2 2h-2l-3 5h-2v2l-4 8-2 4-3 6h-3v2l-3 6h-1l-2 4v3h-3v6l-2 4h-2l-2 4h-3v5h-3l-2 3v9l-2 4h-2l-3 8v6h-1v2l-2 5h-1l-1 2h-1c0 1-3 5-3 7v2h-1v8c-10 18-11 21-14 28l-5 11-3 6c-2-8 3-13 3-36v-11c1-25-1-26-1-31s-1-2-1-7-1-5-2-6v-5h-1l-2-2v-2l-8-7-2-2c-4-3-9-5-12-7h-46c-7 2-15 2-22 14s-11 31-12 39v2a20 20 0 0 0-1 5c0 3-3 9-2 25 0 6 0 9-1 13s-3-9-4-17 0-4 0-14 0-14-1-17a64 64 0 0 1-1-8c-1-7-2-15-3-16h-2l-4-10-3-6-2-3-4-4-5-5-3-3-4-2h-19l-16 3-8 2-3 3-3 3c-2 2-6 10-8 16v5l-2 4v2a18 18 0 0 0-3 6v14l-2 8-2 8a27 27 0 0 0-1 6c-1 18-3 19-4 36 0 5-1 16-3 12s-6-16-7-21c-6-25-10-30-12-48s-4-21-4-21-1-6-2-9l-2-6c-1-1 0-3-1-4s-5-20-5-20l-6-28c-1-2-6-23-6-23s-3-14-5-19l-2-6h-1v-5h-1a69 69 0 0 0-1-7c0-2-1-1-1-3v-3c-1-3-4-14-4-14l-2-5-2-5L74-4 58 25l-5-9-2-3-8-9-2-2-9-3H16l-5 8v2l-4 9v12c0 1-1 5-1 6S5 46 5 47 4 93 5 96v10c0 2-1 4 0 7a33 33 0 0 1 1 8v2s1 11 2 12 1 5 1 5v7a13 13 0 0 1 0 3 5 5 0 0 0 0 2c1 2 2 15 2 16v3a16 16 0 0 1 1 5c1 0 2 7 2 8s2 15 2 16 4 19 3 25a45 45 0 0 0 0 5c0 3 1 10 2 17v6c0 1 1 2 1 3l2 10v7c0 2 1 1 1 3s0 1 1 2v4l2 7v3c2 6 3 19 3 23v6c1 1 2 11 2 12s1 9 1 10a35 35 0 0 1 0 5v4a6 6 0 0 0 0 2v3a2 2 0 0 1 0 1 2 2 0 0 0 0 1s0 7 1 8 0 3 0 3 1 2 0 2 0 5 1 6a1 1 0 0 1 0 1 45 45 0 0 1 0 7 4 4 0 0 0 0 2v2c0 1 0 10 1 9s0 25 0 25 1 29 0 35v3c0 5-2 7-4 21l-2 10c0 2-2 11-2 14s-1 9-1 12-1 6 2 20c0 2 8 33 9 34h1l4 8v4s15 27 15 28h1v5l3 5h1l2 3 2 4 5 8 3 4h2l3 4 4 5 3 4 3 4 2 3h1l3 4 2 2 5 6h1v2l5 6 5 5 2 2 5 5 7 9h1l2 2 4 6 4 3h187l8-2 4-2 7-3 4-2 15-8h1l2-2 4-4c0-1-1-1 0-1a3 3 0 0 0 0-2v-4s1 0 0-1-1-3 0-5 5-9 5-9h1l2-2 5-7 2-3h1l11-16 4-6 4-8c6-16 8-15 12-42v-2c1-3 4-24 4-26s1-7 1-8a32 32 0 0 1 0-4l2-13v-4c0-1 1-6 1-10v3c0-1 1-7 1-8 1-7 4-21 4-27v-2l1-8v-18c0-12 1-10 1-15s1-11 1-15a27 27 0 0 0 1-4c0-4 0-3 1-5v-3c0-3 1-10 1-11v-2c1-3 0-2 1-5v-2l8-34v-5l2-5v-12s1-2 1-3v-2l3-9 2-5 2-6 3-9 2-5v-7l2-6v-3c1-1 1-4 1-4v-3c3-13 13-37 14-41s2-6 2-8h1v-4l2-6h1v-5l3-8v-3l2-5v-7h1v-4s0-2 1-2v-3h1v-2h1v-2s1-2 1-3v-5h1s1-2 1-7v-3a3 3 0 0 0 0-1v-11l2-8a20 20 0 0 0 1-5h1c31-39 30-43 30-46zM245 450c-1 1-1 1 0 0s1-1 0 0zm66 47l-26 38v2h-1v2h-1s-3 5-10 18l-2 5-4 6-6 12c-2 6 2-7 2-9s9-25 19-39l6-8c13-19 13-15 23-29h1zm27-111v6a11 11 0 0 1-1 3c-5 23-5 19-13 36-1 3 1 2-13 27-19 9-14 6-25 5s-25-14-27-19-2-9-2-12 3-7-9 14v2l-4 4h-2l-9 3h-24l-5-2-7-5-3-2c-1-1-6 3-7 5s-13 34-13 37h5l9 6c4 1 33 35 33 37l3 4 3 6 4 8 2 6c1 3 2 8 2 10v3l-4-9h-1c-25-48-39-53-44-59l-17-11-3 6c-1 0-2 3-3 4h-2l-4 5-2 2-7 8c-1 2-2 3 12-25l3-6v-6c1-2 15-30 17-37v-3c4-2 23-18 27-21s39-36 40-38 3-2 4-6l3-5c8-13 8-20 9-23a23 23 0 0 0 1-6c0-5 0-6-2-8v-2c-1-3-4-4-5-6s-6-6-7-8l-3-2c-2-2-10 0-12 0h-7l-17 5-8 3-6 2c-6 1-47 27-58 30l-9 4h-1l-4 3-10 8-4 4c-5 5-5 7-10 14l-6 8-5 7-9 12h-1s-24 29-25 33h-1l1-3c6-24 21-37 29-50s23-24 28-30l2-3c3-3 2-3 7-5l6-4h4l4-2h3l3-2h4l10-6h2l4-2c1 0 1 0 1-3a23 23 0 0 1 0-3 66 66 0 0 0 0-10 18 18 0 0 1 0-3 72 72 0 0 0-1-9 24 24 0 0 1 0-4c0-1 0-1 0 0v-3c0-2 0-1 1 3v3l2 4c2 3 7 25 7 25l4-2 10-4 18-7c13-5 17-8 21-8h6c3-2 17-1 20-2h1c1 1 0 1 1 1l12 11 3 4c5 7 4 4 5 14s0 9-4 20-6 11-17 27-6 9-14 16c-19 15-40 33-40 35s-1 1 0 1l3 3h1l12 4h6c10 0 17-8 19-10s7-13 8-15 2-9 3-12 5-22 5-22l2-3v11c0 5-2 29 7 41l2 2c3 6 12 10 14 10h3c11 3 14 0 17 0h3c1 0 3-3 4-5l15-32h1a9 9 0 0 0 1-4c2-12 6-24 10-33s7-23 9-29c0 13-4 33-5 36z" fill="#231f20"/><path d="M310 497l-26 38v2h-1v2h-1s-3 5-10 18l-2 5-4 6-6 12c-2 6 2-7 2-9s9-25 19-39l6-8c13-19 13-15 23-29h1zM334 382c-3 10-8 22-10 33a9 9 0 0 1-1 4l-15 32c-1 3-3 5-4 5h-3c-3 0-6 3-17 0h-3c-2 0-11-5-14-10v-2c-9-12-8-29-7-41s0-11 0-11l-2 3s-3 17-5 22-1 9-3 12-6 14-8 15-9 10-19 10h-6l-12-4h-1l-3-3v-1c0-2 21-19 40-35 8-6 10-10 14-16s12-13 17-27 5-9 4-20 0-7-5-14l-3-4-12-11-1-1h-1c-2 1-17-1-20 2h-6c-4 0-9 4-21 8l-18 7-10 4-4 2s-5-22-7-25l-2-4v-3c-1-4-1-4-1-3v3a24 24 0 0 0 0 4 72 72 0 0 1 1 9 18 18 0 0 0 0 3 66 66 0 0 1 0 10 23 23 0 0 0 0 3c0 3 0 3-1 3l-4 2h-2l-10 6h-3l-3 2h-3l-4 2h-4l-6 4c-5 3-3 2-7 5l-2 3c-5 6-22 22-28 30s-23 25-29 50c-1 3-1 4 0 3h1c1-4 25-33 25-33h1l9-12 5-7 6-8c5-7 5-8 10-14l4-4 10-8 4-3h1l9-4c12-3 53-29 58-30l6-2 8-3 17-5h7c2 0 11-2 12 0l3 2c1 2 3 1 7 8s4 4 5 6v2c2 2 2 3 2 8a23 23 0 0 1-1 6c-1 3-1 11-9 23l-3 5c-1 3-2 3-4 6s-31 31-40 38-23 19-27 21v3c-2 7-16 35-17 37v6l-3 6c-15 28-14 27-12 25l7-8 2-2 4-5h2c1-1 2-3 3-4l3-6 17 11c5 6 20 11 44 59h1l4 9v-3c-1-2-1-7-2-10l-2-6-4-8-3-6-3-4c0-2-29-37-33-37l-9-6h-5c0-3 13-34 13-37s5-6 7-5l3 2 7 5 5 2h20l9-3h2l4-4 2-2c12-21 8-23 9-14s0 5 2 12 17 19 27 19 5 4 25-5c14-25 12-24 13-27 8-18 7-14 13-36a11 11 0 0 0 1-3v-6c1-3 5-23 6-33-7 2-8 8-14 26zm-231 10c0-1 1 0 0 0zm0-1zm3-3v-2h1zm67-48c1 1 0 1 0 0z" fill="#fff"/><path d="M502 178zM327 249s0-1 0 0zM310 250zM254 565zM173 340c1 1 0 1 0 0zM108 386l-2 3v-2h1zM103 392zM103 392c0-1 1 0 0 0z" fill="#231f20"/><g><path d="M207 2l-3 7 10 4h1l-2 3c-6 10-3 7-11 18l-5 7h-1l-9 15h-2l-15 23-2-3c-3-7-19-29-31-53l-5-10h-1l10-4h1l-4-9c-6 1-24 10-37 14l-13 6-2 2 3 8 14-4h1l6 9 44 71 2 3v17c0 32-1 9-1 61v9h-9v5c0 4 0 7 2 6l49-3v-11c0-1-4-1-5-1h-1c1-1 1-6 0-92l21-33 9-14 17-25c3-5 3-5 4-5h2l12 5 2-4c2-5 2-3-3-6S213-4 208-5l-2 2zM367 2l-46 12s-1 0 0 5v5l10-3c0 8-1 8-3 22-5 47-8 38-11 96-2 32 1 42 1 44s1 3 1 4l2 4 2 5h1l2 2 6 5c11 5 22 3 24 2s20-9 33-32v-2s0 23-2 28c24-1 22-1 22-6s1-7 1-16c-1-21 6-78 9-94s3-25 6-39 0 1 5-30c1-3 1-4 1-4h18c1-10 2-10-1-10s-53 2-53 3-2 13-2 13h12s-1 3-2 12-4 32-6 41v4a29 29 0 0 1-1 7c-1 3-1 3-1 6a82 82 0 0 1-2 11v6c-1 9-16 49-19 53s-10 17-12 19l-6 4h-4l-4-7c-6-21 3-98 15-149 2-7 0-8 3-8h7c-2-13 0-13-3-12z" fill="#231f20"/><path d="M27 10s-2 14-6 35c0 2-12 74-11 75l24-18 11-9v8c0 15 3 55 4 57s0 5 3-8c7-33 8-47 15-77 1-4 2-12 2-13l-4 2-8 6-24 16c-1-12-1-11-2-26s-4-50-4-48z" fill="#fff"/><path d="M261 47l-8 2c-23 11-29 26-32 31-12 20-23 66-4 103a66 66 0 0 0 9 13c5 6 8 7 10 9s29 9 42-2l8-9c6-9 8-14 10-18s2-6 3-8 7-25 8-31 1-8 1-20-1-13-4-27-2-12-9-24-11-13-17-17-15-4-17-3zm4 39c5 3 5 4 10 16l2 8c3 9 3 20 3 21s-1 7-1 12-5 21-10 28-6 7-10 8h-10l-6-7c-14-19-10-63 3-80s9-7 17-7h2z" fill="#231f20"/><path d="M395 64zM68 72zM68 74zM498 86c-2 5-11 58-11 60l-8-6-14-11-2-2h-2c0 29 2 63 2 64 1 36 1 30 3 21 6-28 10-49 12-53l9 5 19 11c0 1 1 0 1-1s-6-93-8-87zM13 157s5 30 10 52l3 17v5l4 26s0 5 1 6a1 1 0 0 1 0 1v4c0 2 1 1 1 3v2a46 46 0 0 0 1 7v1s0 2 1 3a3 3 0 0 1 0 2h1c0 2 1 1 0 2a2 2 0 0 0 0 1h1s6 31 6 32 10 65 13 76 1 6 3 3l19-24v-3c-6-26-10-55-16-75-1-5-3-6 15 13l40 41 14-23c-10-10-13-11-31-30-2-2-22-23-24-27s11-22 11-24l6-13 6-13c2-4 2-4 2-7v-3a575 575 0 0 1-50-33l-14-10c-10-6-11-10-17-13s-8-6-8-4zm34 55h2l4 3h2l3 2 4 3h6l2 2h1c1 0 0 3 0 3s-9 23-10 25l-4 7-7-30c-6-28-6-25-4-25zM31 190s0-1 0 0z" fill="#fff"/><path d="M427 209c-2 4-8 21-9 24h-1v1l-2 7c-9 23-15 40-21 54s-4 13-8 22l-5 13h3l7 3 9 3 5-11c16-36 14-35 16-27l2 10c1 4 7 37 9 39l12-4 4-2h4c-4-17-9-33-12-54v-8c-1-3-1-4 0-4l28-23 14-12-10-17-16 13-11 10c-11 8-8 7-7 2s13-30 13-30l-20-9h-1zM199 233c-17 22-35 46-37 49s0 1 0 2l22 31 51-3c2 0 1 0 14-21l5-9-3-3c-14-14-25-30-45-54l-7 9zm10 28l23 26c-3 0-49 2-48 1l24-28h1zM317 237l-50 50 17 39h2c1 0 57 6 57 5l-7-21h-29l-10-22c1-1 21-21 22-19l3 4 7 9 2-2 6-6 4-4c-9-12-10-16-21-35l-2 2zM446 270zM235 326zM239 327l2 2c7 6 8 12 7 21s0 4-1 4h-1l-2 6-4 6-2 2-5 5-5 4c-16 14-37 13-42 4s-3-4-6-13-1-3-1-8-1-7 5-13-1-4-6 3h-1v2c0 1 0 24 8 34s11 9 16 9h5l7-2 3-2h3l4-2c2-1 11-7 16-14l2-2 2-3c7-7 8-13 10-19s1-17-6-23-3-3-7-3h-4zM232 329zM409 349l-10 13-12 14h-3l-23-2 12 17v2h-1l-24 32c-1 1-1 1-1 2h2l43-26c15 16 20 27 19 21v-4c0-5-1-5-2-11s-3-15 0-16l18-11-12-2c-8-1-7 1-7-5s1-29 1-29v2zM179 353zM144 386c-25 20-20 14-26 29-1 2-15 31-15 32l-23 60-2 5-4 11-2 5s-1 1 0 1v5c-2 6-17 44-18 47 14-5 55-20 54-19l-3 14c-5 19-10 31-14 57l59-32 29-17c33-20 18-7 34-31 1-1 1-2 1-2h-29l-6 3-50 28c0-1 13-56 15-61v-2c0-1-45 12-46 11l20-49c12-30 32-71 31-69-1-11-3-26-4-31l-3 2zM287 385h-7l-8 7c-5 7-4 16-3 37a9 9 0 0 0 1 4h1v2l2 3 5 6c1 1 1 1 1 0v-2c-6-6-2-25-2-31s1-14 4-18 14-8 16-8h6l9 5 2 4c1 0 1 6 0 9v3c-1 12-8 29-13 35l-3 4v1h1l5-5 2-3 2-4 2-4a31 31 0 0 0 4-8c2-9 6-29-1-35l-4-2c-8-2-12-3-22-2zM348 441l-23 16h-1v47c0 1 28 14 35 17l41 17 10 3 2-7v-5l14-44-18-45c-8 0-24 1-60-1h-2zm44 24l8 18-5 22h-3l-12-5c-14-7-12-4-27-12l1-19s36-2 37-2h2zM253 451l-14 12c5 10-1-3 6 11s2 5 7 16h1l5 10 4 10-21 29-7 8 3 5v2c2 3 6 13 11 20 21-45 19-35 48-87l10-19h-12c-10 12-12 16-20 27-3-6-7-17-9-23l-9-27-3 3z" fill="#fff"/><path d="M205 461l-21 26c-4 5-4 4 0 6l10 7 6-12c4-9 4-9 4-4l2 15 15-12h2l-8 38 15 15s0-2 1-7c1-16 4-32 5-45 0-2 2-17 2-18h-2l-23 17c-1-3-5-26-6-28h-2zM301 522l-5 26c-1 6-2 2 9 16s21 26 42 54l8 10c6 0 40-10 53-14v-53l-17-9-6-4c-1 0 0 42 0 45l-17 5-11-12-6-8c-14-17-45-53-45-53s-4-5-4-4zM269 577l-10 35c15 39 34 94 44 115l21-8 5-2-5-13c-3-7-16-42-16-41l18 7c2 1 1 1 3 5 10 25 9 19 15 32l22-8h1l-5-11c-2-3-8-21-9-23s-3-10-8-11-21-10-27-12l2-3 7-11s-9-19-14-34c-1-4 0-2-10-7l-31-12-2 5zm14 21l13 5 6 17v3l-6 11-4-8c0-1-12-29-11-29h1zM235 586l-27 9c-25 10-25 8-26 11s-34 62-34 65 32 54 34 54l57-27c19-87 21-50 5-92-7-20-6-19-8-19zm-12 32l4 11v2l-12 46c-1 2-1 3-2 3l-21 10-11-20 23-47 18-9v3z" fill="#fff"/><path d="M371 710c-1 0-2 1-2 5s0 4-3 6-15 11-20 13c-32 9-73 16-76 14h-37l-37-3h-10l-24-3h-14l-7-8c-1-2 0-1-1-3h-8c-5 0-6 0-9 5h-1c0 5 1 28 1 37a65 65 0 0 0 24 11c20 4 88 8 92 6h69c16-3 44-9 58-19l11-9c2-2 2-1 1-8s-1-14-1-29l-3-5v-3h-2z" fill="#231f20"/><path d="M356 467z" fill="#fff"/></g></svg>